%TF.GenerationSoftware,KiCad,Pcbnew,(7.0.0)*%
%TF.CreationDate,2023-04-20T18:01:31-06:00*%
%TF.ProjectId,PhaseBsheild,50686173-6542-4736-9865-696c642e6b69,rev?*%
%TF.SameCoordinates,Original*%
%TF.FileFunction,Soldermask,Top*%
%TF.FilePolarity,Negative*%
%FSLAX46Y46*%
G04 Gerber Fmt 4.6, Leading zero omitted, Abs format (unit mm)*
G04 Created by KiCad (PCBNEW (7.0.0)) date 2023-04-20 18:01:31*
%MOMM*%
%LPD*%
G01*
G04 APERTURE LIST*
G04 Aperture macros list*
%AMRoundRect*
0 Rectangle with rounded corners*
0 $1 Rounding radius*
0 $2 $3 $4 $5 $6 $7 $8 $9 X,Y pos of 4 corners*
0 Add a 4 corners polygon primitive as box body*
4,1,4,$2,$3,$4,$5,$6,$7,$8,$9,$2,$3,0*
0 Add four circle primitives for the rounded corners*
1,1,$1+$1,$2,$3*
1,1,$1+$1,$4,$5*
1,1,$1+$1,$6,$7*
1,1,$1+$1,$8,$9*
0 Add four rect primitives between the rounded corners*
20,1,$1+$1,$2,$3,$4,$5,0*
20,1,$1+$1,$4,$5,$6,$7,0*
20,1,$1+$1,$6,$7,$8,$9,0*
20,1,$1+$1,$8,$9,$2,$3,0*%
G04 Aperture macros list end*
%ADD10RoundRect,0.200000X0.200000X0.275000X-0.200000X0.275000X-0.200000X-0.275000X0.200000X-0.275000X0*%
%ADD11RoundRect,0.250000X-0.262500X-0.450000X0.262500X-0.450000X0.262500X0.450000X-0.262500X0.450000X0*%
%ADD12RoundRect,0.200000X-0.200000X-0.275000X0.200000X-0.275000X0.200000X0.275000X-0.200000X0.275000X0*%
%ADD13RoundRect,0.225000X-0.225000X-0.250000X0.225000X-0.250000X0.225000X0.250000X-0.225000X0.250000X0*%
%ADD14RoundRect,0.250000X-0.312500X-1.450000X0.312500X-1.450000X0.312500X1.450000X-0.312500X1.450000X0*%
%ADD15RoundRect,0.250000X-0.450000X0.262500X-0.450000X-0.262500X0.450000X-0.262500X0.450000X0.262500X0*%
%ADD16R,1.000000X0.700000*%
%ADD17RoundRect,0.200000X0.275000X-0.200000X0.275000X0.200000X-0.275000X0.200000X-0.275000X-0.200000X0*%
%ADD18C,3.000000*%
%ADD19R,1.400000X1.200000*%
%ADD20RoundRect,0.200000X-0.275000X0.200000X-0.275000X-0.200000X0.275000X-0.200000X0.275000X0.200000X0*%
%ADD21RoundRect,0.225000X0.225000X0.250000X-0.225000X0.250000X-0.225000X-0.250000X0.225000X-0.250000X0*%
%ADD22RoundRect,0.150000X-0.512500X-0.150000X0.512500X-0.150000X0.512500X0.150000X-0.512500X0.150000X0*%
%ADD23R,2.000000X1.500000*%
%ADD24C,1.000000*%
%ADD25R,2.000000X0.500000*%
%ADD26R,1.700000X2.000000*%
%ADD27RoundRect,0.250000X0.262500X0.450000X-0.262500X0.450000X-0.262500X-0.450000X0.262500X-0.450000X0*%
%ADD28R,1.500000X0.550000*%
%ADD29R,0.550000X1.500000*%
%ADD30RoundRect,0.225000X0.250000X-0.225000X0.250000X0.225000X-0.250000X0.225000X-0.250000X-0.225000X0*%
%ADD31R,1.500000X1.500000*%
%ADD32C,1.500000*%
%ADD33RoundRect,0.100000X0.637500X0.100000X-0.637500X0.100000X-0.637500X-0.100000X0.637500X-0.100000X0*%
%ADD34RoundRect,0.243750X0.243750X0.456250X-0.243750X0.456250X-0.243750X-0.456250X0.243750X-0.456250X0*%
%ADD35RoundRect,0.225000X-0.250000X0.225000X-0.250000X-0.225000X0.250000X-0.225000X0.250000X0.225000X0*%
%ADD36RoundRect,0.243750X-0.243750X-0.456250X0.243750X-0.456250X0.243750X0.456250X-0.243750X0.456250X0*%
%ADD37R,2.000000X2.000000*%
%ADD38C,2.000000*%
%ADD39R,1.700000X1.700000*%
%ADD40O,1.700000X1.700000*%
%ADD41RoundRect,0.150000X0.512500X0.150000X-0.512500X0.150000X-0.512500X-0.150000X0.512500X-0.150000X0*%
%ADD42RoundRect,0.250000X0.475000X-0.250000X0.475000X0.250000X-0.475000X0.250000X-0.475000X-0.250000X0*%
G04 APERTURE END LIST*
D10*
%TO.C,R17*%
X160800000Y-69800000D03*
X159150000Y-69800000D03*
%TD*%
D11*
%TO.C,R7*%
X151900000Y-80300000D03*
X153725000Y-80300000D03*
%TD*%
D12*
%TO.C,R15*%
X88665300Y-82281800D03*
X90315300Y-82281800D03*
%TD*%
D13*
%TO.C,C7*%
X126650000Y-74100000D03*
X128200000Y-74100000D03*
%TD*%
D14*
%TO.C,F1*%
X83862500Y-72900000D03*
X88137500Y-72900000D03*
%TD*%
D15*
%TO.C,R2*%
X129900000Y-102975000D03*
X129900000Y-104800000D03*
%TD*%
D16*
%TO.C,S3*%
X105912499Y-85449999D03*
X111912499Y-85449999D03*
X105912499Y-89149999D03*
X111912499Y-89149999D03*
%TD*%
D17*
%TO.C,R21*%
X95100000Y-90550000D03*
X95100000Y-88900000D03*
%TD*%
D12*
%TO.C,R16*%
X88665300Y-80781800D03*
X90315300Y-80781800D03*
%TD*%
D18*
%TO.C,H2*%
X163000000Y-53200000D03*
%TD*%
D19*
%TO.C,Y1*%
X125856099Y-96173799D03*
X123656099Y-96173799D03*
X123656099Y-97873799D03*
X125856099Y-97873799D03*
%TD*%
D20*
%TO.C,R11*%
X124700000Y-92300000D03*
X124700000Y-93950000D03*
%TD*%
D21*
%TO.C,C9*%
X119511100Y-75573800D03*
X117961100Y-75573800D03*
%TD*%
D15*
%TO.C,R14*%
X119500000Y-102075000D03*
X119500000Y-103900000D03*
%TD*%
D22*
%TO.C,U4*%
X93315300Y-80581800D03*
X93315300Y-81531800D03*
X93315300Y-82481800D03*
X95590300Y-82481800D03*
X95590300Y-81531800D03*
X95590300Y-80581800D03*
%TD*%
D23*
%TO.C,S2*%
X99099999Y-95999999D03*
X113399999Y-95999999D03*
X99099999Y-100999999D03*
X113399999Y-100999999D03*
%TD*%
D21*
%TO.C,C8*%
X115575000Y-84300000D03*
X114025000Y-84300000D03*
%TD*%
D24*
%TO.C,J1*%
X83075000Y-79700000D03*
X83075000Y-84100000D03*
D25*
X85774999Y-80299999D03*
X85774999Y-81099999D03*
X85774999Y-81899999D03*
X85774999Y-82699999D03*
X85774999Y-83499999D03*
D26*
X85674999Y-77449999D03*
X80224999Y-77449999D03*
X85674999Y-86349999D03*
X80224999Y-86349999D03*
%TD*%
D13*
%TO.C,C14*%
X134150000Y-98200000D03*
X135700000Y-98200000D03*
%TD*%
D27*
%TO.C,R3*%
X139700000Y-85500000D03*
X137875000Y-85500000D03*
%TD*%
D11*
%TO.C,R4*%
X151875000Y-86300000D03*
X153700000Y-86300000D03*
%TD*%
D15*
%TO.C,R1*%
X143900000Y-101375000D03*
X143900000Y-103200000D03*
%TD*%
D13*
%TO.C,C5*%
X126650000Y-75700000D03*
X128200000Y-75700000D03*
%TD*%
D12*
%TO.C,R12*%
X119731100Y-96273800D03*
X121381100Y-96273800D03*
%TD*%
D28*
%TO.C,U3*%
X117599999Y-79499999D03*
X117599999Y-80299999D03*
X117599999Y-81099999D03*
X117599999Y-81899999D03*
X117599999Y-82699999D03*
X117599999Y-83499999D03*
X117599999Y-84299999D03*
X117599999Y-85099999D03*
X117599999Y-85899999D03*
X117599999Y-86699999D03*
X117599999Y-87499999D03*
D29*
X119299999Y-89199999D03*
X120099999Y-89199999D03*
X120899999Y-89199999D03*
X121699999Y-89199999D03*
X122499999Y-89199999D03*
X123299999Y-89199999D03*
X124099999Y-89199999D03*
X124899999Y-89199999D03*
X125699999Y-89199999D03*
X126499999Y-89199999D03*
X127299999Y-89199999D03*
D28*
X128999999Y-87499999D03*
X128999999Y-86699999D03*
X128999999Y-85899999D03*
X128999999Y-85099999D03*
X128999999Y-84299999D03*
X128999999Y-83499999D03*
X128999999Y-82699999D03*
X128999999Y-81899999D03*
X128999999Y-81099999D03*
X128999999Y-80299999D03*
X128999999Y-79499999D03*
D29*
X127299999Y-77799999D03*
X126499999Y-77799999D03*
X125699999Y-77799999D03*
X124899999Y-77799999D03*
X124099999Y-77799999D03*
X123299999Y-77799999D03*
X122499999Y-77799999D03*
X121699999Y-77799999D03*
X120899999Y-77799999D03*
X120099999Y-77799999D03*
X119299999Y-77799999D03*
%TD*%
D11*
%TO.C,R10*%
X151875000Y-74300000D03*
X153700000Y-74300000D03*
%TD*%
%TO.C,R5*%
X151875000Y-84300000D03*
X153700000Y-84300000D03*
%TD*%
D30*
%TO.C,C13*%
X138500000Y-96620000D03*
X138500000Y-95070000D03*
%TD*%
D18*
%TO.C,H1*%
X162900000Y-105300000D03*
%TD*%
D31*
%TO.C,U2*%
X129968899Y-54548699D03*
D32*
X127428900Y-54548700D03*
X124888900Y-54548700D03*
X122348900Y-54548700D03*
X119808900Y-54548700D03*
X117268900Y-54548700D03*
X117268900Y-69788700D03*
X119808900Y-69788700D03*
X122348900Y-69788700D03*
X124888900Y-69788700D03*
X127428900Y-69788700D03*
X129968900Y-69788700D03*
%TD*%
D33*
%TO.C,U1*%
X145862500Y-81275000D03*
X145862500Y-80625000D03*
X145862500Y-79975000D03*
X145862500Y-79325000D03*
X145862500Y-78675000D03*
X145862500Y-78025000D03*
X145862500Y-77375000D03*
X145862500Y-76725000D03*
X140137500Y-76725000D03*
X140137500Y-77375000D03*
X140137500Y-78025000D03*
X140137500Y-78675000D03*
X140137500Y-79325000D03*
X140137500Y-79975000D03*
X140137500Y-80625000D03*
X140137500Y-81275000D03*
%TD*%
D34*
%TO.C,D2*%
X135775000Y-103600000D03*
X133900000Y-103600000D03*
%TD*%
%TO.C,D3*%
X126000000Y-103700000D03*
X124125000Y-103700000D03*
%TD*%
D35*
%TO.C,C3*%
X120900000Y-91650000D03*
X120900000Y-93200000D03*
%TD*%
D10*
%TO.C,R13*%
X119381100Y-92473800D03*
X117731100Y-92473800D03*
%TD*%
D36*
%TO.C,D1*%
X138725000Y-103400000D03*
X140600000Y-103400000D03*
%TD*%
D21*
%TO.C,C11*%
X123100000Y-75600000D03*
X121550000Y-75600000D03*
%TD*%
%TO.C,C10*%
X115600000Y-82700000D03*
X114050000Y-82700000D03*
%TD*%
D37*
%TO.C,LS1*%
X153499999Y-92499999D03*
D38*
X153500000Y-100100000D03*
%TD*%
D39*
%TO.C,J2*%
X158759999Y-59419999D03*
D40*
X156219999Y-59419999D03*
X158759999Y-61959999D03*
X156219999Y-61959999D03*
X158759999Y-64499999D03*
X156219999Y-64499999D03*
X158759999Y-67039999D03*
X156219999Y-67039999D03*
%TD*%
D39*
%TO.C,J3*%
X85659999Y-66679999D03*
D40*
X88199999Y-66679999D03*
X85659999Y-64139999D03*
X88199999Y-64139999D03*
X85659999Y-61599999D03*
X88199999Y-61599999D03*
%TD*%
D23*
%TO.C,S1*%
X80649999Y-95999999D03*
X94949999Y-95999999D03*
X80649999Y-100999999D03*
X94949999Y-100999999D03*
%TD*%
D17*
%TO.C,R12*%
X100700000Y-90850000D03*
X100700000Y-89200000D03*
%TD*%
D21*
%TO.C,C4*%
X138000000Y-81500000D03*
X136450000Y-81500000D03*
%TD*%
D18*
%TO.C,H3*%
X82900000Y-52900000D03*
%TD*%
D41*
%TO.C,U5*%
X135975000Y-96300000D03*
X135975000Y-95350000D03*
X135975000Y-94400000D03*
X133700000Y-94400000D03*
X133700000Y-96300000D03*
%TD*%
D42*
%TO.C,C6*%
X114381100Y-80073800D03*
X114381100Y-78173800D03*
%TD*%
D11*
%TO.C,R9*%
X151875000Y-76300000D03*
X153700000Y-76300000D03*
%TD*%
D13*
%TO.C,C12*%
X133450000Y-91800000D03*
X135000000Y-91800000D03*
%TD*%
D11*
%TO.C,R6*%
X151900000Y-82300000D03*
X153725000Y-82300000D03*
%TD*%
D35*
%TO.C,C2*%
X128500000Y-94400000D03*
X128500000Y-95950000D03*
%TD*%
D11*
%TO.C,R8*%
X151875000Y-78300000D03*
X153700000Y-78300000D03*
%TD*%
D30*
%TO.C,C1*%
X128456100Y-99068800D03*
X128456100Y-97518800D03*
%TD*%
M02*
