%TF.GenerationSoftware,KiCad,Pcbnew,(7.0.0)*%
%TF.CreationDate,2023-04-20T18:01:31-06:00*%
%TF.ProjectId,PhaseBsheild,50686173-6542-4736-9865-696c642e6b69,rev?*%
%TF.SameCoordinates,Original*%
%TF.FileFunction,Copper,L2,Bot*%
%TF.FilePolarity,Positive*%
%FSLAX46Y46*%
G04 Gerber Fmt 4.6, Leading zero omitted, Abs format (unit mm)*
G04 Created by KiCad (PCBNEW (7.0.0)) date 2023-04-20 18:01:31*
%MOMM*%
%LPD*%
G01*
G04 APERTURE LIST*
%TA.AperFunction,ComponentPad*%
%ADD10R,1.500000X1.500000*%
%TD*%
%TA.AperFunction,ComponentPad*%
%ADD11C,1.500000*%
%TD*%
%TA.AperFunction,ComponentPad*%
%ADD12R,2.000000X2.000000*%
%TD*%
%TA.AperFunction,ComponentPad*%
%ADD13C,2.000000*%
%TD*%
%TA.AperFunction,ComponentPad*%
%ADD14R,1.700000X1.700000*%
%TD*%
%TA.AperFunction,ComponentPad*%
%ADD15O,1.700000X1.700000*%
%TD*%
%TA.AperFunction,ViaPad*%
%ADD16C,0.600000*%
%TD*%
%TA.AperFunction,Conductor*%
%ADD17C,0.250000*%
%TD*%
G04 APERTURE END LIST*
D10*
%TO.P,U2,1,e*%
%TO.N,Net-(U2-e)*%
X129968899Y-54548699D03*
D11*
%TO.P,U2,2,d*%
%TO.N,Net-(U2-d)*%
X127428900Y-54548700D03*
%TO.P,U2,3,DPX*%
%TO.N,Net-(U2-DPX)*%
X124888900Y-54548700D03*
%TO.P,U2,4,c*%
%TO.N,Net-(U2-c)*%
X122348900Y-54548700D03*
%TO.P,U2,5,g*%
%TO.N,Net-(U2-g)*%
X119808900Y-54548700D03*
%TO.P,U2,6,CA4*%
%TO.N,Dig4*%
X117268900Y-54548700D03*
%TO.P,U2,7,b*%
%TO.N,Net-(U2-b)*%
X117268900Y-69788700D03*
%TO.P,U2,8,CA3*%
%TO.N,Dig3*%
X119808900Y-69788700D03*
%TO.P,U2,9,CA2*%
%TO.N,Dig2*%
X122348900Y-69788700D03*
%TO.P,U2,10,f*%
%TO.N,Net-(U2-f)*%
X124888900Y-69788700D03*
%TO.P,U2,11,a*%
%TO.N,Net-(U2-a)*%
X127428900Y-69788700D03*
%TO.P,U2,12,CA1*%
%TO.N,Dig1*%
X129968900Y-69788700D03*
%TD*%
D12*
%TO.P,LS1,1,1*%
%TO.N,Buzzer*%
X153499999Y-92499999D03*
D13*
%TO.P,LS1,2,2*%
%TO.N,GND*%
X153500000Y-100100000D03*
%TD*%
D14*
%TO.P,J2,1,Pin_1*%
%TO.N,GND*%
X158759999Y-59419999D03*
D15*
%TO.P,J2,2,Pin_2*%
%TO.N,TX*%
X156219999Y-59419999D03*
%TO.P,J2,3,Pin_3*%
%TO.N,unconnected-(J2-Pin_3-Pad3)*%
X158759999Y-61959999D03*
%TO.P,J2,4,Pin_4*%
%TO.N,+3.3V*%
X156219999Y-61959999D03*
%TO.P,J2,5,Pin_5*%
%TO.N,Net-(J2-Pin_5)*%
X158759999Y-64499999D03*
%TO.P,J2,6,Pin_6*%
%TO.N,+3.3V*%
X156219999Y-64499999D03*
%TO.P,J2,7,Pin_7*%
%TO.N,RX*%
X158759999Y-67039999D03*
%TO.P,J2,8,Pin_8*%
%TO.N,+3.3V*%
X156219999Y-67039999D03*
%TD*%
D14*
%TO.P,J3,1,MISO*%
%TO.N,MISO*%
X85659999Y-66679999D03*
D15*
%TO.P,J3,2,VCC*%
%TO.N,+5V*%
X88199999Y-66679999D03*
%TO.P,J3,3,SCK*%
%TO.N,SCK*%
X85659999Y-64139999D03*
%TO.P,J3,4,MOSI*%
%TO.N,MOSI*%
X88199999Y-64139999D03*
%TO.P,J3,5,~{RST}*%
%TO.N,RST*%
X85659999Y-61599999D03*
%TO.P,J3,6,GND*%
%TO.N,GND*%
X88199999Y-61599999D03*
%TD*%
D16*
%TO.N,GND*%
X139000000Y-79300000D03*
X120100000Y-78900000D03*
X95100000Y-87900000D03*
X129300000Y-78800000D03*
X147500000Y-76800000D03*
X121700000Y-88100000D03*
X137621300Y-95100000D03*
X126900000Y-103700000D03*
X126500000Y-78900000D03*
X125900000Y-98900000D03*
X118700000Y-82700000D03*
X121400000Y-95400000D03*
X129100000Y-88200000D03*
X86105000Y-84119200D03*
X121400000Y-74500000D03*
X136700000Y-103600000D03*
X127300000Y-97500000D03*
X127400000Y-96000000D03*
X136800000Y-98200000D03*
X94500000Y-82000000D03*
X100700000Y-88200000D03*
X105900000Y-86200000D03*
X113000000Y-82500000D03*
X123500000Y-95100000D03*
X123900000Y-94000000D03*
X135000000Y-95400000D03*
X134400000Y-92900000D03*
X137800000Y-103500000D03*
%TO.N,Red_LED*%
X132500000Y-101689400D03*
X132392700Y-82125900D03*
X132475761Y-88024239D03*
X132500000Y-100440400D03*
%TO.N,Net-(U2-a)*%
X131052800Y-85100000D03*
%TO.N,Net-(U2-c)*%
X149975500Y-66500000D03*
X151224500Y-67200000D03*
%TO.N,Net-(U2-d)*%
X127400000Y-52849200D03*
X156126800Y-82000000D03*
X149975500Y-65616823D03*
X151224500Y-66400000D03*
X154877800Y-82000000D03*
%TO.N,Net-(U2-DPX)*%
X146100000Y-65948200D03*
X147100000Y-67197200D03*
%TO.N,+5V*%
X137200000Y-94315400D03*
X141501089Y-80398911D03*
X140625300Y-81324500D03*
X119381100Y-92473800D03*
X118200000Y-97900000D03*
X130383927Y-91124500D03*
X131851261Y-93400000D03*
X131900000Y-83675500D03*
X131175761Y-86724239D03*
%TO.N,SH_CP*%
X132268600Y-78025000D03*
X130370500Y-83451500D03*
%TO.N,Dig4*%
X116600000Y-76400000D03*
X119374400Y-80485923D03*
%TO.N,Dig3*%
X117749200Y-88285800D03*
%TO.N,Dig2*%
X124100000Y-71674200D03*
X124400000Y-82524500D03*
%TO.N,Dig1*%
X130700000Y-78900000D03*
X130800000Y-76750500D03*
X130000000Y-71600000D03*
X130000000Y-73000000D03*
%TO.N,XTAL2*%
X122500000Y-90488700D03*
X122417700Y-97716600D03*
%TO.N,XTAL1*%
X123475500Y-90800000D03*
X125524500Y-91033906D03*
%TO.N,RST*%
X82400000Y-76825500D03*
X82400000Y-78100000D03*
%TO.N,+3.3V*%
X147673149Y-93092418D03*
X150529039Y-89970961D03*
X146485800Y-93690900D03*
X149645861Y-90854139D03*
%TO.N,TX*%
X127318400Y-90500000D03*
X143347361Y-81052639D03*
X141500000Y-87600000D03*
X141500000Y-86200000D03*
X128567400Y-90500000D03*
X148433761Y-70266239D03*
X150600000Y-68100000D03*
X133958939Y-87741061D03*
X143630539Y-79569461D03*
X131851261Y-89500000D03*
%TO.N,SCK*%
X110271023Y-80675500D03*
X97500000Y-72213000D03*
X113100000Y-86100000D03*
X97600000Y-73462000D03*
%TO.N,MOSI*%
X96300000Y-72213000D03*
X112900000Y-80675500D03*
X99500000Y-74300000D03*
X114600000Y-86300000D03*
%TO.N,RX*%
X135258939Y-89041061D03*
X151841589Y-89541589D03*
X160100000Y-68200000D03*
X161500000Y-68200000D03*
X130700000Y-89700000D03*
X148595861Y-89804139D03*
%TO.N,Net-(C3-Pad2)*%
X110400000Y-86525700D03*
X112900000Y-77600000D03*
X135800000Y-77400500D03*
X110200000Y-82324500D03*
X114200000Y-90449600D03*
X136100000Y-80599500D03*
%TD*%
D17*
%TO.N,Red_LED*%
X132392700Y-82125900D02*
X132578000Y-82311200D01*
X132578000Y-82311200D02*
X132578000Y-87922000D01*
X132578000Y-87922000D02*
X132475761Y-88024239D01*
X132500000Y-100440400D02*
X132500000Y-101689400D01*
%TO.N,Net-(U2-a)*%
X127428900Y-81476100D02*
X127428900Y-69788700D01*
X131052800Y-85100000D02*
X127428900Y-81476100D01*
%TO.N,Net-(U2-c)*%
X151224500Y-67200000D02*
X150675500Y-67200000D01*
X150675500Y-67200000D02*
X149975500Y-66500000D01*
%TO.N,Net-(U2-d)*%
X154877800Y-82000000D02*
X156126800Y-82000000D01*
X151224500Y-66400000D02*
X150758677Y-66400000D01*
X127400000Y-52849200D02*
X127400000Y-54519800D01*
X127400000Y-54519800D02*
X127428900Y-54548700D01*
X150758677Y-66400000D02*
X149975500Y-65616823D01*
%TO.N,Net-(U2-DPX)*%
X147100000Y-66948200D02*
X146100000Y-65948200D01*
X147100000Y-67197200D02*
X147100000Y-66948200D01*
%TO.N,+5V*%
X141400000Y-80600000D02*
X141501089Y-80498911D01*
X119381100Y-92473800D02*
X118200000Y-93654900D01*
X130383927Y-91124500D02*
X130075000Y-90815573D01*
X140675500Y-81324500D02*
X141400000Y-80600000D01*
X141501089Y-80498911D02*
X141501089Y-80398911D01*
X118200000Y-93654900D02*
X118200000Y-97900000D01*
X131900000Y-83675500D02*
X131900000Y-86000000D01*
X140625300Y-81324500D02*
X140675500Y-81324500D01*
X131976261Y-93525000D02*
X131851261Y-93400000D01*
X130075000Y-87825000D02*
X131175761Y-86724239D01*
X131900000Y-86000000D02*
X131175761Y-86724239D01*
X136409600Y-93525000D02*
X131976261Y-93525000D01*
X130075000Y-90815573D02*
X130075000Y-87825000D01*
X137200000Y-94315400D02*
X136409600Y-93525000D01*
%TO.N,SH_CP*%
X130370500Y-81765500D02*
X132268600Y-79867400D01*
X130370500Y-83451500D02*
X130370500Y-81765500D01*
X132268600Y-79867400D02*
X132268600Y-78025000D01*
%TO.N,Dig4*%
X116600000Y-76400000D02*
X116600000Y-77711523D01*
X116600000Y-77711523D02*
X119374400Y-80485923D01*
%TO.N,Dig3*%
X117993800Y-88285800D02*
X119998900Y-86280700D01*
X117749200Y-88285800D02*
X117993800Y-88285800D01*
X119998900Y-80065200D02*
X119446100Y-79512400D01*
X119446100Y-70151500D02*
X119808900Y-69788700D01*
X119998900Y-86280700D02*
X119998900Y-80065200D01*
X119446100Y-79512400D02*
X119446100Y-70151500D01*
%TO.N,Dig2*%
X124100000Y-71674200D02*
X124100000Y-82224500D01*
X124100000Y-82224500D02*
X124400000Y-82524500D01*
%TO.N,Dig1*%
X130800000Y-76750500D02*
X130800000Y-78800000D01*
X130800000Y-78800000D02*
X130700000Y-78900000D01*
X130000000Y-71600000D02*
X130000000Y-73000000D01*
%TO.N,XTAL2*%
X122500000Y-97634300D02*
X122500000Y-90488700D01*
X122417700Y-97716600D02*
X122500000Y-97634300D01*
%TO.N,XTAL1*%
X125524500Y-91033906D02*
X123709406Y-91033906D01*
X123709406Y-91033906D02*
X123475500Y-90800000D01*
%TO.N,RST*%
X82400000Y-76825500D02*
X82400000Y-78100000D01*
%TO.N,+3.3V*%
X146485800Y-93690900D02*
X146935900Y-93690900D01*
X149645861Y-90854139D02*
X150529039Y-89970961D01*
X146935900Y-93690900D02*
X147074667Y-93690900D01*
X147074667Y-93690900D02*
X147673149Y-93092418D01*
%TO.N,TX*%
X132200000Y-89500000D02*
X133958939Y-87741061D01*
X143347361Y-81052639D02*
X143347361Y-79852639D01*
X127318400Y-90500000D02*
X128567400Y-90500000D01*
X143347361Y-79852639D02*
X143630539Y-79569461D01*
X148433761Y-70266239D02*
X150600000Y-68100000D01*
X141500000Y-87600000D02*
X141500000Y-86200000D01*
X131851261Y-89500000D02*
X132200000Y-89500000D01*
%TO.N,SCK*%
X110271023Y-80675500D02*
X113100000Y-83504477D01*
X97500000Y-73362000D02*
X97600000Y-73462000D01*
X113100000Y-83504477D02*
X113100000Y-86100000D01*
X97500000Y-72213000D02*
X97500000Y-73362000D01*
%TO.N,MOSI*%
X96300000Y-73045884D02*
X97554116Y-74300000D01*
X114600000Y-82375500D02*
X114600000Y-86300000D01*
X112900000Y-80675500D02*
X114600000Y-82375500D01*
X97554116Y-74300000D02*
X99500000Y-74300000D01*
X96300000Y-72213000D02*
X96300000Y-73045884D01*
%TO.N,RX*%
X135258939Y-89041061D02*
X134175000Y-90125000D01*
X134175000Y-90125000D02*
X131125000Y-90125000D01*
X151841589Y-89541589D02*
X151645961Y-89345961D01*
X151645961Y-89345961D02*
X149054039Y-89345961D01*
X149054039Y-89345961D02*
X148595861Y-89804139D01*
X160100000Y-68200000D02*
X161500000Y-68200000D01*
X131125000Y-90125000D02*
X130700000Y-89700000D01*
%TO.N,Net-(C3-Pad2)*%
X110200000Y-82324500D02*
X109646023Y-81770523D01*
X136100000Y-77700500D02*
X135800000Y-77400500D01*
X112462639Y-77600000D02*
X112900000Y-77600000D01*
X136100000Y-80599500D02*
X136100000Y-77700500D01*
X110400000Y-86649600D02*
X110400000Y-86525700D01*
X109646023Y-80416616D02*
X112462639Y-77600000D01*
X114200000Y-90449600D02*
X110400000Y-86649600D01*
X109646023Y-81770523D02*
X109646023Y-80416616D01*
%TD*%
%TA.AperFunction,Conductor*%
%TO.N,GND*%
G36*
X168100639Y-47999778D02*
G01*
X168162580Y-48016437D01*
X168207910Y-48061818D01*
X168224500Y-48123778D01*
X168224500Y-109800500D01*
X168207887Y-109862500D01*
X168162500Y-109907887D01*
X168100500Y-109924500D01*
X115708614Y-109924500D01*
X115708200Y-109924499D01*
X78523186Y-109800411D01*
X78461477Y-109783728D01*
X78416277Y-109738524D01*
X78399601Y-109676816D01*
X78375500Y-102217250D01*
X78375500Y-101689400D01*
X131686384Y-101689400D01*
X131687164Y-101696323D01*
X131706002Y-101863523D01*
X131706003Y-101863530D01*
X131706783Y-101870447D01*
X131766957Y-102042415D01*
X131863889Y-102196681D01*
X131992719Y-102325511D01*
X132146985Y-102422443D01*
X132318953Y-102482617D01*
X132500000Y-102503016D01*
X132681047Y-102482617D01*
X132853015Y-102422443D01*
X133007281Y-102325511D01*
X133136111Y-102196681D01*
X133233043Y-102042415D01*
X133293217Y-101870447D01*
X133313616Y-101689400D01*
X133293217Y-101508353D01*
X133233043Y-101336385D01*
X133224788Y-101323248D01*
X152635749Y-101323248D01*
X152643855Y-101334439D01*
X152672717Y-101356903D01*
X152681279Y-101362496D01*
X152890885Y-101475929D01*
X152900239Y-101480032D01*
X153125656Y-101557417D01*
X153135568Y-101559928D01*
X153370643Y-101599155D01*
X153380839Y-101600000D01*
X153619161Y-101600000D01*
X153629356Y-101599155D01*
X153864431Y-101559928D01*
X153874343Y-101557417D01*
X154099760Y-101480032D01*
X154109114Y-101475929D01*
X154318723Y-101362495D01*
X154327281Y-101356903D01*
X154356146Y-101334437D01*
X154364250Y-101323250D01*
X154357589Y-101311142D01*
X153511542Y-100465095D01*
X153500000Y-100458431D01*
X153488457Y-100465095D01*
X152642408Y-101311143D01*
X152635749Y-101323248D01*
X133224788Y-101323248D01*
X133152506Y-101208211D01*
X133133500Y-101142239D01*
X133133500Y-100987561D01*
X133152506Y-100921589D01*
X133215926Y-100820656D01*
X133233043Y-100793415D01*
X133293217Y-100621447D01*
X133313616Y-100440400D01*
X133293217Y-100259353D01*
X133239248Y-100105117D01*
X151995283Y-100105117D01*
X152014962Y-100342618D01*
X152016646Y-100352712D01*
X152075153Y-100583747D01*
X152078472Y-100593414D01*
X152174208Y-100811673D01*
X152179070Y-100820656D01*
X152268999Y-100958304D01*
X152276963Y-100966024D01*
X152286345Y-100960100D01*
X153134904Y-100111542D01*
X153141568Y-100100000D01*
X153858431Y-100100000D01*
X153865095Y-100111542D01*
X154713653Y-100960100D01*
X154723034Y-100966024D01*
X154731002Y-100958299D01*
X154820924Y-100820664D01*
X154825792Y-100811669D01*
X154921527Y-100593414D01*
X154924846Y-100583747D01*
X154983353Y-100352712D01*
X154985037Y-100342618D01*
X155004717Y-100105117D01*
X155004717Y-100094883D01*
X154985037Y-99857381D01*
X154983353Y-99847287D01*
X154924846Y-99616252D01*
X154921527Y-99606585D01*
X154825792Y-99388330D01*
X154820924Y-99379335D01*
X154731002Y-99241699D01*
X154723034Y-99233974D01*
X154713653Y-99239898D01*
X153865095Y-100088457D01*
X153858431Y-100100000D01*
X153141568Y-100100000D01*
X153134904Y-100088457D01*
X152286345Y-99239898D01*
X152276964Y-99233974D01*
X152268997Y-99241699D01*
X152179072Y-99379338D01*
X152174207Y-99388328D01*
X152078472Y-99606585D01*
X152075153Y-99616252D01*
X152016646Y-99847287D01*
X152014962Y-99857381D01*
X151995283Y-100094883D01*
X151995283Y-100105117D01*
X133239248Y-100105117D01*
X133233043Y-100087385D01*
X133136111Y-99933119D01*
X133007281Y-99804289D01*
X133001380Y-99800581D01*
X132858907Y-99711059D01*
X132858905Y-99711058D01*
X132853015Y-99707357D01*
X132846449Y-99705059D01*
X132846446Y-99705058D01*
X132687621Y-99649483D01*
X132687618Y-99649482D01*
X132681047Y-99647183D01*
X132674130Y-99646403D01*
X132674123Y-99646402D01*
X132506923Y-99627564D01*
X132500000Y-99626784D01*
X132493077Y-99627564D01*
X132325876Y-99646402D01*
X132325867Y-99646403D01*
X132318953Y-99647183D01*
X132312383Y-99649481D01*
X132312378Y-99649483D01*
X132153553Y-99705058D01*
X132153547Y-99705060D01*
X132146985Y-99707357D01*
X132141097Y-99711056D01*
X132141092Y-99711059D01*
X131998619Y-99800581D01*
X131998614Y-99800584D01*
X131992719Y-99804289D01*
X131987794Y-99809213D01*
X131987790Y-99809217D01*
X131868817Y-99928190D01*
X131868813Y-99928194D01*
X131863889Y-99933119D01*
X131860184Y-99939014D01*
X131860181Y-99939019D01*
X131770659Y-100081492D01*
X131770656Y-100081497D01*
X131766957Y-100087385D01*
X131764660Y-100093947D01*
X131764658Y-100093953D01*
X131709083Y-100252778D01*
X131709081Y-100252783D01*
X131706783Y-100259353D01*
X131706003Y-100266267D01*
X131706002Y-100266276D01*
X131697401Y-100342618D01*
X131686384Y-100440400D01*
X131687164Y-100447323D01*
X131706002Y-100614523D01*
X131706003Y-100614530D01*
X131706783Y-100621447D01*
X131766957Y-100793415D01*
X131770658Y-100799305D01*
X131770659Y-100799307D01*
X131847494Y-100921589D01*
X131866500Y-100987561D01*
X131866500Y-101142239D01*
X131847494Y-101208211D01*
X131770659Y-101330492D01*
X131770656Y-101330497D01*
X131766957Y-101336385D01*
X131764660Y-101342947D01*
X131764658Y-101342953D01*
X131709083Y-101501778D01*
X131709081Y-101501783D01*
X131706783Y-101508353D01*
X131706003Y-101515267D01*
X131706002Y-101515276D01*
X131687164Y-101682477D01*
X131686384Y-101689400D01*
X78375500Y-101689400D01*
X78375500Y-98876749D01*
X152635748Y-98876749D01*
X152642408Y-98888855D01*
X153488457Y-99734904D01*
X153500000Y-99741568D01*
X153511542Y-99734904D01*
X154357590Y-98888855D01*
X154364250Y-98876749D01*
X154356143Y-98865559D01*
X154327286Y-98843099D01*
X154318719Y-98837503D01*
X154109114Y-98724070D01*
X154099760Y-98719967D01*
X153874343Y-98642582D01*
X153864431Y-98640071D01*
X153629356Y-98600844D01*
X153619161Y-98600000D01*
X153380839Y-98600000D01*
X153370643Y-98600844D01*
X153135568Y-98640071D01*
X153125656Y-98642582D01*
X152900239Y-98719967D01*
X152890885Y-98724070D01*
X152681276Y-98837504D01*
X152672717Y-98843096D01*
X152643854Y-98865560D01*
X152635748Y-98876749D01*
X78375500Y-98876749D01*
X78375500Y-97900000D01*
X117386384Y-97900000D01*
X117387164Y-97906923D01*
X117406002Y-98074123D01*
X117406003Y-98074130D01*
X117406783Y-98081047D01*
X117409082Y-98087618D01*
X117409083Y-98087621D01*
X117456762Y-98223881D01*
X117466957Y-98253015D01*
X117470658Y-98258905D01*
X117470659Y-98258907D01*
X117560181Y-98401380D01*
X117563889Y-98407281D01*
X117692719Y-98536111D01*
X117846985Y-98633043D01*
X118018953Y-98693217D01*
X118200000Y-98713616D01*
X118381047Y-98693217D01*
X118553015Y-98633043D01*
X118707281Y-98536111D01*
X118836111Y-98407281D01*
X118933043Y-98253015D01*
X118993217Y-98081047D01*
X119013616Y-97900000D01*
X118993217Y-97718953D01*
X118992394Y-97716600D01*
X121604084Y-97716600D01*
X121604864Y-97723523D01*
X121623702Y-97890723D01*
X121623703Y-97890730D01*
X121624483Y-97897647D01*
X121626782Y-97904218D01*
X121626783Y-97904221D01*
X121627728Y-97906923D01*
X121684657Y-98069615D01*
X121781589Y-98223881D01*
X121910419Y-98352711D01*
X122064685Y-98449643D01*
X122236653Y-98509817D01*
X122417700Y-98530216D01*
X122598747Y-98509817D01*
X122770715Y-98449643D01*
X122924981Y-98352711D01*
X123053811Y-98223881D01*
X123150743Y-98069615D01*
X123210917Y-97897647D01*
X123231316Y-97716600D01*
X123210917Y-97535553D01*
X123150743Y-97363585D01*
X123147038Y-97357689D01*
X123145780Y-97355076D01*
X123133500Y-97301274D01*
X123133500Y-93400000D01*
X131037645Y-93400000D01*
X131038425Y-93406923D01*
X131057263Y-93574123D01*
X131057264Y-93574130D01*
X131058044Y-93581047D01*
X131060343Y-93587618D01*
X131060344Y-93587621D01*
X131115834Y-93746204D01*
X131118218Y-93753015D01*
X131215150Y-93907281D01*
X131343980Y-94036111D01*
X131498246Y-94133043D01*
X131670214Y-94193217D01*
X131851261Y-94213616D01*
X132032308Y-94193217D01*
X132111639Y-94165457D01*
X132152593Y-94158500D01*
X136095834Y-94158500D01*
X136143287Y-94167939D01*
X136183515Y-94194819D01*
X136366151Y-94377455D01*
X136390190Y-94411334D01*
X136401690Y-94451251D01*
X136406003Y-94489530D01*
X136406004Y-94489535D01*
X136406783Y-94496447D01*
X136466957Y-94668415D01*
X136563889Y-94822681D01*
X136692719Y-94951511D01*
X136846985Y-95048443D01*
X137018953Y-95108617D01*
X137200000Y-95129016D01*
X137381047Y-95108617D01*
X137553015Y-95048443D01*
X137707281Y-94951511D01*
X137836111Y-94822681D01*
X137933043Y-94668415D01*
X137993217Y-94496447D01*
X138013616Y-94315400D01*
X137993217Y-94134353D01*
X137933043Y-93962385D01*
X137836111Y-93808119D01*
X137718892Y-93690900D01*
X145672184Y-93690900D01*
X145672964Y-93697823D01*
X145691802Y-93865023D01*
X145691803Y-93865030D01*
X145692583Y-93871947D01*
X145694882Y-93878518D01*
X145694883Y-93878521D01*
X145748301Y-94031182D01*
X145752757Y-94043915D01*
X145756458Y-94049805D01*
X145756459Y-94049807D01*
X145845124Y-94190916D01*
X145849689Y-94198181D01*
X145978519Y-94327011D01*
X146132785Y-94423943D01*
X146304753Y-94484117D01*
X146485800Y-94504516D01*
X146666847Y-94484117D01*
X146838815Y-94423943D01*
X146964164Y-94345180D01*
X147026239Y-94326235D01*
X147079934Y-94324547D01*
X147082685Y-94324461D01*
X147086580Y-94324400D01*
X147110625Y-94324400D01*
X147114523Y-94324400D01*
X147118391Y-94323911D01*
X147118614Y-94323883D01*
X147130275Y-94322964D01*
X147174556Y-94321573D01*
X147194157Y-94315877D01*
X147213208Y-94311932D01*
X147233464Y-94309374D01*
X147264689Y-94297010D01*
X147274660Y-94293063D01*
X147285710Y-94289279D01*
X147328260Y-94276918D01*
X147345832Y-94266525D01*
X147363299Y-94257968D01*
X147382284Y-94250452D01*
X147418142Y-94224398D01*
X147427890Y-94217996D01*
X147466029Y-94195442D01*
X147480460Y-94181010D01*
X147495255Y-94168372D01*
X147511774Y-94156372D01*
X147540027Y-94122218D01*
X147547870Y-94113599D01*
X147735206Y-93926263D01*
X147769083Y-93902227D01*
X147809000Y-93890727D01*
X147854196Y-93885635D01*
X148026164Y-93825461D01*
X148180430Y-93728529D01*
X148309260Y-93599699D01*
X148341344Y-93548638D01*
X151991500Y-93548638D01*
X151991852Y-93551918D01*
X151991853Y-93551924D01*
X151994239Y-93574123D01*
X151998011Y-93609201D01*
X152000717Y-93616458D01*
X152000719Y-93616463D01*
X152040680Y-93723600D01*
X152049111Y-93746204D01*
X152136739Y-93863261D01*
X152253796Y-93950889D01*
X152390799Y-94001989D01*
X152451362Y-94008500D01*
X154545328Y-94008500D01*
X154548638Y-94008500D01*
X154609201Y-94001989D01*
X154746204Y-93950889D01*
X154863261Y-93863261D01*
X154950889Y-93746204D01*
X155001989Y-93609201D01*
X155008500Y-93548638D01*
X155008500Y-91451362D01*
X155001989Y-91390799D01*
X154950889Y-91253796D01*
X154863261Y-91136739D01*
X154819799Y-91104204D01*
X154753304Y-91054426D01*
X154753303Y-91054425D01*
X154746204Y-91049111D01*
X154737896Y-91046012D01*
X154737894Y-91046011D01*
X154616463Y-91000719D01*
X154616458Y-91000717D01*
X154609201Y-90998011D01*
X154601497Y-90997182D01*
X154601494Y-90997182D01*
X154551924Y-90991853D01*
X154551918Y-90991852D01*
X154548638Y-90991500D01*
X152451362Y-90991500D01*
X152448082Y-90991852D01*
X152448075Y-90991853D01*
X152398505Y-90997182D01*
X152398500Y-90997182D01*
X152390799Y-90998011D01*
X152383543Y-91000717D01*
X152383536Y-91000719D01*
X152262105Y-91046011D01*
X152262099Y-91046013D01*
X152253796Y-91049111D01*
X152246698Y-91054423D01*
X152246695Y-91054426D01*
X152143835Y-91131426D01*
X152143831Y-91131429D01*
X152136739Y-91136739D01*
X152131429Y-91143831D01*
X152131426Y-91143835D01*
X152054426Y-91246695D01*
X152054423Y-91246698D01*
X152049111Y-91253796D01*
X152046013Y-91262099D01*
X152046011Y-91262105D01*
X152000719Y-91383536D01*
X152000717Y-91383543D01*
X151998011Y-91390799D01*
X151997182Y-91398500D01*
X151997182Y-91398505D01*
X151991853Y-91448075D01*
X151991500Y-91451362D01*
X151991500Y-93548638D01*
X148341344Y-93548638D01*
X148406192Y-93445433D01*
X148466366Y-93273465D01*
X148486765Y-93092418D01*
X148483080Y-93059717D01*
X148467862Y-92924649D01*
X148466366Y-92911371D01*
X148406192Y-92739403D01*
X148309260Y-92585137D01*
X148180430Y-92456307D01*
X148174529Y-92452599D01*
X148032056Y-92363077D01*
X148032054Y-92363076D01*
X148026164Y-92359375D01*
X148019598Y-92357077D01*
X148019595Y-92357076D01*
X147860770Y-92301501D01*
X147860767Y-92301500D01*
X147854196Y-92299201D01*
X147847279Y-92298421D01*
X147847272Y-92298420D01*
X147680072Y-92279582D01*
X147673149Y-92278802D01*
X147666226Y-92279582D01*
X147499025Y-92298420D01*
X147499016Y-92298421D01*
X147492102Y-92299201D01*
X147485532Y-92301499D01*
X147485527Y-92301501D01*
X147326702Y-92357076D01*
X147326696Y-92357078D01*
X147320134Y-92359375D01*
X147314246Y-92363074D01*
X147314241Y-92363077D01*
X147171768Y-92452599D01*
X147171763Y-92452602D01*
X147165868Y-92456307D01*
X147160943Y-92461231D01*
X147160939Y-92461235D01*
X147041966Y-92580208D01*
X147041962Y-92580212D01*
X147037038Y-92585137D01*
X147033333Y-92591032D01*
X147033330Y-92591037D01*
X146943808Y-92733510D01*
X146943805Y-92733515D01*
X146940106Y-92739403D01*
X146937808Y-92745968D01*
X146937806Y-92745974D01*
X146901908Y-92848563D01*
X146865750Y-92901596D01*
X146807920Y-92929445D01*
X146743913Y-92924649D01*
X146673421Y-92899983D01*
X146673418Y-92899982D01*
X146666847Y-92897683D01*
X146659930Y-92896903D01*
X146659923Y-92896902D01*
X146492723Y-92878064D01*
X146485800Y-92877284D01*
X146478877Y-92878064D01*
X146311676Y-92896902D01*
X146311667Y-92896903D01*
X146304753Y-92897683D01*
X146298183Y-92899981D01*
X146298178Y-92899983D01*
X146139353Y-92955558D01*
X146139347Y-92955560D01*
X146132785Y-92957857D01*
X146126897Y-92961556D01*
X146126892Y-92961559D01*
X145984419Y-93051081D01*
X145984414Y-93051084D01*
X145978519Y-93054789D01*
X145973594Y-93059713D01*
X145973590Y-93059717D01*
X145854617Y-93178690D01*
X145854613Y-93178694D01*
X145849689Y-93183619D01*
X145845984Y-93189514D01*
X145845981Y-93189519D01*
X145756459Y-93331992D01*
X145756456Y-93331997D01*
X145752757Y-93337885D01*
X145750460Y-93344447D01*
X145750458Y-93344453D01*
X145694883Y-93503278D01*
X145694881Y-93503283D01*
X145692583Y-93509853D01*
X145691803Y-93516767D01*
X145691802Y-93516776D01*
X145673492Y-93679289D01*
X145672184Y-93690900D01*
X137718892Y-93690900D01*
X137707281Y-93679289D01*
X137701380Y-93675581D01*
X137558907Y-93586059D01*
X137558905Y-93586058D01*
X137553015Y-93582357D01*
X137546449Y-93580059D01*
X137546446Y-93580058D01*
X137387621Y-93524483D01*
X137387618Y-93524482D01*
X137381047Y-93522183D01*
X137372329Y-93521200D01*
X137335851Y-93517090D01*
X137295934Y-93505590D01*
X137262056Y-93481551D01*
X136913295Y-93132790D01*
X136905703Y-93124448D01*
X136901600Y-93117982D01*
X136851916Y-93071326D01*
X136849150Y-93068645D01*
X136832127Y-93051622D01*
X136829370Y-93048865D01*
X136826086Y-93046317D01*
X136817224Y-93038746D01*
X136790609Y-93013754D01*
X136790603Y-93013749D01*
X136784921Y-93008414D01*
X136778088Y-93004658D01*
X136778082Y-93004653D01*
X136767029Y-92998576D01*
X136750774Y-92987899D01*
X136740809Y-92980170D01*
X136740806Y-92980168D01*
X136734641Y-92975386D01*
X136693976Y-92957789D01*
X136683484Y-92952649D01*
X136651496Y-92935063D01*
X136651494Y-92935062D01*
X136644660Y-92931305D01*
X136624884Y-92926227D01*
X136606481Y-92919926D01*
X136594909Y-92914918D01*
X136594901Y-92914915D01*
X136587745Y-92911819D01*
X136580040Y-92910598D01*
X136580038Y-92910598D01*
X136543981Y-92904887D01*
X136532555Y-92902521D01*
X136489630Y-92891500D01*
X136481828Y-92891500D01*
X136469215Y-92891500D01*
X136449817Y-92889973D01*
X136437366Y-92888001D01*
X136429657Y-92886780D01*
X136421891Y-92887514D01*
X136421888Y-92887514D01*
X136385542Y-92890950D01*
X136373873Y-92891500D01*
X132537515Y-92891500D01*
X132490062Y-92882061D01*
X132449834Y-92855181D01*
X132363470Y-92768817D01*
X132358542Y-92763889D01*
X132204276Y-92666957D01*
X132197710Y-92664659D01*
X132197707Y-92664658D01*
X132038882Y-92609083D01*
X132038879Y-92609082D01*
X132032308Y-92606783D01*
X132025391Y-92606003D01*
X132025384Y-92606002D01*
X131858184Y-92587164D01*
X131851261Y-92586384D01*
X131844338Y-92587164D01*
X131677137Y-92606002D01*
X131677128Y-92606003D01*
X131670214Y-92606783D01*
X131663644Y-92609081D01*
X131663639Y-92609083D01*
X131504814Y-92664658D01*
X131504808Y-92664660D01*
X131498246Y-92666957D01*
X131492358Y-92670656D01*
X131492353Y-92670659D01*
X131349880Y-92760181D01*
X131349875Y-92760184D01*
X131343980Y-92763889D01*
X131339055Y-92768813D01*
X131339051Y-92768817D01*
X131220078Y-92887790D01*
X131220074Y-92887794D01*
X131215150Y-92892719D01*
X131211445Y-92898614D01*
X131211442Y-92898619D01*
X131121920Y-93041092D01*
X131121917Y-93041097D01*
X131118218Y-93046985D01*
X131115921Y-93053547D01*
X131115919Y-93053553D01*
X131060344Y-93212378D01*
X131060342Y-93212383D01*
X131058044Y-93218953D01*
X131057264Y-93225867D01*
X131057263Y-93225876D01*
X131040966Y-93370528D01*
X131037645Y-93400000D01*
X123133500Y-93400000D01*
X123133500Y-91711172D01*
X123145780Y-91657371D01*
X123180186Y-91614226D01*
X123229905Y-91590281D01*
X123285090Y-91590280D01*
X123287877Y-91590916D01*
X123294453Y-91593217D01*
X123417684Y-91607101D01*
X123463540Y-91621660D01*
X123474346Y-91627601D01*
X123494122Y-91632678D01*
X123512529Y-91638981D01*
X123524097Y-91643987D01*
X123524098Y-91643987D01*
X123531261Y-91647087D01*
X123575027Y-91654018D01*
X123586447Y-91656383D01*
X123629376Y-91667406D01*
X123649791Y-91667406D01*
X123669189Y-91668933D01*
X123689349Y-91672126D01*
X123727882Y-91668483D01*
X123733464Y-91667956D01*
X123745133Y-91667406D01*
X124977339Y-91667406D01*
X125043311Y-91686412D01*
X125117573Y-91733073D01*
X125171485Y-91766949D01*
X125343453Y-91827123D01*
X125524500Y-91847522D01*
X125705547Y-91827123D01*
X125877515Y-91766949D01*
X126031781Y-91670017D01*
X126160611Y-91541187D01*
X126257543Y-91386921D01*
X126317717Y-91214953D01*
X126338116Y-91033906D01*
X126336050Y-91015574D01*
X126318497Y-90859782D01*
X126317717Y-90852859D01*
X126257543Y-90680891D01*
X126160611Y-90526625D01*
X126031781Y-90397795D01*
X125895841Y-90312378D01*
X125883407Y-90304565D01*
X125883405Y-90304564D01*
X125877515Y-90300863D01*
X125870949Y-90298565D01*
X125870946Y-90298564D01*
X125712121Y-90242989D01*
X125712118Y-90242988D01*
X125705547Y-90240689D01*
X125698630Y-90239909D01*
X125698623Y-90239908D01*
X125531423Y-90221070D01*
X125524500Y-90220290D01*
X125517577Y-90221070D01*
X125350376Y-90239908D01*
X125350367Y-90239909D01*
X125343453Y-90240689D01*
X125336883Y-90242987D01*
X125336878Y-90242989D01*
X125178053Y-90298564D01*
X125178047Y-90298566D01*
X125171485Y-90300863D01*
X125165597Y-90304562D01*
X125165592Y-90304565D01*
X125043311Y-90381400D01*
X124977339Y-90400406D01*
X124247808Y-90400406D01*
X124187827Y-90384934D01*
X124142814Y-90342378D01*
X124124755Y-90313637D01*
X124111611Y-90292719D01*
X123982781Y-90163889D01*
X123976880Y-90160181D01*
X123834407Y-90070659D01*
X123834405Y-90070658D01*
X123828515Y-90066957D01*
X123821949Y-90064659D01*
X123821946Y-90064658D01*
X123663121Y-90009083D01*
X123663118Y-90009082D01*
X123656547Y-90006783D01*
X123649630Y-90006003D01*
X123649623Y-90006002D01*
X123482423Y-89987164D01*
X123475500Y-89986384D01*
X123468577Y-89987164D01*
X123301376Y-90006002D01*
X123301367Y-90006003D01*
X123294453Y-90006783D01*
X123287884Y-90009081D01*
X123287873Y-90009084D01*
X123268731Y-90015782D01*
X123218515Y-90022392D01*
X123169846Y-90008373D01*
X123136653Y-89980876D01*
X123136111Y-89981419D01*
X123007281Y-89852589D01*
X123001380Y-89848881D01*
X122858907Y-89759359D01*
X122858905Y-89759358D01*
X122853015Y-89755657D01*
X122846449Y-89753359D01*
X122846446Y-89753358D01*
X122687621Y-89697783D01*
X122687618Y-89697782D01*
X122681047Y-89695483D01*
X122674130Y-89694703D01*
X122674123Y-89694702D01*
X122506923Y-89675864D01*
X122500000Y-89675084D01*
X122493077Y-89675864D01*
X122325876Y-89694702D01*
X122325867Y-89694703D01*
X122318953Y-89695483D01*
X122312383Y-89697781D01*
X122312378Y-89697783D01*
X122153553Y-89753358D01*
X122153547Y-89753360D01*
X122146985Y-89755657D01*
X122141097Y-89759356D01*
X122141092Y-89759359D01*
X121998619Y-89848881D01*
X121998614Y-89848884D01*
X121992719Y-89852589D01*
X121987794Y-89857513D01*
X121987790Y-89857517D01*
X121868817Y-89976490D01*
X121868813Y-89976494D01*
X121863889Y-89981419D01*
X121860184Y-89987314D01*
X121860181Y-89987319D01*
X121770659Y-90129792D01*
X121770656Y-90129797D01*
X121766957Y-90135685D01*
X121764660Y-90142247D01*
X121764658Y-90142253D01*
X121709083Y-90301078D01*
X121709081Y-90301083D01*
X121706783Y-90307653D01*
X121706003Y-90314567D01*
X121706002Y-90314576D01*
X121691425Y-90443957D01*
X121686384Y-90488700D01*
X121687164Y-90495623D01*
X121706002Y-90662823D01*
X121706003Y-90662830D01*
X121706783Y-90669747D01*
X121709082Y-90676318D01*
X121709083Y-90676321D01*
X121750976Y-90796046D01*
X121766957Y-90841715D01*
X121770658Y-90847605D01*
X121770659Y-90847607D01*
X121847494Y-90969889D01*
X121866500Y-91035861D01*
X121866500Y-97073046D01*
X121857061Y-97120499D01*
X121830181Y-97160727D01*
X121786517Y-97204390D01*
X121786513Y-97204394D01*
X121781589Y-97209319D01*
X121777884Y-97215214D01*
X121777881Y-97215219D01*
X121688359Y-97357692D01*
X121688356Y-97357697D01*
X121684657Y-97363585D01*
X121682360Y-97370147D01*
X121682358Y-97370153D01*
X121626783Y-97528978D01*
X121626781Y-97528983D01*
X121624483Y-97535553D01*
X121623703Y-97542467D01*
X121623702Y-97542476D01*
X121604864Y-97709677D01*
X121604084Y-97716600D01*
X118992394Y-97716600D01*
X118933043Y-97546985D01*
X118852506Y-97418811D01*
X118833500Y-97352839D01*
X118833500Y-93968666D01*
X118842939Y-93921213D01*
X118869819Y-93880985D01*
X119443155Y-93307648D01*
X119477035Y-93283609D01*
X119516953Y-93272109D01*
X119555224Y-93267797D01*
X119555223Y-93267797D01*
X119562147Y-93267017D01*
X119734115Y-93206843D01*
X119888381Y-93109911D01*
X120017211Y-92981081D01*
X120114143Y-92826815D01*
X120174317Y-92654847D01*
X120194716Y-92473800D01*
X120174317Y-92292753D01*
X120114143Y-92120785D01*
X120017211Y-91966519D01*
X119888381Y-91837689D01*
X119872807Y-91827903D01*
X119740007Y-91744459D01*
X119740005Y-91744458D01*
X119734115Y-91740757D01*
X119727549Y-91738459D01*
X119727546Y-91738458D01*
X119568721Y-91682883D01*
X119568718Y-91682882D01*
X119562147Y-91680583D01*
X119555230Y-91679803D01*
X119555223Y-91679802D01*
X119388023Y-91660964D01*
X119381100Y-91660184D01*
X119374177Y-91660964D01*
X119206976Y-91679802D01*
X119206967Y-91679803D01*
X119200053Y-91680583D01*
X119193483Y-91682881D01*
X119193478Y-91682883D01*
X119034653Y-91738458D01*
X119034647Y-91738460D01*
X119028085Y-91740757D01*
X119022197Y-91744456D01*
X119022192Y-91744459D01*
X118879719Y-91833981D01*
X118879714Y-91833984D01*
X118873819Y-91837689D01*
X118868894Y-91842613D01*
X118868890Y-91842617D01*
X118749917Y-91961590D01*
X118749913Y-91961594D01*
X118744989Y-91966519D01*
X118741284Y-91972414D01*
X118741281Y-91972419D01*
X118651759Y-92114892D01*
X118651756Y-92114897D01*
X118648057Y-92120785D01*
X118645760Y-92127347D01*
X118645758Y-92127353D01*
X118590181Y-92286185D01*
X118587883Y-92292753D01*
X118587104Y-92299661D01*
X118587103Y-92299668D01*
X118582790Y-92337947D01*
X118571290Y-92377864D01*
X118547251Y-92411742D01*
X117807793Y-93151200D01*
X117799444Y-93158798D01*
X117792982Y-93162900D01*
X117787641Y-93168586D01*
X117787639Y-93168589D01*
X117746338Y-93212569D01*
X117743633Y-93215361D01*
X117723865Y-93235130D01*
X117721481Y-93238202D01*
X117721478Y-93238206D01*
X117721322Y-93238408D01*
X117713752Y-93247270D01*
X117695210Y-93267017D01*
X117683414Y-93279579D01*
X117679659Y-93286407D01*
X117679658Y-93286410D01*
X117673579Y-93297467D01*
X117662903Y-93313719D01*
X117655168Y-93323691D01*
X117655160Y-93323702D01*
X117650386Y-93329859D01*
X117647291Y-93337010D01*
X117647288Y-93337016D01*
X117632786Y-93370528D01*
X117627648Y-93381015D01*
X117610065Y-93412998D01*
X117610061Y-93413006D01*
X117606305Y-93419840D01*
X117604366Y-93427391D01*
X117604363Y-93427399D01*
X117601225Y-93439622D01*
X117594926Y-93458019D01*
X117586819Y-93476755D01*
X117585599Y-93484453D01*
X117585598Y-93484459D01*
X117579888Y-93520511D01*
X117577520Y-93531945D01*
X117568438Y-93567317D01*
X117568436Y-93567326D01*
X117566500Y-93574870D01*
X117566500Y-93582666D01*
X117566500Y-93595285D01*
X117564972Y-93614683D01*
X117561780Y-93634843D01*
X117562514Y-93642608D01*
X117562514Y-93642611D01*
X117565950Y-93678958D01*
X117566500Y-93690627D01*
X117566500Y-97352839D01*
X117547494Y-97418811D01*
X117470659Y-97541092D01*
X117470656Y-97541097D01*
X117466957Y-97546985D01*
X117464660Y-97553547D01*
X117464658Y-97553553D01*
X117409083Y-97712378D01*
X117409081Y-97712383D01*
X117406783Y-97718953D01*
X117406003Y-97725867D01*
X117406002Y-97725876D01*
X117387429Y-97890723D01*
X117386384Y-97900000D01*
X78375500Y-97900000D01*
X78375500Y-86525700D01*
X109586384Y-86525700D01*
X109587164Y-86532623D01*
X109606002Y-86699823D01*
X109606003Y-86699830D01*
X109606783Y-86706747D01*
X109609082Y-86713318D01*
X109609083Y-86713321D01*
X109651779Y-86835341D01*
X109666957Y-86878715D01*
X109670658Y-86884605D01*
X109670659Y-86884607D01*
X109709903Y-86947063D01*
X109763889Y-87032981D01*
X109892719Y-87161811D01*
X110046985Y-87258743D01*
X110053554Y-87261041D01*
X110053555Y-87261042D01*
X110122185Y-87285056D01*
X110168913Y-87314417D01*
X113366151Y-90511655D01*
X113390190Y-90545534D01*
X113401690Y-90585451D01*
X113406003Y-90623730D01*
X113406004Y-90623735D01*
X113406783Y-90630647D01*
X113409081Y-90637214D01*
X113452958Y-90762610D01*
X113466957Y-90802615D01*
X113470658Y-90808505D01*
X113470659Y-90808507D01*
X113560181Y-90950980D01*
X113563889Y-90956881D01*
X113692719Y-91085711D01*
X113846985Y-91182643D01*
X114018953Y-91242817D01*
X114104094Y-91252410D01*
X114190139Y-91262105D01*
X114200000Y-91263216D01*
X114209861Y-91262105D01*
X114295906Y-91252410D01*
X114381047Y-91242817D01*
X114553015Y-91182643D01*
X114707281Y-91085711D01*
X114836111Y-90956881D01*
X114933043Y-90802615D01*
X114993217Y-90630647D01*
X115013616Y-90449600D01*
X114993217Y-90268553D01*
X114933043Y-90096585D01*
X114836111Y-89942319D01*
X114707281Y-89813489D01*
X114648258Y-89776402D01*
X114558907Y-89720259D01*
X114558905Y-89720258D01*
X114553015Y-89716557D01*
X114546449Y-89714259D01*
X114546446Y-89714258D01*
X114387614Y-89658681D01*
X114381047Y-89656383D01*
X114374136Y-89655604D01*
X114374131Y-89655603D01*
X114335851Y-89651290D01*
X114295935Y-89639790D01*
X114262056Y-89615751D01*
X111249155Y-86602850D01*
X111222275Y-86562622D01*
X111214901Y-86525555D01*
X111213616Y-86525700D01*
X111193217Y-86344653D01*
X111133043Y-86172685D01*
X111036111Y-86018419D01*
X110907281Y-85889589D01*
X110849930Y-85853553D01*
X110758907Y-85796359D01*
X110758905Y-85796358D01*
X110753015Y-85792657D01*
X110746449Y-85790359D01*
X110746446Y-85790358D01*
X110587621Y-85734783D01*
X110587618Y-85734782D01*
X110581047Y-85732483D01*
X110574130Y-85731703D01*
X110574123Y-85731702D01*
X110406923Y-85712864D01*
X110400000Y-85712084D01*
X110393077Y-85712864D01*
X110225876Y-85731702D01*
X110225867Y-85731703D01*
X110218953Y-85732483D01*
X110212383Y-85734781D01*
X110212378Y-85734783D01*
X110053553Y-85790358D01*
X110053547Y-85790360D01*
X110046985Y-85792657D01*
X110041097Y-85796356D01*
X110041092Y-85796359D01*
X109898619Y-85885881D01*
X109898614Y-85885884D01*
X109892719Y-85889589D01*
X109887794Y-85894513D01*
X109887790Y-85894517D01*
X109768817Y-86013490D01*
X109768813Y-86013494D01*
X109763889Y-86018419D01*
X109760184Y-86024314D01*
X109760181Y-86024319D01*
X109670659Y-86166792D01*
X109670656Y-86166797D01*
X109666957Y-86172685D01*
X109664660Y-86179247D01*
X109664658Y-86179253D01*
X109609083Y-86338078D01*
X109609081Y-86338083D01*
X109606783Y-86344653D01*
X109606003Y-86351567D01*
X109606002Y-86351576D01*
X109592195Y-86474123D01*
X109586384Y-86525700D01*
X78375500Y-86525700D01*
X78375500Y-80396559D01*
X109007803Y-80396559D01*
X109008537Y-80404324D01*
X109008537Y-80404327D01*
X109011973Y-80440674D01*
X109012523Y-80452343D01*
X109012523Y-81691677D01*
X109011991Y-81702960D01*
X109010321Y-81710432D01*
X109010566Y-81718228D01*
X109010566Y-81718230D01*
X109012462Y-81778540D01*
X109012523Y-81782436D01*
X109012523Y-81810379D01*
X109013011Y-81814244D01*
X109013012Y-81814255D01*
X109013042Y-81814493D01*
X109013957Y-81826119D01*
X109015104Y-81862619D01*
X109015105Y-81862626D01*
X109015350Y-81870412D01*
X109017523Y-81877893D01*
X109017525Y-81877903D01*
X109021045Y-81890018D01*
X109024990Y-81909065D01*
X109027549Y-81929320D01*
X109030418Y-81936568D01*
X109030421Y-81936577D01*
X109043861Y-81970524D01*
X109047644Y-81981571D01*
X109050554Y-81991585D01*
X109060005Y-82024116D01*
X109063976Y-82030831D01*
X109063977Y-82030833D01*
X109070398Y-82041691D01*
X109078953Y-82059154D01*
X109083599Y-82070887D01*
X109086471Y-82078140D01*
X109091053Y-82084447D01*
X109091054Y-82084448D01*
X109112514Y-82113985D01*
X109118928Y-82123750D01*
X109124294Y-82132823D01*
X109141481Y-82161885D01*
X109146998Y-82167402D01*
X109146999Y-82167403D01*
X109155912Y-82176316D01*
X109168548Y-82191111D01*
X109175961Y-82201314D01*
X109175966Y-82201319D01*
X109180551Y-82207630D01*
X109212981Y-82234458D01*
X109214690Y-82235872D01*
X109223320Y-82243724D01*
X109366154Y-82386558D01*
X109390190Y-82420435D01*
X109401690Y-82460351D01*
X109406003Y-82498631D01*
X109406004Y-82498636D01*
X109406783Y-82505547D01*
X109413415Y-82524500D01*
X109464658Y-82670946D01*
X109464659Y-82670949D01*
X109466957Y-82677515D01*
X109470658Y-82683405D01*
X109470659Y-82683407D01*
X109540148Y-82793997D01*
X109563889Y-82831781D01*
X109692719Y-82960611D01*
X109846985Y-83057543D01*
X110018953Y-83117717D01*
X110200000Y-83138116D01*
X110381047Y-83117717D01*
X110553015Y-83057543D01*
X110707281Y-82960611D01*
X110836111Y-82831781D01*
X110933043Y-82677515D01*
X110982979Y-82534804D01*
X111017391Y-82483303D01*
X111072426Y-82454871D01*
X111134346Y-82456608D01*
X111187700Y-82488081D01*
X112430181Y-83730562D01*
X112457061Y-83770790D01*
X112466500Y-83818243D01*
X112466500Y-85552839D01*
X112447494Y-85618811D01*
X112370659Y-85741092D01*
X112370656Y-85741097D01*
X112366957Y-85746985D01*
X112364660Y-85753547D01*
X112364658Y-85753553D01*
X112309083Y-85912378D01*
X112309081Y-85912383D01*
X112306783Y-85918953D01*
X112306003Y-85925867D01*
X112306002Y-85925876D01*
X112288140Y-86084418D01*
X112286384Y-86100000D01*
X112287164Y-86106923D01*
X112306002Y-86274123D01*
X112306003Y-86274130D01*
X112306783Y-86281047D01*
X112309082Y-86287618D01*
X112309083Y-86287621D01*
X112353684Y-86415085D01*
X112366957Y-86453015D01*
X112370658Y-86458905D01*
X112370659Y-86458907D01*
X112434000Y-86559713D01*
X112463889Y-86607281D01*
X112592719Y-86736111D01*
X112746985Y-86833043D01*
X112918953Y-86893217D01*
X113100000Y-86913616D01*
X113281047Y-86893217D01*
X113453015Y-86833043D01*
X113607281Y-86736111D01*
X113688873Y-86654518D01*
X113735595Y-86625162D01*
X113790433Y-86618983D01*
X113842521Y-86637209D01*
X113881544Y-86676231D01*
X113960181Y-86801380D01*
X113963889Y-86807281D01*
X114092719Y-86936111D01*
X114246985Y-87033043D01*
X114418953Y-87093217D01*
X114600000Y-87113616D01*
X114781047Y-87093217D01*
X114953015Y-87033043D01*
X115107281Y-86936111D01*
X115236111Y-86807281D01*
X115333043Y-86653015D01*
X115393217Y-86481047D01*
X115413616Y-86300000D01*
X115393217Y-86118953D01*
X115333043Y-85946985D01*
X115264154Y-85837349D01*
X115252506Y-85818811D01*
X115233500Y-85752839D01*
X115233500Y-82454346D01*
X115234031Y-82443062D01*
X115235702Y-82435591D01*
X115233560Y-82367482D01*
X115233500Y-82363587D01*
X115233500Y-82339542D01*
X115233500Y-82335644D01*
X115232981Y-82331541D01*
X115232064Y-82319889D01*
X115230673Y-82275611D01*
X115224979Y-82256012D01*
X115221032Y-82236955D01*
X115219451Y-82224441D01*
X115218474Y-82216703D01*
X115202159Y-82175498D01*
X115198379Y-82164455D01*
X115188194Y-82129396D01*
X115188193Y-82129393D01*
X115186018Y-82121907D01*
X115175619Y-82104324D01*
X115167070Y-82086871D01*
X115159552Y-82067883D01*
X115133503Y-82032030D01*
X115127098Y-82022279D01*
X115118017Y-82006923D01*
X115104542Y-81984138D01*
X115090106Y-81969702D01*
X115077470Y-81954907D01*
X115073405Y-81949312D01*
X115065472Y-81938393D01*
X115059460Y-81933420D01*
X115059457Y-81933416D01*
X115031325Y-81910143D01*
X115022685Y-81902281D01*
X113733848Y-80613443D01*
X113709809Y-80579564D01*
X113698309Y-80539646D01*
X113693997Y-80501376D01*
X113693217Y-80494453D01*
X113633043Y-80322485D01*
X113536111Y-80168219D01*
X113407281Y-80039389D01*
X113378782Y-80021482D01*
X113258907Y-79946159D01*
X113258905Y-79946158D01*
X113253015Y-79942457D01*
X113246449Y-79940159D01*
X113246446Y-79940158D01*
X113087621Y-79884583D01*
X113087618Y-79884582D01*
X113081047Y-79882283D01*
X113074130Y-79881503D01*
X113074123Y-79881502D01*
X112906923Y-79862664D01*
X112900000Y-79861884D01*
X112893077Y-79862664D01*
X112725876Y-79881502D01*
X112725867Y-79881503D01*
X112718953Y-79882283D01*
X112712383Y-79884581D01*
X112712378Y-79884583D01*
X112553553Y-79940158D01*
X112553547Y-79940160D01*
X112546985Y-79942457D01*
X112541097Y-79946156D01*
X112541092Y-79946159D01*
X112398619Y-80035681D01*
X112398614Y-80035684D01*
X112392719Y-80039389D01*
X112387794Y-80044313D01*
X112387790Y-80044317D01*
X112268817Y-80163290D01*
X112268813Y-80163294D01*
X112263889Y-80168219D01*
X112260184Y-80174114D01*
X112260181Y-80174119D01*
X112170659Y-80316592D01*
X112170656Y-80316597D01*
X112166957Y-80322485D01*
X112164660Y-80329047D01*
X112164658Y-80329053D01*
X112109083Y-80487878D01*
X112109081Y-80487883D01*
X112106783Y-80494453D01*
X112106003Y-80501367D01*
X112106002Y-80501376D01*
X112096833Y-80582762D01*
X112086384Y-80675500D01*
X112087164Y-80682423D01*
X112106002Y-80849623D01*
X112106003Y-80849630D01*
X112106783Y-80856547D01*
X112109082Y-80863118D01*
X112109083Y-80863121D01*
X112156325Y-80998132D01*
X112166957Y-81028515D01*
X112170658Y-81034405D01*
X112170659Y-81034407D01*
X112256569Y-81171131D01*
X112263889Y-81182781D01*
X112392719Y-81311611D01*
X112546985Y-81408543D01*
X112718953Y-81468717D01*
X112725876Y-81469497D01*
X112764146Y-81473809D01*
X112804064Y-81485309D01*
X112837943Y-81509348D01*
X113930181Y-82601586D01*
X113957061Y-82641814D01*
X113966500Y-82689267D01*
X113966500Y-83338085D01*
X113951162Y-83397822D01*
X113908943Y-83442781D01*
X113850286Y-83461840D01*
X113789704Y-83450284D01*
X113742182Y-83410971D01*
X113722296Y-83360744D01*
X113721392Y-83360977D01*
X113719554Y-83353819D01*
X113719478Y-83353627D01*
X113719452Y-83353421D01*
X113719451Y-83353420D01*
X113718474Y-83345680D01*
X113702156Y-83304467D01*
X113698388Y-83293459D01*
X113686019Y-83250884D01*
X113675620Y-83233300D01*
X113667065Y-83215836D01*
X113662425Y-83204117D01*
X113659552Y-83196860D01*
X113633512Y-83161019D01*
X113627098Y-83151255D01*
X113621732Y-83142181D01*
X113604542Y-83113115D01*
X113590106Y-83098679D01*
X113577470Y-83083884D01*
X113565472Y-83067370D01*
X113559460Y-83062397D01*
X113559457Y-83062393D01*
X113531325Y-83039120D01*
X113522685Y-83031258D01*
X111104871Y-80613443D01*
X111080832Y-80579564D01*
X111069332Y-80539646D01*
X111065020Y-80501376D01*
X111064240Y-80494453D01*
X111004066Y-80322485D01*
X110946778Y-80231312D01*
X110914670Y-80180212D01*
X110896444Y-80128124D01*
X110902622Y-80073285D01*
X110931981Y-80026561D01*
X112550055Y-78408486D01*
X112610142Y-78375278D01*
X112678688Y-78379127D01*
X112718953Y-78393217D01*
X112725876Y-78393997D01*
X112854487Y-78408488D01*
X112900000Y-78413616D01*
X113081047Y-78393217D01*
X113253015Y-78333043D01*
X113407281Y-78236111D01*
X113536111Y-78107281D01*
X113633043Y-77953015D01*
X113693217Y-77781047D01*
X113713616Y-77600000D01*
X113693217Y-77418953D01*
X113633043Y-77246985D01*
X113536111Y-77092719D01*
X113407281Y-76963889D01*
X113344790Y-76924623D01*
X113258907Y-76870659D01*
X113258905Y-76870658D01*
X113253015Y-76866957D01*
X113246449Y-76864659D01*
X113246446Y-76864658D01*
X113087621Y-76809083D01*
X113087618Y-76809082D01*
X113081047Y-76806783D01*
X113074130Y-76806003D01*
X113074123Y-76806002D01*
X112906923Y-76787164D01*
X112900000Y-76786384D01*
X112893077Y-76787164D01*
X112725876Y-76806002D01*
X112725867Y-76806003D01*
X112718953Y-76806783D01*
X112712383Y-76809081D01*
X112712378Y-76809083D01*
X112553553Y-76864658D01*
X112553547Y-76864660D01*
X112546985Y-76866957D01*
X112541097Y-76870656D01*
X112541088Y-76870661D01*
X112410641Y-76952626D01*
X112366459Y-76969209D01*
X112362750Y-76969326D01*
X112355269Y-76971498D01*
X112355263Y-76971500D01*
X112343135Y-76975023D01*
X112324099Y-76978965D01*
X112311580Y-76980547D01*
X112311570Y-76980549D01*
X112303842Y-76981526D01*
X112296599Y-76984393D01*
X112296589Y-76984396D01*
X112262652Y-76997832D01*
X112251610Y-77001613D01*
X112216539Y-77011803D01*
X112216532Y-77011805D01*
X112209046Y-77013981D01*
X112202336Y-77017949D01*
X112202327Y-77017953D01*
X112191463Y-77024378D01*
X112174004Y-77032931D01*
X112162276Y-77037575D01*
X112162270Y-77037577D01*
X112155022Y-77040448D01*
X112148717Y-77045028D01*
X112148709Y-77045033D01*
X112119176Y-77066489D01*
X112109421Y-77072897D01*
X112077993Y-77091485D01*
X112077987Y-77091489D01*
X112071277Y-77095458D01*
X112065764Y-77100969D01*
X112065757Y-77100976D01*
X112056836Y-77109897D01*
X112042053Y-77122523D01*
X112031845Y-77129940D01*
X112031839Y-77129944D01*
X112025532Y-77134528D01*
X112020565Y-77140530D01*
X112020554Y-77140542D01*
X111997282Y-77168673D01*
X111989422Y-77177311D01*
X109253816Y-79912916D01*
X109245467Y-79920514D01*
X109239005Y-79924616D01*
X109233664Y-79930302D01*
X109233662Y-79930305D01*
X109192362Y-79974284D01*
X109189657Y-79977076D01*
X109169888Y-79996846D01*
X109167504Y-79999918D01*
X109167501Y-79999922D01*
X109167345Y-80000124D01*
X109159775Y-80008986D01*
X109140755Y-80029242D01*
X109129437Y-80041295D01*
X109125682Y-80048123D01*
X109125681Y-80048126D01*
X109119602Y-80059183D01*
X109108926Y-80075435D01*
X109101191Y-80085407D01*
X109101183Y-80085418D01*
X109096409Y-80091575D01*
X109093314Y-80098726D01*
X109093311Y-80098732D01*
X109078809Y-80132244D01*
X109073671Y-80142731D01*
X109056088Y-80174714D01*
X109056084Y-80174722D01*
X109052328Y-80181556D01*
X109050389Y-80189107D01*
X109050386Y-80189115D01*
X109047248Y-80201338D01*
X109040949Y-80219735D01*
X109032842Y-80238471D01*
X109031622Y-80246169D01*
X109031621Y-80246175D01*
X109025911Y-80282227D01*
X109023543Y-80293661D01*
X109014461Y-80329033D01*
X109014459Y-80329042D01*
X109012523Y-80336586D01*
X109012523Y-80344382D01*
X109012523Y-80357001D01*
X109010995Y-80376399D01*
X109007803Y-80396559D01*
X78375500Y-80396559D01*
X78375500Y-78100000D01*
X81586384Y-78100000D01*
X81587164Y-78106923D01*
X81606002Y-78274123D01*
X81606003Y-78274130D01*
X81606783Y-78281047D01*
X81609082Y-78287618D01*
X81609083Y-78287621D01*
X81653170Y-78413616D01*
X81666957Y-78453015D01*
X81670658Y-78458905D01*
X81670659Y-78458907D01*
X81760181Y-78601380D01*
X81763889Y-78607281D01*
X81892719Y-78736111D01*
X82046985Y-78833043D01*
X82218953Y-78893217D01*
X82400000Y-78913616D01*
X82581047Y-78893217D01*
X82753015Y-78833043D01*
X82907281Y-78736111D01*
X83036111Y-78607281D01*
X83133043Y-78453015D01*
X83193217Y-78281047D01*
X83213616Y-78100000D01*
X83193217Y-77918953D01*
X83133043Y-77746985D01*
X83085917Y-77671985D01*
X83052506Y-77618811D01*
X83033500Y-77552839D01*
X83033500Y-77372661D01*
X83052506Y-77306689D01*
X83100063Y-77231002D01*
X83133043Y-77178515D01*
X83193217Y-77006547D01*
X83213616Y-76825500D01*
X83193217Y-76644453D01*
X83133043Y-76472485D01*
X83087498Y-76400000D01*
X115786384Y-76400000D01*
X115787164Y-76406923D01*
X115806002Y-76574123D01*
X115806003Y-76574130D01*
X115806783Y-76581047D01*
X115809082Y-76587618D01*
X115809083Y-76587621D01*
X115863654Y-76743577D01*
X115866957Y-76753015D01*
X115870658Y-76758905D01*
X115870659Y-76758907D01*
X115947494Y-76881189D01*
X115966500Y-76947161D01*
X115966500Y-77632677D01*
X115965968Y-77643960D01*
X115964298Y-77651432D01*
X115964543Y-77659228D01*
X115964543Y-77659230D01*
X115966439Y-77719540D01*
X115966500Y-77723436D01*
X115966500Y-77751379D01*
X115966988Y-77755244D01*
X115966989Y-77755255D01*
X115967019Y-77755493D01*
X115967934Y-77767119D01*
X115969081Y-77803619D01*
X115969082Y-77803626D01*
X115969327Y-77811412D01*
X115971500Y-77818893D01*
X115971502Y-77818903D01*
X115975022Y-77831018D01*
X115978967Y-77850065D01*
X115979069Y-77850876D01*
X115981526Y-77870320D01*
X115984395Y-77877568D01*
X115984398Y-77877577D01*
X115997838Y-77911524D01*
X116001621Y-77922571D01*
X116013982Y-77965116D01*
X116017953Y-77971831D01*
X116017954Y-77971833D01*
X116024375Y-77982691D01*
X116032930Y-78000154D01*
X116040448Y-78019140D01*
X116045030Y-78025447D01*
X116045031Y-78025448D01*
X116066491Y-78054985D01*
X116072905Y-78064750D01*
X116095458Y-78102885D01*
X116100975Y-78108402D01*
X116100976Y-78108403D01*
X116109889Y-78117316D01*
X116122525Y-78132111D01*
X116129938Y-78142314D01*
X116129943Y-78142319D01*
X116134528Y-78148630D01*
X116168667Y-78176872D01*
X116177308Y-78184735D01*
X118540551Y-80547979D01*
X118564590Y-80581858D01*
X118576090Y-80621774D01*
X118580403Y-80660054D01*
X118580404Y-80660059D01*
X118581183Y-80666970D01*
X118583481Y-80673537D01*
X118635821Y-80823119D01*
X118641357Y-80838938D01*
X118645058Y-80844828D01*
X118645059Y-80844830D01*
X118720939Y-80965592D01*
X118738289Y-80993204D01*
X118867119Y-81122034D01*
X119021385Y-81218966D01*
X119193353Y-81279140D01*
X119200276Y-81279920D01*
X119255284Y-81286118D01*
X119311252Y-81306884D01*
X119351030Y-81351397D01*
X119365400Y-81409338D01*
X119365400Y-85966934D01*
X119355961Y-86014387D01*
X119329081Y-86054615D01*
X117937299Y-87446395D01*
X117890573Y-87475756D01*
X117835735Y-87481934D01*
X117756123Y-87472964D01*
X117749200Y-87472184D01*
X117742277Y-87472964D01*
X117575076Y-87491802D01*
X117575067Y-87491803D01*
X117568153Y-87492583D01*
X117561583Y-87494881D01*
X117561578Y-87494883D01*
X117402753Y-87550458D01*
X117402747Y-87550460D01*
X117396185Y-87552757D01*
X117390297Y-87556456D01*
X117390292Y-87556459D01*
X117247819Y-87645981D01*
X117247814Y-87645984D01*
X117241919Y-87649689D01*
X117236994Y-87654613D01*
X117236990Y-87654617D01*
X117118017Y-87773590D01*
X117118013Y-87773594D01*
X117113089Y-87778519D01*
X117109384Y-87784414D01*
X117109381Y-87784419D01*
X117019859Y-87926892D01*
X117019856Y-87926897D01*
X117016157Y-87932785D01*
X117013860Y-87939347D01*
X117013858Y-87939353D01*
X116958283Y-88098178D01*
X116958281Y-88098183D01*
X116955983Y-88104753D01*
X116955203Y-88111667D01*
X116955202Y-88111676D01*
X116939804Y-88248342D01*
X116935584Y-88285800D01*
X116936364Y-88292723D01*
X116955202Y-88459923D01*
X116955203Y-88459930D01*
X116955983Y-88466847D01*
X116958282Y-88473418D01*
X116958283Y-88473421D01*
X117013087Y-88630043D01*
X117016157Y-88638815D01*
X117019858Y-88644705D01*
X117019859Y-88644707D01*
X117098799Y-88770339D01*
X117113089Y-88793081D01*
X117241919Y-88921911D01*
X117396185Y-89018843D01*
X117568153Y-89079017D01*
X117749200Y-89099416D01*
X117930247Y-89079017D01*
X118102215Y-89018843D01*
X118256481Y-88921911D01*
X118385311Y-88793081D01*
X118388561Y-88787906D01*
X118396675Y-88778827D01*
X118399599Y-88775903D01*
X118414386Y-88763274D01*
X118430907Y-88751272D01*
X118459160Y-88717118D01*
X118467003Y-88708499D01*
X120391112Y-86784390D01*
X120399450Y-86776804D01*
X120405918Y-86772700D01*
X120452606Y-86722979D01*
X120455224Y-86720278D01*
X120475035Y-86700469D01*
X120477562Y-86697209D01*
X120485143Y-86688331D01*
X120515486Y-86656021D01*
X120525321Y-86638130D01*
X120536000Y-86621871D01*
X120548514Y-86605740D01*
X120566116Y-86565061D01*
X120571239Y-86554605D01*
X120592595Y-86515760D01*
X120597673Y-86495983D01*
X120603978Y-86477569D01*
X120605469Y-86474123D01*
X120612081Y-86458845D01*
X120619012Y-86415076D01*
X120621382Y-86403639D01*
X120627183Y-86381047D01*
X120632400Y-86360730D01*
X120632400Y-86340315D01*
X120633927Y-86320917D01*
X120633965Y-86320672D01*
X120637120Y-86300757D01*
X120632950Y-86256642D01*
X120632400Y-86244973D01*
X120632400Y-80144046D01*
X120632931Y-80132762D01*
X120634602Y-80125291D01*
X120632460Y-80057182D01*
X120632400Y-80053287D01*
X120632400Y-80029242D01*
X120632400Y-80025344D01*
X120631881Y-80021241D01*
X120630964Y-80009588D01*
X120630945Y-80008986D01*
X120629573Y-79965310D01*
X120623879Y-79945713D01*
X120619931Y-79926649D01*
X120617374Y-79906403D01*
X120601062Y-79865205D01*
X120597277Y-79854149D01*
X120593268Y-79840350D01*
X120584918Y-79811607D01*
X120574523Y-79794031D01*
X120565963Y-79776555D01*
X120562468Y-79767728D01*
X120558452Y-79757583D01*
X120532407Y-79721736D01*
X120526003Y-79711988D01*
X120503442Y-79673837D01*
X120489007Y-79659402D01*
X120476369Y-79644605D01*
X120468958Y-79634405D01*
X120468957Y-79634404D01*
X120464372Y-79628093D01*
X120430236Y-79599853D01*
X120421596Y-79591991D01*
X120115919Y-79286314D01*
X120089039Y-79246086D01*
X120079600Y-79198633D01*
X120079600Y-71114210D01*
X120091218Y-71061806D01*
X120123894Y-71019221D01*
X120171506Y-70994435D01*
X120210752Y-70983918D01*
X120240976Y-70975820D01*
X120440554Y-70882756D01*
X120620938Y-70756449D01*
X120776649Y-70600738D01*
X120902956Y-70420354D01*
X120966518Y-70284042D01*
X121012275Y-70231867D01*
X121078900Y-70212447D01*
X121145525Y-70231867D01*
X121191281Y-70284042D01*
X121254844Y-70420354D01*
X121257951Y-70424791D01*
X121378045Y-70596303D01*
X121378048Y-70596307D01*
X121381151Y-70600738D01*
X121536862Y-70756449D01*
X121541294Y-70759552D01*
X121541296Y-70759554D01*
X121603370Y-70803018D01*
X121717246Y-70882756D01*
X121916824Y-70975820D01*
X121922044Y-70977218D01*
X121922045Y-70977219D01*
X122124296Y-71031413D01*
X122124298Y-71031413D01*
X122129529Y-71032815D01*
X122348900Y-71052007D01*
X122568271Y-71032815D01*
X122780976Y-70975820D01*
X122980554Y-70882756D01*
X123160938Y-70756449D01*
X123316649Y-70600738D01*
X123442956Y-70420354D01*
X123506518Y-70284042D01*
X123552275Y-70231867D01*
X123618900Y-70212447D01*
X123685525Y-70231867D01*
X123731281Y-70284042D01*
X123794844Y-70420354D01*
X123797951Y-70424791D01*
X123918045Y-70596303D01*
X123918048Y-70596307D01*
X123921151Y-70600738D01*
X123924982Y-70604569D01*
X123990914Y-70670501D01*
X124023303Y-70727210D01*
X124022386Y-70792511D01*
X123988419Y-70848289D01*
X123930823Y-70879074D01*
X123925875Y-70880203D01*
X123918953Y-70880983D01*
X123912383Y-70883281D01*
X123912378Y-70883283D01*
X123753553Y-70938858D01*
X123753547Y-70938860D01*
X123746985Y-70941157D01*
X123741097Y-70944856D01*
X123741092Y-70944859D01*
X123598619Y-71034381D01*
X123598614Y-71034384D01*
X123592719Y-71038089D01*
X123587794Y-71043013D01*
X123587790Y-71043017D01*
X123468817Y-71161990D01*
X123468813Y-71161994D01*
X123463889Y-71166919D01*
X123460184Y-71172814D01*
X123460181Y-71172819D01*
X123370659Y-71315292D01*
X123370656Y-71315297D01*
X123366957Y-71321185D01*
X123364660Y-71327747D01*
X123364658Y-71327753D01*
X123309083Y-71486578D01*
X123309081Y-71486583D01*
X123306783Y-71493153D01*
X123306003Y-71500067D01*
X123306002Y-71500076D01*
X123287164Y-71667277D01*
X123286384Y-71674200D01*
X123287164Y-71681123D01*
X123306002Y-71848323D01*
X123306003Y-71848330D01*
X123306783Y-71855247D01*
X123309082Y-71861818D01*
X123309083Y-71861821D01*
X123338694Y-71946446D01*
X123366957Y-72027215D01*
X123370658Y-72033105D01*
X123370659Y-72033107D01*
X123447494Y-72155389D01*
X123466500Y-72221361D01*
X123466500Y-82145654D01*
X123465968Y-82156937D01*
X123464298Y-82164409D01*
X123464543Y-82172205D01*
X123464543Y-82172207D01*
X123466439Y-82232517D01*
X123466500Y-82236413D01*
X123466500Y-82264356D01*
X123466988Y-82268221D01*
X123466989Y-82268232D01*
X123467019Y-82268470D01*
X123467934Y-82280096D01*
X123469081Y-82316596D01*
X123469082Y-82316603D01*
X123469327Y-82324389D01*
X123471500Y-82331870D01*
X123471502Y-82331880D01*
X123475022Y-82343995D01*
X123478967Y-82363042D01*
X123481526Y-82383297D01*
X123484395Y-82390545D01*
X123484398Y-82390554D01*
X123497838Y-82424501D01*
X123501621Y-82435548D01*
X123503692Y-82442677D01*
X123513982Y-82478093D01*
X123517953Y-82484808D01*
X123517954Y-82484810D01*
X123524375Y-82495668D01*
X123532930Y-82513131D01*
X123540448Y-82532117D01*
X123545030Y-82538424D01*
X123545031Y-82538425D01*
X123566491Y-82567962D01*
X123572898Y-82577716D01*
X123583449Y-82595556D01*
X123599937Y-82644792D01*
X123606003Y-82698630D01*
X123606004Y-82698635D01*
X123606783Y-82705547D01*
X123609081Y-82712114D01*
X123626540Y-82762011D01*
X123666957Y-82877515D01*
X123670658Y-82883405D01*
X123670659Y-82883407D01*
X123706318Y-82940158D01*
X123763889Y-83031781D01*
X123892719Y-83160611D01*
X124046985Y-83257543D01*
X124218953Y-83317717D01*
X124400000Y-83338116D01*
X124581047Y-83317717D01*
X124753015Y-83257543D01*
X124907281Y-83160611D01*
X125036111Y-83031781D01*
X125133043Y-82877515D01*
X125193217Y-82705547D01*
X125213616Y-82524500D01*
X125193217Y-82343453D01*
X125133043Y-82171485D01*
X125036111Y-82017219D01*
X124907281Y-81888389D01*
X124870814Y-81865475D01*
X124791528Y-81815656D01*
X124748972Y-81770643D01*
X124733500Y-81710662D01*
X124733500Y-72221361D01*
X124752506Y-72155389D01*
X124782734Y-72107281D01*
X124833043Y-72027215D01*
X124893217Y-71855247D01*
X124913616Y-71674200D01*
X124893217Y-71493153D01*
X124833043Y-71321185D01*
X124782978Y-71241507D01*
X124764021Y-71179013D01*
X124779444Y-71115554D01*
X124824971Y-71068732D01*
X124886887Y-71051830D01*
X124888900Y-71052007D01*
X125108271Y-71032815D01*
X125320976Y-70975820D01*
X125520554Y-70882756D01*
X125700938Y-70756449D01*
X125856649Y-70600738D01*
X125982956Y-70420354D01*
X126046518Y-70284042D01*
X126092275Y-70231867D01*
X126158900Y-70212447D01*
X126225525Y-70231867D01*
X126271281Y-70284042D01*
X126334844Y-70420354D01*
X126337951Y-70424791D01*
X126458045Y-70596303D01*
X126458048Y-70596307D01*
X126461151Y-70600738D01*
X126616862Y-70756449D01*
X126621294Y-70759552D01*
X126621296Y-70759554D01*
X126742524Y-70844439D01*
X126781389Y-70888757D01*
X126795400Y-70946014D01*
X126795400Y-81397254D01*
X126794868Y-81408537D01*
X126793198Y-81416009D01*
X126793443Y-81423805D01*
X126793443Y-81423807D01*
X126795339Y-81484117D01*
X126795400Y-81488013D01*
X126795400Y-81515956D01*
X126795888Y-81519821D01*
X126795889Y-81519832D01*
X126795919Y-81520070D01*
X126796834Y-81531696D01*
X126797981Y-81568196D01*
X126797982Y-81568203D01*
X126798227Y-81575989D01*
X126800400Y-81583470D01*
X126800402Y-81583480D01*
X126803922Y-81595595D01*
X126807867Y-81614642D01*
X126810426Y-81634897D01*
X126813295Y-81642145D01*
X126813298Y-81642154D01*
X126826738Y-81676101D01*
X126830521Y-81687148D01*
X126831837Y-81691677D01*
X126842882Y-81729693D01*
X126846853Y-81736408D01*
X126846854Y-81736410D01*
X126853275Y-81747268D01*
X126861830Y-81764731D01*
X126864171Y-81770643D01*
X126869348Y-81783717D01*
X126873930Y-81790024D01*
X126873931Y-81790025D01*
X126895391Y-81819562D01*
X126901805Y-81829327D01*
X126911580Y-81845856D01*
X126924358Y-81867462D01*
X126929876Y-81872980D01*
X126938789Y-81881893D01*
X126951425Y-81896688D01*
X126958838Y-81906891D01*
X126958843Y-81906896D01*
X126963428Y-81913207D01*
X126987857Y-81933416D01*
X126997567Y-81941449D01*
X127006208Y-81949312D01*
X130218951Y-85162055D01*
X130242990Y-85195934D01*
X130254490Y-85235851D01*
X130258803Y-85274130D01*
X130258804Y-85274135D01*
X130259583Y-85281047D01*
X130261881Y-85287614D01*
X130304384Y-85409083D01*
X130319757Y-85453015D01*
X130416689Y-85607281D01*
X130545519Y-85736111D01*
X130699785Y-85833043D01*
X130706356Y-85835342D01*
X130710523Y-85837349D01*
X130759823Y-85880178D01*
X130780526Y-85942116D01*
X130766889Y-86005982D01*
X130722694Y-86054062D01*
X130674382Y-86084418D01*
X130674373Y-86084425D01*
X130668480Y-86088128D01*
X130663555Y-86093052D01*
X130663551Y-86093056D01*
X130544578Y-86212029D01*
X130544574Y-86212033D01*
X130539650Y-86216958D01*
X130535945Y-86222853D01*
X130535942Y-86222858D01*
X130446420Y-86365331D01*
X130446417Y-86365336D01*
X130442718Y-86371224D01*
X130440421Y-86377786D01*
X130440419Y-86377792D01*
X130386242Y-86532623D01*
X130382544Y-86543192D01*
X130381765Y-86550100D01*
X130381764Y-86550107D01*
X130377451Y-86588386D01*
X130365951Y-86628303D01*
X130341912Y-86662181D01*
X129682793Y-87321300D01*
X129674444Y-87328898D01*
X129667982Y-87333000D01*
X129662641Y-87338686D01*
X129662639Y-87338689D01*
X129621338Y-87382669D01*
X129618633Y-87385461D01*
X129598865Y-87405230D01*
X129596481Y-87408302D01*
X129596478Y-87408306D01*
X129596322Y-87408508D01*
X129588752Y-87417370D01*
X129558414Y-87449679D01*
X129554659Y-87456507D01*
X129554658Y-87456510D01*
X129548579Y-87467567D01*
X129537903Y-87483819D01*
X129530168Y-87493791D01*
X129530160Y-87493802D01*
X129525386Y-87499959D01*
X129522291Y-87507110D01*
X129522288Y-87507116D01*
X129507786Y-87540628D01*
X129502648Y-87551115D01*
X129485065Y-87583098D01*
X129485061Y-87583106D01*
X129481305Y-87589940D01*
X129479366Y-87597491D01*
X129479363Y-87597499D01*
X129476225Y-87609722D01*
X129469926Y-87628119D01*
X129461819Y-87646855D01*
X129460599Y-87654553D01*
X129460598Y-87654559D01*
X129454888Y-87690611D01*
X129452520Y-87702045D01*
X129443438Y-87737417D01*
X129443436Y-87737426D01*
X129441500Y-87744970D01*
X129441500Y-87752766D01*
X129441500Y-87765385D01*
X129439973Y-87784783D01*
X129439524Y-87787621D01*
X129436780Y-87804943D01*
X129437514Y-87812708D01*
X129437514Y-87812711D01*
X129440950Y-87849058D01*
X129441500Y-87860727D01*
X129441500Y-89941062D01*
X129425348Y-90002257D01*
X129381100Y-90047509D01*
X129320283Y-90065031D01*
X129258742Y-90050257D01*
X129212507Y-90007035D01*
X129207220Y-89998622D01*
X129207218Y-89998619D01*
X129203511Y-89992719D01*
X129074681Y-89863889D01*
X129056697Y-89852589D01*
X128926307Y-89770659D01*
X128926305Y-89770658D01*
X128920415Y-89766957D01*
X128913849Y-89764659D01*
X128913846Y-89764658D01*
X128755021Y-89709083D01*
X128755018Y-89709082D01*
X128748447Y-89706783D01*
X128741530Y-89706003D01*
X128741523Y-89706002D01*
X128574323Y-89687164D01*
X128567400Y-89686384D01*
X128560477Y-89687164D01*
X128393276Y-89706002D01*
X128393267Y-89706003D01*
X128386353Y-89706783D01*
X128379783Y-89709081D01*
X128379778Y-89709083D01*
X128220953Y-89764658D01*
X128220947Y-89764660D01*
X128214385Y-89766957D01*
X128208497Y-89770656D01*
X128208492Y-89770659D01*
X128086211Y-89847494D01*
X128020239Y-89866500D01*
X127865561Y-89866500D01*
X127799589Y-89847494D01*
X127677307Y-89770659D01*
X127677305Y-89770658D01*
X127671415Y-89766957D01*
X127664849Y-89764659D01*
X127664846Y-89764658D01*
X127506021Y-89709083D01*
X127506018Y-89709082D01*
X127499447Y-89706783D01*
X127492530Y-89706003D01*
X127492523Y-89706002D01*
X127325323Y-89687164D01*
X127318400Y-89686384D01*
X127311477Y-89687164D01*
X127144276Y-89706002D01*
X127144267Y-89706003D01*
X127137353Y-89706783D01*
X127130783Y-89709081D01*
X127130778Y-89709083D01*
X126971953Y-89764658D01*
X126971947Y-89764660D01*
X126965385Y-89766957D01*
X126959497Y-89770656D01*
X126959492Y-89770659D01*
X126817019Y-89860181D01*
X126817014Y-89860184D01*
X126811119Y-89863889D01*
X126806194Y-89868813D01*
X126806190Y-89868817D01*
X126687217Y-89987790D01*
X126687213Y-89987794D01*
X126682289Y-89992719D01*
X126678584Y-89998614D01*
X126678581Y-89998619D01*
X126589059Y-90141092D01*
X126589056Y-90141097D01*
X126585357Y-90146985D01*
X126583060Y-90153547D01*
X126583058Y-90153553D01*
X126527483Y-90312378D01*
X126527481Y-90312383D01*
X126525183Y-90318953D01*
X126524403Y-90325867D01*
X126524402Y-90325876D01*
X126506837Y-90481777D01*
X126504784Y-90500000D01*
X126505564Y-90506923D01*
X126524402Y-90674123D01*
X126524403Y-90674130D01*
X126525183Y-90681047D01*
X126527482Y-90687618D01*
X126527483Y-90687621D01*
X126583001Y-90846284D01*
X126585357Y-90853015D01*
X126589058Y-90858905D01*
X126589059Y-90858907D01*
X126662054Y-90975077D01*
X126682289Y-91007281D01*
X126811119Y-91136111D01*
X126965385Y-91233043D01*
X127137353Y-91293217D01*
X127318400Y-91313616D01*
X127499447Y-91293217D01*
X127671415Y-91233043D01*
X127799588Y-91152506D01*
X127865561Y-91133500D01*
X128020239Y-91133500D01*
X128086211Y-91152506D01*
X128128281Y-91178940D01*
X128214385Y-91233043D01*
X128386353Y-91293217D01*
X128567400Y-91313616D01*
X128748447Y-91293217D01*
X128920415Y-91233043D01*
X129074681Y-91136111D01*
X129203511Y-91007281D01*
X129210612Y-90995981D01*
X129236518Y-90954751D01*
X129286585Y-90909551D01*
X129352905Y-90897247D01*
X129415854Y-90921479D01*
X129456805Y-90975077D01*
X129472838Y-91015574D01*
X129476621Y-91026621D01*
X129488982Y-91069166D01*
X129492953Y-91075881D01*
X129492954Y-91075883D01*
X129499375Y-91086741D01*
X129507930Y-91104204D01*
X129515448Y-91123190D01*
X129520030Y-91129497D01*
X129520031Y-91129498D01*
X129541491Y-91159035D01*
X129547905Y-91168801D01*
X129568234Y-91203176D01*
X129584722Y-91252410D01*
X129589930Y-91298631D01*
X129589931Y-91298637D01*
X129590710Y-91305547D01*
X129605073Y-91346595D01*
X129641732Y-91451362D01*
X129650884Y-91477515D01*
X129654585Y-91483405D01*
X129654586Y-91483407D01*
X129742827Y-91623841D01*
X129747816Y-91631781D01*
X129876646Y-91760611D01*
X130030912Y-91857543D01*
X130202880Y-91917717D01*
X130383927Y-91938116D01*
X130564974Y-91917717D01*
X130736942Y-91857543D01*
X130891208Y-91760611D01*
X131020038Y-91631781D01*
X131116970Y-91477515D01*
X131177144Y-91305547D01*
X131193652Y-91159035D01*
X131196763Y-91131423D01*
X131197543Y-91124500D01*
X131194234Y-91095136D01*
X131177924Y-90950376D01*
X131177144Y-90943453D01*
X131174842Y-90936873D01*
X131170147Y-90923455D01*
X131164406Y-90865166D01*
X131186058Y-90810745D01*
X131230274Y-90772333D01*
X131287188Y-90758500D01*
X134096154Y-90758500D01*
X134107437Y-90759031D01*
X134114909Y-90760702D01*
X134183017Y-90758560D01*
X134186913Y-90758500D01*
X134210958Y-90758500D01*
X134214856Y-90758500D01*
X134218724Y-90758011D01*
X134218947Y-90757983D01*
X134230608Y-90757064D01*
X134274889Y-90755673D01*
X134294490Y-90749977D01*
X134313541Y-90746032D01*
X134333797Y-90743474D01*
X134365022Y-90731110D01*
X134374993Y-90727163D01*
X134386043Y-90723379D01*
X134428593Y-90711018D01*
X134446165Y-90700625D01*
X134463632Y-90692068D01*
X134482617Y-90684552D01*
X134518475Y-90658498D01*
X134528223Y-90652096D01*
X134566362Y-90629542D01*
X134580793Y-90615110D01*
X134595588Y-90602472D01*
X134612107Y-90590472D01*
X134640360Y-90556318D01*
X134648203Y-90547699D01*
X135320996Y-89874906D01*
X135354873Y-89850870D01*
X135394790Y-89839370D01*
X135439986Y-89834278D01*
X135526119Y-89804139D01*
X147782245Y-89804139D01*
X147783025Y-89811062D01*
X147801863Y-89978262D01*
X147801864Y-89978269D01*
X147802644Y-89985186D01*
X147804943Y-89991757D01*
X147804944Y-89991760D01*
X147859259Y-90146985D01*
X147862818Y-90157154D01*
X147866519Y-90163044D01*
X147866520Y-90163046D01*
X147953252Y-90301078D01*
X147959750Y-90311420D01*
X148088580Y-90440250D01*
X148242846Y-90537182D01*
X148414814Y-90597356D01*
X148421737Y-90598136D01*
X148572403Y-90615112D01*
X148595861Y-90617755D01*
X148707749Y-90605148D01*
X148762585Y-90611326D01*
X148809312Y-90640686D01*
X148838672Y-90687413D01*
X148844851Y-90742251D01*
X148838790Y-90796046D01*
X148832245Y-90854139D01*
X148833025Y-90861062D01*
X148851863Y-91028262D01*
X148851864Y-91028269D01*
X148852644Y-91035186D01*
X148854943Y-91041757D01*
X148854944Y-91041760D01*
X148902945Y-91178940D01*
X148912818Y-91207154D01*
X148916519Y-91213044D01*
X148916520Y-91213046D01*
X148979713Y-91313616D01*
X149009750Y-91361420D01*
X149138580Y-91490250D01*
X149292846Y-91587182D01*
X149464814Y-91647356D01*
X149523932Y-91654017D01*
X149622190Y-91665088D01*
X149645861Y-91667755D01*
X149669532Y-91665088D01*
X149713056Y-91660184D01*
X149826908Y-91647356D01*
X149998876Y-91587182D01*
X150153142Y-91490250D01*
X150281972Y-91361420D01*
X150378904Y-91207154D01*
X150439078Y-91035186D01*
X150444170Y-90989990D01*
X150455670Y-90950073D01*
X150479706Y-90916196D01*
X150591096Y-90804806D01*
X150624973Y-90780770D01*
X150664890Y-90769270D01*
X150710086Y-90764178D01*
X150882054Y-90704004D01*
X151036320Y-90607072D01*
X151165150Y-90478242D01*
X151262082Y-90323976D01*
X151265700Y-90313634D01*
X151295057Y-90266906D01*
X151341784Y-90237542D01*
X151396624Y-90231361D01*
X151448715Y-90249588D01*
X151482677Y-90270927D01*
X151482679Y-90270928D01*
X151488574Y-90274632D01*
X151660542Y-90334806D01*
X151841589Y-90355205D01*
X152022636Y-90334806D01*
X152194604Y-90274632D01*
X152348870Y-90177700D01*
X152477700Y-90048870D01*
X152574632Y-89894604D01*
X152634806Y-89722636D01*
X152655205Y-89541589D01*
X152634806Y-89360542D01*
X152574632Y-89188574D01*
X152477700Y-89034308D01*
X152348870Y-88905478D01*
X152342969Y-88901770D01*
X152200496Y-88812248D01*
X152200494Y-88812247D01*
X152194604Y-88808546D01*
X152188038Y-88806248D01*
X152188035Y-88806247D01*
X152029210Y-88750672D01*
X152029207Y-88750671D01*
X152022636Y-88748372D01*
X152015719Y-88747592D01*
X152015712Y-88747591D01*
X151848512Y-88728753D01*
X151841589Y-88727973D01*
X151830326Y-88729242D01*
X151797053Y-88728495D01*
X151780331Y-88725846D01*
X151768904Y-88723479D01*
X151733549Y-88714401D01*
X151733544Y-88714400D01*
X151725991Y-88712461D01*
X151718189Y-88712461D01*
X151705576Y-88712461D01*
X151686178Y-88710934D01*
X151673727Y-88708962D01*
X151666018Y-88707741D01*
X151658252Y-88708475D01*
X151658249Y-88708475D01*
X151621903Y-88711911D01*
X151610234Y-88712461D01*
X149132887Y-88712461D01*
X149121602Y-88711929D01*
X149114131Y-88710259D01*
X149106333Y-88710504D01*
X149046009Y-88712400D01*
X149042114Y-88712461D01*
X149014183Y-88712461D01*
X149010328Y-88712947D01*
X149010294Y-88712950D01*
X149010063Y-88712980D01*
X148998444Y-88713894D01*
X148961947Y-88715041D01*
X148961939Y-88715042D01*
X148954150Y-88715287D01*
X148946664Y-88717461D01*
X148946655Y-88717463D01*
X148934535Y-88720984D01*
X148915499Y-88724926D01*
X148902980Y-88726508D01*
X148902970Y-88726510D01*
X148895242Y-88727487D01*
X148887999Y-88730354D01*
X148887989Y-88730357D01*
X148854052Y-88743793D01*
X148843010Y-88747574D01*
X148807939Y-88757764D01*
X148807932Y-88757766D01*
X148800446Y-88759942D01*
X148793736Y-88763910D01*
X148793727Y-88763914D01*
X148782863Y-88770339D01*
X148765404Y-88778892D01*
X148753676Y-88783536D01*
X148753670Y-88783538D01*
X148746422Y-88786409D01*
X148740117Y-88790989D01*
X148740109Y-88790994D01*
X148710576Y-88812450D01*
X148700821Y-88818858D01*
X148669393Y-88837446D01*
X148669387Y-88837450D01*
X148662677Y-88841419D01*
X148657164Y-88846930D01*
X148657157Y-88846937D01*
X148648236Y-88855858D01*
X148633453Y-88868484D01*
X148623245Y-88875901D01*
X148623239Y-88875905D01*
X148616932Y-88880489D01*
X148611965Y-88886491D01*
X148611954Y-88886503D01*
X148588687Y-88914628D01*
X148580826Y-88923267D01*
X148533801Y-88970291D01*
X148499923Y-88994329D01*
X148460008Y-89005829D01*
X148421728Y-89010142D01*
X148421720Y-89010143D01*
X148414814Y-89010922D01*
X148408247Y-89013219D01*
X148408246Y-89013220D01*
X148249414Y-89068797D01*
X148249408Y-89068799D01*
X148242846Y-89071096D01*
X148236958Y-89074795D01*
X148236953Y-89074798D01*
X148094480Y-89164320D01*
X148094475Y-89164323D01*
X148088580Y-89168028D01*
X148083655Y-89172952D01*
X148083651Y-89172956D01*
X147964678Y-89291929D01*
X147964674Y-89291933D01*
X147959750Y-89296858D01*
X147956045Y-89302753D01*
X147956042Y-89302758D01*
X147866520Y-89445231D01*
X147866517Y-89445236D01*
X147862818Y-89451124D01*
X147860521Y-89457686D01*
X147860519Y-89457692D01*
X147804944Y-89616517D01*
X147804942Y-89616522D01*
X147802644Y-89623092D01*
X147801864Y-89630006D01*
X147801863Y-89630015D01*
X147787290Y-89759359D01*
X147782245Y-89804139D01*
X135526119Y-89804139D01*
X135611954Y-89774104D01*
X135766220Y-89677172D01*
X135895050Y-89548342D01*
X135991982Y-89394076D01*
X136052156Y-89222108D01*
X136072555Y-89041061D01*
X136052156Y-88860014D01*
X135991982Y-88688046D01*
X135895050Y-88533780D01*
X135766220Y-88404950D01*
X135757785Y-88399650D01*
X135617846Y-88311720D01*
X135617844Y-88311719D01*
X135611954Y-88308018D01*
X135605388Y-88305720D01*
X135605385Y-88305719D01*
X135446560Y-88250144D01*
X135446557Y-88250143D01*
X135439986Y-88247844D01*
X135433069Y-88247064D01*
X135433062Y-88247063D01*
X135265862Y-88228225D01*
X135258939Y-88227445D01*
X135252016Y-88228225D01*
X135084815Y-88247063D01*
X135084806Y-88247064D01*
X135077892Y-88247844D01*
X135071322Y-88250142D01*
X135071317Y-88250144D01*
X134912492Y-88305719D01*
X134912486Y-88305721D01*
X134905924Y-88308018D01*
X134900036Y-88311717D01*
X134900031Y-88311720D01*
X134790290Y-88380675D01*
X134727100Y-88399650D01*
X134663122Y-88383529D01*
X134616470Y-88336875D01*
X134600349Y-88272898D01*
X134619325Y-88209708D01*
X134622104Y-88205286D01*
X134691982Y-88094076D01*
X134752156Y-87922108D01*
X134772555Y-87741061D01*
X134756661Y-87600000D01*
X140686384Y-87600000D01*
X140687164Y-87606923D01*
X140706002Y-87774123D01*
X140706003Y-87774130D01*
X140706783Y-87781047D01*
X140709082Y-87787618D01*
X140709083Y-87787621D01*
X140758442Y-87928682D01*
X140766957Y-87953015D01*
X140770658Y-87958905D01*
X140770659Y-87958907D01*
X140855592Y-88094076D01*
X140863889Y-88107281D01*
X140992719Y-88236111D01*
X141146985Y-88333043D01*
X141318953Y-88393217D01*
X141500000Y-88413616D01*
X141681047Y-88393217D01*
X141853015Y-88333043D01*
X142007281Y-88236111D01*
X142136111Y-88107281D01*
X142233043Y-87953015D01*
X142293217Y-87781047D01*
X142313616Y-87600000D01*
X142293217Y-87418953D01*
X142233043Y-87246985D01*
X142180697Y-87163677D01*
X142152506Y-87118811D01*
X142133500Y-87052839D01*
X142133500Y-86747161D01*
X142152506Y-86681189D01*
X142183727Y-86631501D01*
X142233043Y-86553015D01*
X142293217Y-86381047D01*
X142313616Y-86200000D01*
X142293217Y-86018953D01*
X142233043Y-85846985D01*
X142136111Y-85692719D01*
X142007281Y-85563889D01*
X141853015Y-85466957D01*
X141846449Y-85464659D01*
X141846446Y-85464658D01*
X141687621Y-85409083D01*
X141687618Y-85409082D01*
X141681047Y-85406783D01*
X141674130Y-85406003D01*
X141674123Y-85406002D01*
X141506923Y-85387164D01*
X141500000Y-85386384D01*
X141493077Y-85387164D01*
X141325876Y-85406002D01*
X141325867Y-85406003D01*
X141318953Y-85406783D01*
X141312383Y-85409081D01*
X141312378Y-85409083D01*
X141153553Y-85464658D01*
X141153547Y-85464660D01*
X141146985Y-85466957D01*
X141141097Y-85470656D01*
X141141092Y-85470659D01*
X140998619Y-85560181D01*
X140998614Y-85560184D01*
X140992719Y-85563889D01*
X140987794Y-85568813D01*
X140987790Y-85568817D01*
X140868817Y-85687790D01*
X140868813Y-85687794D01*
X140863889Y-85692719D01*
X140860184Y-85698614D01*
X140860181Y-85698619D01*
X140770659Y-85841092D01*
X140770656Y-85841097D01*
X140766957Y-85846985D01*
X140764660Y-85853547D01*
X140764658Y-85853553D01*
X140709083Y-86012378D01*
X140709081Y-86012383D01*
X140706783Y-86018953D01*
X140706003Y-86025867D01*
X140706002Y-86025876D01*
X140689462Y-86172685D01*
X140686384Y-86200000D01*
X140687164Y-86206923D01*
X140706002Y-86374123D01*
X140706003Y-86374130D01*
X140706783Y-86381047D01*
X140709082Y-86387618D01*
X140709083Y-86387621D01*
X140763519Y-86543192D01*
X140766957Y-86553015D01*
X140770658Y-86558905D01*
X140770659Y-86558907D01*
X140847494Y-86681189D01*
X140866500Y-86747161D01*
X140866500Y-87052839D01*
X140847494Y-87118811D01*
X140770659Y-87241092D01*
X140770656Y-87241097D01*
X140766957Y-87246985D01*
X140764660Y-87253547D01*
X140764658Y-87253553D01*
X140709083Y-87412378D01*
X140709081Y-87412383D01*
X140706783Y-87418953D01*
X140706003Y-87425867D01*
X140706002Y-87425876D01*
X140691966Y-87550458D01*
X140686384Y-87600000D01*
X134756661Y-87600000D01*
X134752156Y-87560014D01*
X134691982Y-87388046D01*
X134595050Y-87233780D01*
X134466220Y-87104950D01*
X134460319Y-87101242D01*
X134317846Y-87011720D01*
X134317844Y-87011719D01*
X134311954Y-87008018D01*
X134305388Y-87005720D01*
X134305385Y-87005719D01*
X134146560Y-86950144D01*
X134146557Y-86950143D01*
X134139986Y-86947844D01*
X134133069Y-86947064D01*
X134133062Y-86947063D01*
X133965862Y-86928225D01*
X133958939Y-86927445D01*
X133952016Y-86928225D01*
X133784815Y-86947063D01*
X133784806Y-86947064D01*
X133777892Y-86947844D01*
X133771322Y-86950142D01*
X133771317Y-86950144D01*
X133612492Y-87005719D01*
X133612486Y-87005721D01*
X133605924Y-87008018D01*
X133600036Y-87011717D01*
X133600031Y-87011720D01*
X133457558Y-87101242D01*
X133457553Y-87101245D01*
X133451658Y-87104950D01*
X133446733Y-87109874D01*
X133446729Y-87109878D01*
X133423181Y-87133427D01*
X133373818Y-87163677D01*
X133316102Y-87168219D01*
X133262615Y-87146064D01*
X133225015Y-87102041D01*
X133211500Y-87045746D01*
X133211500Y-82390048D01*
X133212031Y-82378763D01*
X133213702Y-82371292D01*
X133211560Y-82303169D01*
X133211500Y-82299275D01*
X133211500Y-82275244D01*
X133211500Y-82271344D01*
X133210983Y-82267258D01*
X133210065Y-82255599D01*
X133208674Y-82211311D01*
X133206496Y-82203816D01*
X133205277Y-82196115D01*
X133206155Y-82195975D01*
X133202818Y-82156939D01*
X133206316Y-82125900D01*
X133185917Y-81944853D01*
X133125743Y-81772885D01*
X133028811Y-81618619D01*
X132899981Y-81489789D01*
X132886197Y-81481128D01*
X132751607Y-81396559D01*
X132751605Y-81396558D01*
X132745715Y-81392857D01*
X132739149Y-81390559D01*
X132739146Y-81390558D01*
X132580321Y-81334983D01*
X132580318Y-81334982D01*
X132573747Y-81332683D01*
X132566830Y-81331903D01*
X132566823Y-81331902D01*
X132399623Y-81313064D01*
X132392700Y-81312284D01*
X132385777Y-81313064D01*
X132218576Y-81331902D01*
X132218567Y-81331903D01*
X132211653Y-81332683D01*
X132205083Y-81334981D01*
X132205078Y-81334983D01*
X132046253Y-81390558D01*
X132046247Y-81390560D01*
X132039685Y-81392857D01*
X132033797Y-81396556D01*
X132033792Y-81396559D01*
X131893555Y-81484676D01*
X131836849Y-81503335D01*
X131777996Y-81493336D01*
X131730636Y-81456995D01*
X131705745Y-81402735D01*
X131709092Y-81343132D01*
X131739900Y-81292003D01*
X132660817Y-80371086D01*
X132669152Y-80363502D01*
X132675618Y-80359400D01*
X132722291Y-80309695D01*
X132724909Y-80306994D01*
X132744735Y-80287170D01*
X132747260Y-80283913D01*
X132754851Y-80275024D01*
X132785186Y-80242721D01*
X132795023Y-80224825D01*
X132805696Y-80208577D01*
X132818214Y-80192441D01*
X132835815Y-80151764D01*
X132840950Y-80141284D01*
X132858535Y-80109299D01*
X132858534Y-80109299D01*
X132862295Y-80102460D01*
X132867374Y-80082673D01*
X132873670Y-80064285D01*
X132881781Y-80045545D01*
X132888712Y-80001776D01*
X132891082Y-79990339D01*
X132902100Y-79947430D01*
X132902100Y-79927015D01*
X132903627Y-79907617D01*
X132903819Y-79906403D01*
X132906820Y-79887457D01*
X132902650Y-79843342D01*
X132902100Y-79831673D01*
X132902100Y-78572161D01*
X132921106Y-78506189D01*
X132982495Y-78408488D01*
X133001643Y-78378015D01*
X133061817Y-78206047D01*
X133082216Y-78025000D01*
X133061817Y-77843953D01*
X133001643Y-77671985D01*
X132904711Y-77517719D01*
X132787492Y-77400500D01*
X134986384Y-77400500D01*
X134987164Y-77407423D01*
X135006002Y-77574623D01*
X135006003Y-77574630D01*
X135006783Y-77581547D01*
X135009082Y-77588118D01*
X135009083Y-77588121D01*
X135055747Y-77721481D01*
X135066957Y-77753515D01*
X135070658Y-77759405D01*
X135070659Y-77759407D01*
X135160181Y-77901880D01*
X135163889Y-77907781D01*
X135292719Y-78036611D01*
X135298619Y-78040318D01*
X135408472Y-78109344D01*
X135451028Y-78154357D01*
X135466500Y-78214338D01*
X135466500Y-80052339D01*
X135447494Y-80118311D01*
X135370659Y-80240592D01*
X135370656Y-80240597D01*
X135366957Y-80246485D01*
X135364660Y-80253047D01*
X135364658Y-80253053D01*
X135309083Y-80411878D01*
X135309081Y-80411883D01*
X135306783Y-80418453D01*
X135306003Y-80425367D01*
X135306002Y-80425376D01*
X135295362Y-80519816D01*
X135286384Y-80599500D01*
X135287164Y-80606423D01*
X135306002Y-80773623D01*
X135306003Y-80773630D01*
X135306783Y-80780547D01*
X135309082Y-80787118D01*
X135309083Y-80787121D01*
X135335676Y-80863121D01*
X135366957Y-80952515D01*
X135370658Y-80958405D01*
X135370659Y-80958407D01*
X135418413Y-81034407D01*
X135463889Y-81106781D01*
X135592719Y-81235611D01*
X135746985Y-81332543D01*
X135918953Y-81392717D01*
X135925876Y-81393497D01*
X136079808Y-81410841D01*
X136100000Y-81413116D01*
X136281047Y-81392717D01*
X136453015Y-81332543D01*
X136465815Y-81324500D01*
X139811684Y-81324500D01*
X139812464Y-81331423D01*
X139831302Y-81498623D01*
X139831303Y-81498630D01*
X139832083Y-81505547D01*
X139834382Y-81512117D01*
X139834383Y-81512121D01*
X139880020Y-81642545D01*
X139892257Y-81677515D01*
X139895958Y-81683405D01*
X139895959Y-81683407D01*
X139985481Y-81825880D01*
X139989189Y-81831781D01*
X140118019Y-81960611D01*
X140272285Y-82057543D01*
X140444253Y-82117717D01*
X140534776Y-82127916D01*
X140578287Y-82132819D01*
X140625300Y-82138116D01*
X140806347Y-82117717D01*
X140978315Y-82057543D01*
X141069894Y-82000000D01*
X154064184Y-82000000D01*
X154064964Y-82006923D01*
X154083802Y-82174123D01*
X154083803Y-82174130D01*
X154084583Y-82181047D01*
X154086882Y-82187618D01*
X154086883Y-82187621D01*
X154141600Y-82343995D01*
X154144757Y-82353015D01*
X154148458Y-82358905D01*
X154148459Y-82358907D01*
X154227569Y-82484810D01*
X154241689Y-82507281D01*
X154370519Y-82636111D01*
X154524785Y-82733043D01*
X154696753Y-82793217D01*
X154877800Y-82813616D01*
X155058847Y-82793217D01*
X155230815Y-82733043D01*
X155358988Y-82652506D01*
X155424961Y-82633500D01*
X155579639Y-82633500D01*
X155645611Y-82652506D01*
X155685413Y-82677515D01*
X155773785Y-82733043D01*
X155945753Y-82793217D01*
X156126800Y-82813616D01*
X156307847Y-82793217D01*
X156479815Y-82733043D01*
X156634081Y-82636111D01*
X156762911Y-82507281D01*
X156859843Y-82353015D01*
X156920017Y-82181047D01*
X156940416Y-82000000D01*
X156934982Y-81951776D01*
X156920797Y-81825876D01*
X156920017Y-81818953D01*
X156859843Y-81646985D01*
X156762911Y-81492719D01*
X156634081Y-81363889D01*
X156624502Y-81357870D01*
X156485707Y-81270659D01*
X156485705Y-81270658D01*
X156479815Y-81266957D01*
X156473249Y-81264659D01*
X156473246Y-81264658D01*
X156314421Y-81209083D01*
X156314418Y-81209082D01*
X156307847Y-81206783D01*
X156300930Y-81206003D01*
X156300923Y-81206002D01*
X156133723Y-81187164D01*
X156126800Y-81186384D01*
X156119877Y-81187164D01*
X155952676Y-81206002D01*
X155952667Y-81206003D01*
X155945753Y-81206783D01*
X155939183Y-81209081D01*
X155939178Y-81209083D01*
X155780353Y-81264658D01*
X155780347Y-81264660D01*
X155773785Y-81266957D01*
X155767897Y-81270656D01*
X155767892Y-81270659D01*
X155645611Y-81347494D01*
X155579639Y-81366500D01*
X155424961Y-81366500D01*
X155358989Y-81347494D01*
X155236707Y-81270659D01*
X155236705Y-81270658D01*
X155230815Y-81266957D01*
X155224249Y-81264659D01*
X155224246Y-81264658D01*
X155065421Y-81209083D01*
X155065418Y-81209082D01*
X155058847Y-81206783D01*
X155051930Y-81206003D01*
X155051923Y-81206002D01*
X154884723Y-81187164D01*
X154877800Y-81186384D01*
X154870877Y-81187164D01*
X154703676Y-81206002D01*
X154703667Y-81206003D01*
X154696753Y-81206783D01*
X154690183Y-81209081D01*
X154690178Y-81209083D01*
X154531353Y-81264658D01*
X154531347Y-81264660D01*
X154524785Y-81266957D01*
X154518897Y-81270656D01*
X154518892Y-81270659D01*
X154376419Y-81360181D01*
X154376414Y-81360184D01*
X154370519Y-81363889D01*
X154365594Y-81368813D01*
X154365590Y-81368817D01*
X154246617Y-81487790D01*
X154246613Y-81487794D01*
X154241689Y-81492719D01*
X154237984Y-81498614D01*
X154237981Y-81498619D01*
X154148459Y-81641092D01*
X154148456Y-81641097D01*
X154144757Y-81646985D01*
X154142460Y-81653547D01*
X154142458Y-81653553D01*
X154086883Y-81812378D01*
X154086881Y-81812383D01*
X154084583Y-81818953D01*
X154083803Y-81825867D01*
X154083802Y-81825876D01*
X154067505Y-81970524D01*
X154064184Y-82000000D01*
X141069894Y-82000000D01*
X141132581Y-81960611D01*
X141261411Y-81831781D01*
X141358343Y-81677515D01*
X141418517Y-81505547D01*
X141418773Y-81503271D01*
X141451068Y-81444834D01*
X141695413Y-81200490D01*
X141742137Y-81171132D01*
X141854104Y-81131954D01*
X141980333Y-81052639D01*
X142533745Y-81052639D01*
X142534525Y-81059562D01*
X142553363Y-81226762D01*
X142553364Y-81226769D01*
X142554144Y-81233686D01*
X142556443Y-81240257D01*
X142556444Y-81240260D01*
X142611378Y-81397254D01*
X142614318Y-81405654D01*
X142618019Y-81411544D01*
X142618020Y-81411546D01*
X142697476Y-81537999D01*
X142711250Y-81559920D01*
X142840080Y-81688750D01*
X142994346Y-81785682D01*
X143166314Y-81845856D01*
X143347361Y-81866255D01*
X143528408Y-81845856D01*
X143700376Y-81785682D01*
X143854642Y-81688750D01*
X143983472Y-81559920D01*
X144080404Y-81405654D01*
X144140578Y-81233686D01*
X144160977Y-81052639D01*
X144140578Y-80871592D01*
X144080404Y-80699624D01*
X144046528Y-80645712D01*
X143999867Y-80571450D01*
X143980861Y-80505478D01*
X143980861Y-80372729D01*
X143996333Y-80312748D01*
X144038889Y-80267735D01*
X144082086Y-80240592D01*
X144137820Y-80205572D01*
X144266650Y-80076742D01*
X144363582Y-79922476D01*
X144423756Y-79750508D01*
X144441150Y-79596127D01*
X144443375Y-79576384D01*
X144444155Y-79569461D01*
X144423756Y-79388414D01*
X144363582Y-79216446D01*
X144266650Y-79062180D01*
X144137820Y-78933350D01*
X144070287Y-78890916D01*
X143989446Y-78840120D01*
X143989444Y-78840119D01*
X143983554Y-78836418D01*
X143976988Y-78834120D01*
X143976985Y-78834119D01*
X143818160Y-78778544D01*
X143818157Y-78778543D01*
X143811586Y-78776244D01*
X143804669Y-78775464D01*
X143804662Y-78775463D01*
X143637462Y-78756625D01*
X143630539Y-78755845D01*
X143623616Y-78756625D01*
X143456415Y-78775463D01*
X143456406Y-78775464D01*
X143449492Y-78776244D01*
X143442922Y-78778542D01*
X143442917Y-78778544D01*
X143284092Y-78834119D01*
X143284086Y-78834121D01*
X143277524Y-78836418D01*
X143271636Y-78840117D01*
X143271631Y-78840120D01*
X143129158Y-78929642D01*
X143129153Y-78929645D01*
X143123258Y-78933350D01*
X143118333Y-78938274D01*
X143118329Y-78938278D01*
X142999356Y-79057251D01*
X142999352Y-79057255D01*
X142994428Y-79062180D01*
X142990723Y-79068075D01*
X142990720Y-79068080D01*
X142901198Y-79210553D01*
X142901195Y-79210558D01*
X142897496Y-79216446D01*
X142895199Y-79223008D01*
X142895197Y-79223014D01*
X142839622Y-79381839D01*
X142839620Y-79381844D01*
X142837322Y-79388414D01*
X142836542Y-79395328D01*
X142836541Y-79395337D01*
X142829598Y-79456958D01*
X142806201Y-79514542D01*
X142806499Y-79514718D01*
X142805321Y-79516709D01*
X142804365Y-79519063D01*
X142802530Y-79521428D01*
X142802521Y-79521442D01*
X142797747Y-79527598D01*
X142794652Y-79534749D01*
X142794649Y-79534755D01*
X142780147Y-79568267D01*
X142775009Y-79578754D01*
X142757426Y-79610737D01*
X142757422Y-79610745D01*
X142753666Y-79617579D01*
X142751727Y-79625130D01*
X142751724Y-79625138D01*
X142748586Y-79637361D01*
X142742287Y-79655758D01*
X142734180Y-79674494D01*
X142732960Y-79682192D01*
X142732959Y-79682198D01*
X142727249Y-79718250D01*
X142724881Y-79729684D01*
X142715799Y-79765056D01*
X142715797Y-79765065D01*
X142713861Y-79772609D01*
X142713861Y-79780405D01*
X142713861Y-79793024D01*
X142712333Y-79812422D01*
X142709141Y-79832582D01*
X142709875Y-79840347D01*
X142709875Y-79840350D01*
X142713311Y-79876697D01*
X142713861Y-79888366D01*
X142713861Y-80505478D01*
X142694855Y-80571450D01*
X142618020Y-80693731D01*
X142618017Y-80693736D01*
X142614318Y-80699624D01*
X142612021Y-80706186D01*
X142612019Y-80706192D01*
X142556444Y-80865017D01*
X142556442Y-80865022D01*
X142554144Y-80871592D01*
X142553364Y-80878506D01*
X142553363Y-80878515D01*
X142539886Y-80998132D01*
X142533745Y-81052639D01*
X141980333Y-81052639D01*
X142008370Y-81035022D01*
X142137200Y-80906192D01*
X142234132Y-80751926D01*
X142294306Y-80579958D01*
X142312817Y-80415671D01*
X142313925Y-80405834D01*
X142314705Y-80398911D01*
X142294306Y-80217864D01*
X142234132Y-80045896D01*
X142137200Y-79891630D01*
X142008370Y-79762800D01*
X141990017Y-79751268D01*
X141859996Y-79669570D01*
X141859994Y-79669569D01*
X141854104Y-79665868D01*
X141847538Y-79663570D01*
X141847535Y-79663569D01*
X141688710Y-79607994D01*
X141688707Y-79607993D01*
X141682136Y-79605694D01*
X141675219Y-79604914D01*
X141675212Y-79604913D01*
X141508012Y-79586075D01*
X141501089Y-79585295D01*
X141494166Y-79586075D01*
X141326965Y-79604913D01*
X141326956Y-79604914D01*
X141320042Y-79605694D01*
X141313472Y-79607992D01*
X141313467Y-79607994D01*
X141154642Y-79663569D01*
X141154636Y-79663571D01*
X141148074Y-79665868D01*
X141142186Y-79669567D01*
X141142181Y-79669570D01*
X140999708Y-79759092D01*
X140999703Y-79759095D01*
X140993808Y-79762800D01*
X140988883Y-79767724D01*
X140988879Y-79767728D01*
X140869906Y-79886701D01*
X140869902Y-79886705D01*
X140864978Y-79891630D01*
X140861273Y-79897525D01*
X140861270Y-79897530D01*
X140771748Y-80040003D01*
X140771745Y-80040008D01*
X140768046Y-80045896D01*
X140765749Y-80052458D01*
X140765747Y-80052464D01*
X140710172Y-80211289D01*
X140710170Y-80211294D01*
X140707872Y-80217864D01*
X140707092Y-80224778D01*
X140707091Y-80224787D01*
X140690082Y-80375753D01*
X140678582Y-80415671D01*
X140654543Y-80449550D01*
X140619816Y-80484277D01*
X140585937Y-80508316D01*
X140546019Y-80519816D01*
X140451177Y-80530502D01*
X140451169Y-80530503D01*
X140444253Y-80531283D01*
X140437683Y-80533581D01*
X140437678Y-80533583D01*
X140278853Y-80589158D01*
X140278847Y-80589160D01*
X140272285Y-80591457D01*
X140266397Y-80595156D01*
X140266392Y-80595159D01*
X140123919Y-80684681D01*
X140123914Y-80684684D01*
X140118019Y-80688389D01*
X140113094Y-80693313D01*
X140113090Y-80693317D01*
X139994117Y-80812290D01*
X139994113Y-80812294D01*
X139989189Y-80817219D01*
X139985484Y-80823114D01*
X139985481Y-80823119D01*
X139895959Y-80965592D01*
X139895956Y-80965597D01*
X139892257Y-80971485D01*
X139889960Y-80978047D01*
X139889958Y-80978053D01*
X139834383Y-81136878D01*
X139834381Y-81136883D01*
X139832083Y-81143453D01*
X139831303Y-81150367D01*
X139831302Y-81150376D01*
X139812719Y-81315318D01*
X139811684Y-81324500D01*
X136465815Y-81324500D01*
X136607281Y-81235611D01*
X136736111Y-81106781D01*
X136833043Y-80952515D01*
X136893217Y-80780547D01*
X136913616Y-80599500D01*
X136893217Y-80418453D01*
X136833043Y-80246485D01*
X136764629Y-80137605D01*
X136752506Y-80118311D01*
X136733500Y-80052339D01*
X136733500Y-77779346D01*
X136734031Y-77768062D01*
X136735702Y-77760591D01*
X136733560Y-77692482D01*
X136733500Y-77688587D01*
X136733500Y-77664542D01*
X136733500Y-77660644D01*
X136732981Y-77656541D01*
X136732064Y-77644889D01*
X136731680Y-77632677D01*
X136730673Y-77600611D01*
X136724979Y-77581012D01*
X136721032Y-77561955D01*
X136720909Y-77560981D01*
X136718474Y-77541703D01*
X136702159Y-77500498D01*
X136698379Y-77489455D01*
X136688194Y-77454396D01*
X136688193Y-77454393D01*
X136686018Y-77446907D01*
X136675619Y-77429324D01*
X136667070Y-77411871D01*
X136659552Y-77392883D01*
X136633503Y-77357030D01*
X136627099Y-77347281D01*
X136616549Y-77329442D01*
X136600062Y-77280211D01*
X136593217Y-77219453D01*
X136533043Y-77047485D01*
X136436111Y-76893219D01*
X136307281Y-76764389D01*
X136301380Y-76760681D01*
X136158907Y-76671159D01*
X136158905Y-76671158D01*
X136153015Y-76667457D01*
X136146449Y-76665159D01*
X136146446Y-76665158D01*
X135987621Y-76609583D01*
X135987618Y-76609582D01*
X135981047Y-76607283D01*
X135974130Y-76606503D01*
X135974123Y-76606502D01*
X135806923Y-76587664D01*
X135800000Y-76586884D01*
X135793077Y-76587664D01*
X135625876Y-76606502D01*
X135625867Y-76606503D01*
X135618953Y-76607283D01*
X135612383Y-76609581D01*
X135612378Y-76609583D01*
X135453553Y-76665158D01*
X135453547Y-76665160D01*
X135446985Y-76667457D01*
X135441097Y-76671156D01*
X135441092Y-76671159D01*
X135298619Y-76760681D01*
X135298614Y-76760684D01*
X135292719Y-76764389D01*
X135287794Y-76769313D01*
X135287790Y-76769317D01*
X135168817Y-76888290D01*
X135168813Y-76888294D01*
X135163889Y-76893219D01*
X135160184Y-76899114D01*
X135160181Y-76899119D01*
X135070659Y-77041592D01*
X135070656Y-77041597D01*
X135066957Y-77047485D01*
X135064660Y-77054047D01*
X135064658Y-77054053D01*
X135009083Y-77212878D01*
X135009083Y-77212880D01*
X135006783Y-77219453D01*
X135006003Y-77226367D01*
X135006002Y-77226376D01*
X134994390Y-77329442D01*
X134986384Y-77400500D01*
X132787492Y-77400500D01*
X132775881Y-77388889D01*
X132769980Y-77385181D01*
X132627507Y-77295659D01*
X132627505Y-77295658D01*
X132621615Y-77291957D01*
X132615049Y-77289659D01*
X132615046Y-77289658D01*
X132456221Y-77234083D01*
X132456218Y-77234082D01*
X132449647Y-77231783D01*
X132442730Y-77231003D01*
X132442723Y-77231002D01*
X132275523Y-77212164D01*
X132268600Y-77211384D01*
X132261677Y-77212164D01*
X132094476Y-77231002D01*
X132094467Y-77231003D01*
X132087553Y-77231783D01*
X132080983Y-77234081D01*
X132080978Y-77234083D01*
X131922153Y-77289658D01*
X131922147Y-77289660D01*
X131915585Y-77291957D01*
X131909697Y-77295656D01*
X131909692Y-77295659D01*
X131767219Y-77385181D01*
X131767214Y-77385184D01*
X131761319Y-77388889D01*
X131756394Y-77393813D01*
X131756390Y-77393817D01*
X131645181Y-77505027D01*
X131595818Y-77535277D01*
X131538102Y-77539819D01*
X131484615Y-77517664D01*
X131447015Y-77473641D01*
X131433500Y-77417346D01*
X131433500Y-77297661D01*
X131452506Y-77231689D01*
X131513556Y-77134528D01*
X131533043Y-77103515D01*
X131593217Y-76931547D01*
X131613616Y-76750500D01*
X131593217Y-76569453D01*
X131533043Y-76397485D01*
X131436111Y-76243219D01*
X131307281Y-76114389D01*
X131268718Y-76090158D01*
X131158907Y-76021159D01*
X131158905Y-76021158D01*
X131153015Y-76017457D01*
X131146449Y-76015159D01*
X131146446Y-76015158D01*
X130987621Y-75959583D01*
X130987618Y-75959582D01*
X130981047Y-75957283D01*
X130974130Y-75956503D01*
X130974123Y-75956502D01*
X130806923Y-75937664D01*
X130800000Y-75936884D01*
X130793077Y-75937664D01*
X130625876Y-75956502D01*
X130625867Y-75956503D01*
X130618953Y-75957283D01*
X130612383Y-75959581D01*
X130612378Y-75959583D01*
X130453553Y-76015158D01*
X130453547Y-76015160D01*
X130446985Y-76017457D01*
X130441097Y-76021156D01*
X130441092Y-76021159D01*
X130298619Y-76110681D01*
X130298614Y-76110684D01*
X130292719Y-76114389D01*
X130287794Y-76119313D01*
X130287790Y-76119317D01*
X130168817Y-76238290D01*
X130168813Y-76238294D01*
X130163889Y-76243219D01*
X130160184Y-76249114D01*
X130160181Y-76249119D01*
X130070659Y-76391592D01*
X130070656Y-76391597D01*
X130066957Y-76397485D01*
X130064660Y-76404047D01*
X130064658Y-76404053D01*
X130009083Y-76562878D01*
X130009081Y-76562883D01*
X130006783Y-76569453D01*
X130006003Y-76576367D01*
X130006002Y-76576376D01*
X129987164Y-76743577D01*
X129986384Y-76750500D01*
X129987164Y-76757423D01*
X130006002Y-76924623D01*
X130006003Y-76924630D01*
X130006783Y-76931547D01*
X130009082Y-76938118D01*
X130009083Y-76938121D01*
X130064137Y-77095458D01*
X130066957Y-77103515D01*
X130070658Y-77109405D01*
X130070659Y-77109407D01*
X130147494Y-77231689D01*
X130166500Y-77297661D01*
X130166500Y-78238746D01*
X130157061Y-78286199D01*
X130130181Y-78326427D01*
X130068817Y-78387790D01*
X130068813Y-78387794D01*
X130063889Y-78392719D01*
X130060184Y-78398614D01*
X130060181Y-78398619D01*
X129970659Y-78541092D01*
X129970656Y-78541097D01*
X129966957Y-78546985D01*
X129964660Y-78553547D01*
X129964658Y-78553553D01*
X129909083Y-78712378D01*
X129909081Y-78712383D01*
X129906783Y-78718953D01*
X129906003Y-78725867D01*
X129906002Y-78725876D01*
X129887164Y-78893077D01*
X129886384Y-78900000D01*
X129887164Y-78906923D01*
X129906002Y-79074123D01*
X129906003Y-79074130D01*
X129906783Y-79081047D01*
X129909082Y-79087618D01*
X129909083Y-79087621D01*
X129961663Y-79237888D01*
X129966957Y-79253015D01*
X129970658Y-79258905D01*
X129970659Y-79258907D01*
X130035347Y-79361857D01*
X130063889Y-79407281D01*
X130192719Y-79536111D01*
X130346985Y-79633043D01*
X130518953Y-79693217D01*
X130700000Y-79713616D01*
X130881047Y-79693217D01*
X131053015Y-79633043D01*
X131207281Y-79536111D01*
X131336111Y-79407281D01*
X131406105Y-79295885D01*
X131452340Y-79252663D01*
X131513882Y-79237888D01*
X131574700Y-79255409D01*
X131618948Y-79300662D01*
X131635100Y-79361857D01*
X131635100Y-79553634D01*
X131625661Y-79601087D01*
X131598781Y-79641315D01*
X129978293Y-81261800D01*
X129969944Y-81269398D01*
X129963482Y-81273500D01*
X129958141Y-81279186D01*
X129958139Y-81279189D01*
X129916838Y-81323169D01*
X129914133Y-81325961D01*
X129894365Y-81345730D01*
X129891981Y-81348802D01*
X129891978Y-81348806D01*
X129891822Y-81349008D01*
X129884252Y-81357870D01*
X129876149Y-81366500D01*
X129853914Y-81390179D01*
X129850159Y-81397007D01*
X129850158Y-81397010D01*
X129844079Y-81408067D01*
X129833403Y-81424319D01*
X129825668Y-81434291D01*
X129825660Y-81434302D01*
X129820886Y-81440459D01*
X129817791Y-81447610D01*
X129817788Y-81447616D01*
X129803286Y-81481128D01*
X129798148Y-81491615D01*
X129780565Y-81523598D01*
X129780561Y-81523606D01*
X129776805Y-81530440D01*
X129774866Y-81537991D01*
X129774863Y-81537999D01*
X129771725Y-81550222D01*
X129765426Y-81568619D01*
X129757319Y-81587355D01*
X129756099Y-81595053D01*
X129756098Y-81595059D01*
X129750388Y-81631111D01*
X129748020Y-81642545D01*
X129738938Y-81677917D01*
X129738936Y-81677926D01*
X129737000Y-81685470D01*
X129737000Y-81693266D01*
X129737000Y-81705885D01*
X129735473Y-81725283D01*
X129734775Y-81729693D01*
X129732280Y-81745443D01*
X129733014Y-81753208D01*
X129733014Y-81753211D01*
X129736450Y-81789558D01*
X129737000Y-81801227D01*
X129737000Y-82588934D01*
X129723485Y-82645229D01*
X129685885Y-82689252D01*
X129632398Y-82711407D01*
X129574682Y-82706865D01*
X129525319Y-82676615D01*
X128898790Y-82050086D01*
X128098719Y-81250014D01*
X128071839Y-81209786D01*
X128062400Y-81162333D01*
X128062400Y-70946014D01*
X128076411Y-70888757D01*
X128115276Y-70844439D01*
X128216558Y-70773520D01*
X128240938Y-70756449D01*
X128396649Y-70600738D01*
X128522956Y-70420354D01*
X128586518Y-70284042D01*
X128632275Y-70231867D01*
X128698900Y-70212447D01*
X128765525Y-70231867D01*
X128811281Y-70284042D01*
X128874844Y-70420354D01*
X128877951Y-70424791D01*
X128998045Y-70596303D01*
X128998048Y-70596307D01*
X129001151Y-70600738D01*
X129156862Y-70756449D01*
X129161294Y-70759552D01*
X129161296Y-70759554D01*
X129223370Y-70803018D01*
X129337246Y-70882756D01*
X129342161Y-70885048D01*
X129346838Y-70887748D01*
X129345880Y-70889406D01*
X129384057Y-70920023D01*
X129407816Y-70973980D01*
X129403971Y-71032811D01*
X129373391Y-71083217D01*
X129368815Y-71087792D01*
X129368811Y-71087796D01*
X129363889Y-71092719D01*
X129360184Y-71098614D01*
X129360181Y-71098619D01*
X129270659Y-71241092D01*
X129270656Y-71241097D01*
X129266957Y-71246985D01*
X129264660Y-71253547D01*
X129264658Y-71253553D01*
X129209083Y-71412378D01*
X129209081Y-71412383D01*
X129206783Y-71418953D01*
X129206003Y-71425867D01*
X129206002Y-71425876D01*
X129189406Y-71573181D01*
X129186384Y-71600000D01*
X129187164Y-71606923D01*
X129206002Y-71774123D01*
X129206003Y-71774130D01*
X129206783Y-71781047D01*
X129209082Y-71787618D01*
X129209083Y-71787621D01*
X129236702Y-71866553D01*
X129266957Y-71953015D01*
X129270658Y-71958905D01*
X129270659Y-71958907D01*
X129347494Y-72081189D01*
X129366500Y-72147161D01*
X129366500Y-72452839D01*
X129347494Y-72518811D01*
X129270659Y-72641092D01*
X129270656Y-72641097D01*
X129266957Y-72646985D01*
X129264660Y-72653547D01*
X129264658Y-72653553D01*
X129209083Y-72812378D01*
X129209081Y-72812383D01*
X129206783Y-72818953D01*
X129206003Y-72825867D01*
X129206002Y-72825876D01*
X129203047Y-72852108D01*
X129186384Y-73000000D01*
X129187164Y-73006923D01*
X129206002Y-73174123D01*
X129206003Y-73174130D01*
X129206783Y-73181047D01*
X129209082Y-73187618D01*
X129209083Y-73187621D01*
X129260483Y-73334515D01*
X129266957Y-73353015D01*
X129270658Y-73358905D01*
X129270659Y-73358907D01*
X129351751Y-73487963D01*
X129363889Y-73507281D01*
X129492719Y-73636111D01*
X129646985Y-73733043D01*
X129818953Y-73793217D01*
X130000000Y-73813616D01*
X130181047Y-73793217D01*
X130353015Y-73733043D01*
X130507281Y-73636111D01*
X130636111Y-73507281D01*
X130733043Y-73353015D01*
X130793217Y-73181047D01*
X130813616Y-73000000D01*
X130793217Y-72818953D01*
X130733043Y-72646985D01*
X130682166Y-72566015D01*
X130652506Y-72518811D01*
X130633500Y-72452839D01*
X130633500Y-72147161D01*
X130652506Y-72081189D01*
X130687574Y-72025378D01*
X130733043Y-71953015D01*
X130793217Y-71781047D01*
X130813616Y-71600000D01*
X130793217Y-71418953D01*
X130733043Y-71246985D01*
X130636111Y-71092719D01*
X130602469Y-71059077D01*
X130573628Y-71013806D01*
X130566622Y-70960589D01*
X130582763Y-70909396D01*
X130619027Y-70869821D01*
X130776498Y-70759558D01*
X130776498Y-70759557D01*
X130780938Y-70756449D01*
X130936649Y-70600738D01*
X131062956Y-70420354D01*
X131134820Y-70266239D01*
X147620145Y-70266239D01*
X147620925Y-70273162D01*
X147639763Y-70440362D01*
X147639764Y-70440369D01*
X147640544Y-70447286D01*
X147642843Y-70453857D01*
X147642844Y-70453860D01*
X147695579Y-70604569D01*
X147700718Y-70619254D01*
X147704419Y-70625144D01*
X147704420Y-70625146D01*
X147788877Y-70759558D01*
X147797650Y-70773520D01*
X147926480Y-70902350D01*
X148080746Y-70999282D01*
X148252714Y-71059456D01*
X148433761Y-71079855D01*
X148614808Y-71059456D01*
X148786776Y-70999282D01*
X148941042Y-70902350D01*
X149069872Y-70773520D01*
X149166804Y-70619254D01*
X149226978Y-70447286D01*
X149232070Y-70402090D01*
X149243570Y-70362173D01*
X149267606Y-70328296D01*
X150662057Y-68933845D01*
X150695934Y-68909809D01*
X150735851Y-68898309D01*
X150781047Y-68893217D01*
X150953015Y-68833043D01*
X151107281Y-68736111D01*
X151236111Y-68607281D01*
X151333043Y-68453015D01*
X151393217Y-68281047D01*
X151413616Y-68100000D01*
X151412807Y-68092822D01*
X151412836Y-68092567D01*
X151412836Y-68086116D01*
X151413563Y-68086116D01*
X151418983Y-68037983D01*
X151448343Y-67991252D01*
X151495070Y-67961891D01*
X151577515Y-67933043D01*
X151731781Y-67836111D01*
X151860611Y-67707281D01*
X151957543Y-67553015D01*
X152017717Y-67381047D01*
X152038116Y-67200000D01*
X152037020Y-67190277D01*
X152020088Y-67040000D01*
X154856844Y-67040000D01*
X154857268Y-67045117D01*
X154875011Y-67259248D01*
X154875012Y-67259256D01*
X154875436Y-67264368D01*
X154876693Y-67269335D01*
X154876695Y-67269342D01*
X154927676Y-67470659D01*
X154930704Y-67482616D01*
X154945904Y-67517268D01*
X155019080Y-67684096D01*
X155019083Y-67684101D01*
X155021140Y-67688791D01*
X155078250Y-67776204D01*
X155141474Y-67872977D01*
X155141477Y-67872981D01*
X155144278Y-67877268D01*
X155147752Y-67881041D01*
X155147753Y-67881043D01*
X155293288Y-68039135D01*
X155293291Y-68039138D01*
X155296760Y-68042906D01*
X155300801Y-68046051D01*
X155470376Y-68178039D01*
X155470381Y-68178042D01*
X155474424Y-68181189D01*
X155478931Y-68183628D01*
X155478934Y-68183630D01*
X155658946Y-68281047D01*
X155672426Y-68288342D01*
X155885365Y-68361444D01*
X156107431Y-68398500D01*
X156327436Y-68398500D01*
X156332569Y-68398500D01*
X156554635Y-68361444D01*
X156767574Y-68288342D01*
X156965576Y-68181189D01*
X157143240Y-68042906D01*
X157295722Y-67877268D01*
X157320190Y-67839818D01*
X157386191Y-67738795D01*
X157430982Y-67697561D01*
X157490000Y-67682616D01*
X157549018Y-67697561D01*
X157593809Y-67738795D01*
X157681470Y-67872972D01*
X157681478Y-67872982D01*
X157684278Y-67877268D01*
X157687752Y-67881041D01*
X157687753Y-67881043D01*
X157833288Y-68039135D01*
X157833291Y-68039138D01*
X157836760Y-68042906D01*
X157840801Y-68046051D01*
X158010376Y-68178039D01*
X158010381Y-68178042D01*
X158014424Y-68181189D01*
X158018931Y-68183628D01*
X158018934Y-68183630D01*
X158198946Y-68281047D01*
X158212426Y-68288342D01*
X158425365Y-68361444D01*
X158647431Y-68398500D01*
X158867436Y-68398500D01*
X158872569Y-68398500D01*
X159094635Y-68361444D01*
X159161316Y-68338551D01*
X159225111Y-68334086D01*
X159282647Y-68362004D01*
X159318621Y-68414878D01*
X159363841Y-68544112D01*
X159366957Y-68553015D01*
X159370658Y-68558905D01*
X159370659Y-68558907D01*
X159457897Y-68697745D01*
X159463889Y-68707281D01*
X159592719Y-68836111D01*
X159746985Y-68933043D01*
X159918953Y-68993217D01*
X160100000Y-69013616D01*
X160281047Y-68993217D01*
X160453015Y-68933043D01*
X160581188Y-68852506D01*
X160647161Y-68833500D01*
X160952839Y-68833500D01*
X161018811Y-68852506D01*
X161146985Y-68933043D01*
X161318953Y-68993217D01*
X161500000Y-69013616D01*
X161681047Y-68993217D01*
X161853015Y-68933043D01*
X162007281Y-68836111D01*
X162136111Y-68707281D01*
X162233043Y-68553015D01*
X162293217Y-68381047D01*
X162313616Y-68200000D01*
X162293217Y-68018953D01*
X162233043Y-67846985D01*
X162136111Y-67692719D01*
X162007281Y-67563889D01*
X161938387Y-67520600D01*
X161858907Y-67470659D01*
X161858905Y-67470658D01*
X161853015Y-67466957D01*
X161846449Y-67464659D01*
X161846446Y-67464658D01*
X161687621Y-67409083D01*
X161687618Y-67409082D01*
X161681047Y-67406783D01*
X161674130Y-67406003D01*
X161674123Y-67406002D01*
X161506923Y-67387164D01*
X161500000Y-67386384D01*
X161493077Y-67387164D01*
X161325876Y-67406002D01*
X161325867Y-67406003D01*
X161318953Y-67406783D01*
X161312383Y-67409081D01*
X161312378Y-67409083D01*
X161153553Y-67464658D01*
X161153547Y-67464660D01*
X161146985Y-67466957D01*
X161141097Y-67470656D01*
X161141092Y-67470659D01*
X161018811Y-67547494D01*
X160952839Y-67566500D01*
X160647161Y-67566500D01*
X160581189Y-67547494D01*
X160458907Y-67470659D01*
X160458905Y-67470658D01*
X160453015Y-67466957D01*
X160446449Y-67464659D01*
X160446446Y-67464658D01*
X160287621Y-67409083D01*
X160287618Y-67409082D01*
X160281047Y-67406783D01*
X160274130Y-67406003D01*
X160274123Y-67406002D01*
X160214021Y-67399231D01*
X160152495Y-67374446D01*
X160112548Y-67321493D01*
X160106556Y-67264533D01*
X160104564Y-67264368D01*
X160122732Y-67045117D01*
X160123156Y-67040000D01*
X160104564Y-66815632D01*
X160049296Y-66597384D01*
X159958860Y-66391209D01*
X159835722Y-66202732D01*
X159778977Y-66141091D01*
X159686711Y-66040864D01*
X159686708Y-66040861D01*
X159683240Y-66037094D01*
X159641541Y-66004638D01*
X159509623Y-65901960D01*
X159509615Y-65901955D01*
X159505576Y-65898811D01*
X159501066Y-65896370D01*
X159501061Y-65896367D01*
X159469070Y-65879055D01*
X159421564Y-65833474D01*
X159404086Y-65770000D01*
X159421564Y-65706526D01*
X159469070Y-65660945D01*
X159469109Y-65660923D01*
X159505576Y-65641189D01*
X159683240Y-65502906D01*
X159835722Y-65337268D01*
X159958860Y-65148791D01*
X160049296Y-64942616D01*
X160104564Y-64724368D01*
X160123156Y-64500000D01*
X160104564Y-64275632D01*
X160049296Y-64057384D01*
X159958860Y-63851209D01*
X159835722Y-63662732D01*
X159683240Y-63497094D01*
X159611435Y-63441205D01*
X159509623Y-63361960D01*
X159509615Y-63361955D01*
X159505576Y-63358811D01*
X159501069Y-63356372D01*
X159501060Y-63356366D01*
X159469068Y-63339053D01*
X159421562Y-63293471D01*
X159404086Y-63229996D01*
X159421565Y-63166522D01*
X159469067Y-63120946D01*
X159505576Y-63101189D01*
X159683240Y-62962906D01*
X159835722Y-62797268D01*
X159958860Y-62608791D01*
X160049296Y-62402616D01*
X160104564Y-62184368D01*
X160123156Y-61960000D01*
X160104564Y-61735632D01*
X160049296Y-61517384D01*
X159958860Y-61311209D01*
X159835722Y-61122732D01*
X159684292Y-60958237D01*
X159655519Y-60905485D01*
X159654926Y-60845399D01*
X159682653Y-60792088D01*
X159732189Y-60758073D01*
X159843777Y-60716452D01*
X159859189Y-60708037D01*
X159960092Y-60632501D01*
X159972501Y-60620092D01*
X160048037Y-60519189D01*
X160056452Y-60503777D01*
X160100888Y-60384641D01*
X160104426Y-60369667D01*
X160109646Y-60321114D01*
X160110000Y-60314518D01*
X160110000Y-59686326D01*
X160106549Y-59673450D01*
X160093674Y-59670000D01*
X158634000Y-59670000D01*
X158572000Y-59653387D01*
X158526613Y-59608000D01*
X158510000Y-59546000D01*
X158510000Y-59153674D01*
X159010000Y-59153674D01*
X159013450Y-59166549D01*
X159026326Y-59170000D01*
X160093674Y-59170000D01*
X160106549Y-59166549D01*
X160110000Y-59153674D01*
X160110000Y-58525482D01*
X160109646Y-58518885D01*
X160104426Y-58470332D01*
X160100888Y-58455358D01*
X160056452Y-58336222D01*
X160048037Y-58320810D01*
X159972501Y-58219907D01*
X159960092Y-58207498D01*
X159859189Y-58131962D01*
X159843777Y-58123547D01*
X159724641Y-58079111D01*
X159709667Y-58075573D01*
X159661114Y-58070353D01*
X159654518Y-58070000D01*
X159026326Y-58070000D01*
X159013450Y-58073450D01*
X159010000Y-58086326D01*
X159010000Y-59153674D01*
X158510000Y-59153674D01*
X158510000Y-58086326D01*
X158506549Y-58073450D01*
X158493674Y-58070000D01*
X157865482Y-58070000D01*
X157858885Y-58070353D01*
X157810332Y-58075573D01*
X157795358Y-58079111D01*
X157676222Y-58123547D01*
X157660810Y-58131962D01*
X157559907Y-58207498D01*
X157547498Y-58219907D01*
X157471962Y-58320810D01*
X157463548Y-58336220D01*
X157420318Y-58452123D01*
X157384366Y-58503336D01*
X157327984Y-58530474D01*
X157265530Y-58526626D01*
X157212907Y-58492772D01*
X157146711Y-58420864D01*
X157146708Y-58420861D01*
X157143240Y-58417094D01*
X157130597Y-58407253D01*
X156969623Y-58281960D01*
X156969615Y-58281955D01*
X156965576Y-58278811D01*
X156961071Y-58276373D01*
X156961065Y-58276369D01*
X156772080Y-58174096D01*
X156772074Y-58174093D01*
X156767574Y-58171658D01*
X156762733Y-58169996D01*
X156762726Y-58169993D01*
X156559488Y-58100222D01*
X156559487Y-58100221D01*
X156554635Y-58098556D01*
X156549585Y-58097713D01*
X156549576Y-58097711D01*
X156337631Y-58062344D01*
X156337622Y-58062343D01*
X156332569Y-58061500D01*
X156107431Y-58061500D01*
X156102378Y-58062343D01*
X156102368Y-58062344D01*
X155890423Y-58097711D01*
X155890411Y-58097713D01*
X155885365Y-58098556D01*
X155880515Y-58100220D01*
X155880511Y-58100222D01*
X155677273Y-58169993D01*
X155677262Y-58169997D01*
X155672426Y-58171658D01*
X155667929Y-58174091D01*
X155667919Y-58174096D01*
X155478934Y-58276369D01*
X155478922Y-58276376D01*
X155474424Y-58278811D01*
X155470389Y-58281951D01*
X155470376Y-58281960D01*
X155300801Y-58413948D01*
X155300795Y-58413952D01*
X155296760Y-58417094D01*
X155293297Y-58420855D01*
X155293288Y-58420864D01*
X155147753Y-58578956D01*
X155147747Y-58578963D01*
X155144278Y-58582732D01*
X155141481Y-58587012D01*
X155141474Y-58587022D01*
X155023942Y-58766920D01*
X155021140Y-58771209D01*
X155019085Y-58775892D01*
X155019080Y-58775903D01*
X154932764Y-58972687D01*
X154930704Y-58977384D01*
X154929446Y-58982349D01*
X154929445Y-58982354D01*
X154876695Y-59190657D01*
X154876693Y-59190666D01*
X154875436Y-59195632D01*
X154875012Y-59200741D01*
X154875011Y-59200751D01*
X154857268Y-59414883D01*
X154856844Y-59420000D01*
X154857268Y-59425117D01*
X154875011Y-59639248D01*
X154875012Y-59639256D01*
X154875436Y-59644368D01*
X154876693Y-59649335D01*
X154876695Y-59649342D01*
X154886061Y-59686326D01*
X154930704Y-59862616D01*
X154932764Y-59867312D01*
X155019080Y-60064096D01*
X155019083Y-60064101D01*
X155021140Y-60068791D01*
X155080505Y-60159656D01*
X155141474Y-60252977D01*
X155141477Y-60252981D01*
X155144278Y-60257268D01*
X155147752Y-60261041D01*
X155147753Y-60261043D01*
X155293288Y-60419135D01*
X155293291Y-60419138D01*
X155296760Y-60422906D01*
X155300801Y-60426051D01*
X155470376Y-60558039D01*
X155470381Y-60558042D01*
X155474424Y-60561189D01*
X155478931Y-60563628D01*
X155478934Y-60563630D01*
X155510930Y-60580945D01*
X155558436Y-60626526D01*
X155575913Y-60690000D01*
X155558436Y-60753474D01*
X155510930Y-60799055D01*
X155478934Y-60816369D01*
X155478922Y-60816376D01*
X155474424Y-60818811D01*
X155470389Y-60821951D01*
X155470376Y-60821960D01*
X155300801Y-60953948D01*
X155300795Y-60953952D01*
X155296760Y-60957094D01*
X155293297Y-60960855D01*
X155293288Y-60960864D01*
X155147753Y-61118956D01*
X155147747Y-61118963D01*
X155144278Y-61122732D01*
X155141481Y-61127012D01*
X155141474Y-61127022D01*
X155053809Y-61261205D01*
X155021140Y-61311209D01*
X155019085Y-61315892D01*
X155019080Y-61315903D01*
X154990636Y-61380751D01*
X154930704Y-61517384D01*
X154929446Y-61522349D01*
X154929445Y-61522354D01*
X154876695Y-61730657D01*
X154876693Y-61730666D01*
X154875436Y-61735632D01*
X154875012Y-61740741D01*
X154875011Y-61740751D01*
X154864817Y-61863780D01*
X154856844Y-61960000D01*
X154857268Y-61965117D01*
X154875011Y-62179248D01*
X154875012Y-62179256D01*
X154875436Y-62184368D01*
X154876693Y-62189335D01*
X154876695Y-62189342D01*
X154903034Y-62293351D01*
X154930704Y-62402616D01*
X154945904Y-62437268D01*
X155019080Y-62604096D01*
X155019083Y-62604101D01*
X155021140Y-62608791D01*
X155042324Y-62641215D01*
X155141474Y-62792977D01*
X155141477Y-62792981D01*
X155144278Y-62797268D01*
X155147752Y-62801041D01*
X155147753Y-62801043D01*
X155293288Y-62959135D01*
X155293291Y-62959138D01*
X155296760Y-62962906D01*
X155317508Y-62979055D01*
X155470376Y-63098039D01*
X155470381Y-63098042D01*
X155474424Y-63101189D01*
X155478931Y-63103628D01*
X155478934Y-63103630D01*
X155510930Y-63120945D01*
X155558436Y-63166526D01*
X155575913Y-63230000D01*
X155558436Y-63293474D01*
X155510930Y-63339055D01*
X155478934Y-63356369D01*
X155478922Y-63356376D01*
X155474424Y-63358811D01*
X155470389Y-63361951D01*
X155470376Y-63361960D01*
X155300801Y-63493948D01*
X155300795Y-63493952D01*
X155296760Y-63497094D01*
X155293297Y-63500855D01*
X155293288Y-63500864D01*
X155147753Y-63658956D01*
X155147747Y-63658963D01*
X155144278Y-63662732D01*
X155141481Y-63667012D01*
X155141474Y-63667022D01*
X155053809Y-63801205D01*
X155021140Y-63851209D01*
X155019085Y-63855892D01*
X155019080Y-63855903D01*
X154990636Y-63920751D01*
X154930704Y-64057384D01*
X154929446Y-64062349D01*
X154929445Y-64062354D01*
X154876695Y-64270657D01*
X154876693Y-64270666D01*
X154875436Y-64275632D01*
X154875012Y-64280741D01*
X154875011Y-64280751D01*
X154857268Y-64494883D01*
X154856844Y-64500000D01*
X154857268Y-64505117D01*
X154875011Y-64719248D01*
X154875012Y-64719256D01*
X154875436Y-64724368D01*
X154876693Y-64729335D01*
X154876695Y-64729342D01*
X154916742Y-64887482D01*
X154930704Y-64942616D01*
X154945788Y-64977004D01*
X155019080Y-65144096D01*
X155019083Y-65144101D01*
X155021140Y-65148791D01*
X155026870Y-65157561D01*
X155141474Y-65332977D01*
X155141477Y-65332981D01*
X155144278Y-65337268D01*
X155147752Y-65341041D01*
X155147753Y-65341043D01*
X155293288Y-65499135D01*
X155293291Y-65499138D01*
X155296760Y-65502906D01*
X155339750Y-65536367D01*
X155470376Y-65638039D01*
X155470381Y-65638042D01*
X155474424Y-65641189D01*
X155510930Y-65660945D01*
X155558434Y-65706523D01*
X155575913Y-65769996D01*
X155558437Y-65833471D01*
X155510933Y-65879053D01*
X155478930Y-65896372D01*
X155478925Y-65896374D01*
X155474424Y-65898811D01*
X155470389Y-65901951D01*
X155470376Y-65901960D01*
X155300801Y-66033948D01*
X155300795Y-66033952D01*
X155296760Y-66037094D01*
X155293297Y-66040855D01*
X155293288Y-66040864D01*
X155147753Y-66198956D01*
X155147747Y-66198963D01*
X155144278Y-66202732D01*
X155141481Y-66207012D01*
X155141474Y-66207022D01*
X155068347Y-66318953D01*
X155021140Y-66391209D01*
X155019085Y-66395892D01*
X155019080Y-66395903D01*
X154950909Y-66551320D01*
X154930704Y-66597384D01*
X154929446Y-66602349D01*
X154929445Y-66602354D01*
X154876695Y-66810657D01*
X154876693Y-66810666D01*
X154875436Y-66815632D01*
X154875012Y-66820741D01*
X154875011Y-66820751D01*
X154860044Y-67001380D01*
X154856844Y-67040000D01*
X152020088Y-67040000D01*
X152018497Y-67025876D01*
X152017717Y-67018953D01*
X151957543Y-66846985D01*
X151958341Y-66846705D01*
X151947680Y-66799991D01*
X151958343Y-66753295D01*
X151957543Y-66753015D01*
X151962406Y-66739117D01*
X152017717Y-66581047D01*
X152038116Y-66400000D01*
X152037125Y-66391209D01*
X152018497Y-66225876D01*
X152017717Y-66218953D01*
X151957543Y-66046985D01*
X151860611Y-65892719D01*
X151731781Y-65763889D01*
X151577515Y-65666957D01*
X151570949Y-65664659D01*
X151570946Y-65664658D01*
X151412121Y-65609083D01*
X151412118Y-65609082D01*
X151405547Y-65606783D01*
X151398630Y-65606003D01*
X151398623Y-65606002D01*
X151231423Y-65587164D01*
X151224500Y-65586384D01*
X151217577Y-65587164D01*
X151050376Y-65606002D01*
X151050367Y-65606003D01*
X151043453Y-65606783D01*
X151036879Y-65609082D01*
X151036871Y-65609085D01*
X150982103Y-65628248D01*
X150913558Y-65632097D01*
X150853471Y-65598888D01*
X150809348Y-65554766D01*
X150785308Y-65520885D01*
X150773809Y-65480973D01*
X150768717Y-65435776D01*
X150708543Y-65263808D01*
X150611611Y-65109542D01*
X150482781Y-64980712D01*
X150470463Y-64972972D01*
X150334407Y-64887482D01*
X150334405Y-64887481D01*
X150328515Y-64883780D01*
X150321949Y-64881482D01*
X150321946Y-64881481D01*
X150163121Y-64825906D01*
X150163118Y-64825905D01*
X150156547Y-64823606D01*
X150149630Y-64822826D01*
X150149623Y-64822825D01*
X149982423Y-64803987D01*
X149975500Y-64803207D01*
X149968577Y-64803987D01*
X149801376Y-64822825D01*
X149801367Y-64822826D01*
X149794453Y-64823606D01*
X149787883Y-64825904D01*
X149787878Y-64825906D01*
X149629053Y-64881481D01*
X149629047Y-64881483D01*
X149622485Y-64883780D01*
X149616597Y-64887479D01*
X149616592Y-64887482D01*
X149474119Y-64977004D01*
X149474114Y-64977007D01*
X149468219Y-64980712D01*
X149463294Y-64985636D01*
X149463290Y-64985640D01*
X149344317Y-65104613D01*
X149344313Y-65104617D01*
X149339389Y-65109542D01*
X149335684Y-65115437D01*
X149335681Y-65115442D01*
X149246159Y-65257915D01*
X149246156Y-65257920D01*
X149242457Y-65263808D01*
X149240160Y-65270370D01*
X149240158Y-65270376D01*
X149184583Y-65429201D01*
X149184581Y-65429206D01*
X149182283Y-65435776D01*
X149181503Y-65442690D01*
X149181502Y-65442699D01*
X149165226Y-65587164D01*
X149161884Y-65616823D01*
X149162664Y-65623746D01*
X149181502Y-65790946D01*
X149181503Y-65790953D01*
X149182283Y-65797870D01*
X149184582Y-65804441D01*
X149184583Y-65804444D01*
X149234885Y-65948200D01*
X149242457Y-65969838D01*
X149246158Y-65975729D01*
X149246161Y-65975734D01*
X149256658Y-65992440D01*
X149275664Y-66058409D01*
X149256661Y-66124378D01*
X149246160Y-66141091D01*
X149242457Y-66146985D01*
X149240160Y-66153547D01*
X149240158Y-66153553D01*
X149184583Y-66312378D01*
X149184581Y-66312383D01*
X149182283Y-66318953D01*
X149181503Y-66325867D01*
X149181502Y-66325876D01*
X149166900Y-66455481D01*
X149161884Y-66500000D01*
X149162664Y-66506923D01*
X149181502Y-66674123D01*
X149181503Y-66674130D01*
X149182283Y-66681047D01*
X149184582Y-66687618D01*
X149184583Y-66687621D01*
X149207563Y-66753295D01*
X149242457Y-66853015D01*
X149339389Y-67007281D01*
X149468219Y-67136111D01*
X149622485Y-67233043D01*
X149794453Y-67293217D01*
X149839652Y-67298309D01*
X149879562Y-67309807D01*
X149913443Y-67333847D01*
X149980421Y-67400825D01*
X150012515Y-67456412D01*
X150012515Y-67520600D01*
X149980421Y-67576187D01*
X149968817Y-67587790D01*
X149968813Y-67587794D01*
X149963889Y-67592719D01*
X149960184Y-67598614D01*
X149960181Y-67598619D01*
X149870659Y-67741092D01*
X149870656Y-67741097D01*
X149866957Y-67746985D01*
X149864660Y-67753547D01*
X149864658Y-67753553D01*
X149821369Y-67877268D01*
X149806783Y-67918953D01*
X149806004Y-67925861D01*
X149806003Y-67925868D01*
X149801690Y-67964147D01*
X149790190Y-68004064D01*
X149766151Y-68037942D01*
X148371703Y-69432390D01*
X148337825Y-69456429D01*
X148297908Y-69467929D01*
X148259629Y-69472242D01*
X148259622Y-69472243D01*
X148252714Y-69473022D01*
X148246147Y-69475319D01*
X148246146Y-69475320D01*
X148087314Y-69530897D01*
X148087308Y-69530899D01*
X148080746Y-69533196D01*
X148074858Y-69536895D01*
X148074853Y-69536898D01*
X147932380Y-69626420D01*
X147932375Y-69626423D01*
X147926480Y-69630128D01*
X147921555Y-69635052D01*
X147921551Y-69635056D01*
X147802578Y-69754029D01*
X147802574Y-69754033D01*
X147797650Y-69758958D01*
X147793945Y-69764853D01*
X147793942Y-69764858D01*
X147704420Y-69907331D01*
X147704417Y-69907336D01*
X147700718Y-69913224D01*
X147698421Y-69919786D01*
X147698419Y-69919792D01*
X147642844Y-70078617D01*
X147642842Y-70078622D01*
X147640544Y-70085192D01*
X147639764Y-70092106D01*
X147639763Y-70092115D01*
X147626206Y-70212447D01*
X147620145Y-70266239D01*
X131134820Y-70266239D01*
X131156020Y-70220776D01*
X131213015Y-70008071D01*
X131232207Y-69788700D01*
X131213015Y-69569329D01*
X131156020Y-69356624D01*
X131062956Y-69157047D01*
X131033279Y-69114665D01*
X130939754Y-68981096D01*
X130939752Y-68981093D01*
X130936649Y-68976662D01*
X130780938Y-68820951D01*
X130776507Y-68817848D01*
X130776503Y-68817845D01*
X130604991Y-68697751D01*
X130604992Y-68697751D01*
X130600554Y-68694644D01*
X130595639Y-68692352D01*
X130405879Y-68603866D01*
X130405876Y-68603864D01*
X130400976Y-68601580D01*
X130395761Y-68600182D01*
X130395754Y-68600180D01*
X130193503Y-68545986D01*
X130193492Y-68545984D01*
X130188271Y-68544585D01*
X130182879Y-68544113D01*
X130182872Y-68544112D01*
X129974295Y-68525865D01*
X129968900Y-68525393D01*
X129963505Y-68525865D01*
X129754927Y-68544112D01*
X129754918Y-68544113D01*
X129749529Y-68544585D01*
X129744309Y-68545983D01*
X129744296Y-68545986D01*
X129542051Y-68600179D01*
X129542046Y-68600180D01*
X129536824Y-68601580D01*
X129531928Y-68603862D01*
X129531917Y-68603867D01*
X129342149Y-68692357D01*
X129342138Y-68692363D01*
X129337247Y-68694644D01*
X129332824Y-68697740D01*
X129332817Y-68697745D01*
X129161296Y-68817845D01*
X129161286Y-68817852D01*
X129156862Y-68820951D01*
X129153036Y-68824776D01*
X129153030Y-68824782D01*
X129004982Y-68972830D01*
X129004976Y-68972836D01*
X129001151Y-68976662D01*
X128998052Y-68981086D01*
X128998045Y-68981096D01*
X128877945Y-69152617D01*
X128877940Y-69152624D01*
X128874844Y-69157047D01*
X128872563Y-69161938D01*
X128872557Y-69161949D01*
X128811282Y-69293356D01*
X128765525Y-69345532D01*
X128698900Y-69364951D01*
X128632275Y-69345532D01*
X128586518Y-69293356D01*
X128525242Y-69161949D01*
X128525241Y-69161947D01*
X128522956Y-69157047D01*
X128493279Y-69114665D01*
X128399754Y-68981096D01*
X128399752Y-68981093D01*
X128396649Y-68976662D01*
X128240938Y-68820951D01*
X128236507Y-68817848D01*
X128236503Y-68817845D01*
X128064991Y-68697751D01*
X128064992Y-68697751D01*
X128060554Y-68694644D01*
X128055639Y-68692352D01*
X127865879Y-68603866D01*
X127865876Y-68603864D01*
X127860976Y-68601580D01*
X127855761Y-68600182D01*
X127855754Y-68600180D01*
X127653503Y-68545986D01*
X127653492Y-68545984D01*
X127648271Y-68544585D01*
X127642879Y-68544113D01*
X127642872Y-68544112D01*
X127434295Y-68525865D01*
X127428900Y-68525393D01*
X127423505Y-68525865D01*
X127214927Y-68544112D01*
X127214918Y-68544113D01*
X127209529Y-68544585D01*
X127204309Y-68545983D01*
X127204296Y-68545986D01*
X127002051Y-68600179D01*
X127002046Y-68600180D01*
X126996824Y-68601580D01*
X126991928Y-68603862D01*
X126991917Y-68603867D01*
X126802149Y-68692357D01*
X126802138Y-68692363D01*
X126797247Y-68694644D01*
X126792824Y-68697740D01*
X126792817Y-68697745D01*
X126621296Y-68817845D01*
X126621286Y-68817852D01*
X126616862Y-68820951D01*
X126613036Y-68824776D01*
X126613030Y-68824782D01*
X126464982Y-68972830D01*
X126464976Y-68972836D01*
X126461151Y-68976662D01*
X126458052Y-68981086D01*
X126458045Y-68981096D01*
X126337945Y-69152617D01*
X126337940Y-69152624D01*
X126334844Y-69157047D01*
X126332563Y-69161938D01*
X126332557Y-69161949D01*
X126271282Y-69293356D01*
X126225525Y-69345532D01*
X126158900Y-69364951D01*
X126092275Y-69345532D01*
X126046518Y-69293356D01*
X125985242Y-69161949D01*
X125985241Y-69161947D01*
X125982956Y-69157047D01*
X125953279Y-69114665D01*
X125859754Y-68981096D01*
X125859752Y-68981093D01*
X125856649Y-68976662D01*
X125700938Y-68820951D01*
X125696507Y-68817848D01*
X125696503Y-68817845D01*
X125524991Y-68697751D01*
X125524992Y-68697751D01*
X125520554Y-68694644D01*
X125515639Y-68692352D01*
X125325879Y-68603866D01*
X125325876Y-68603864D01*
X125320976Y-68601580D01*
X125315761Y-68600182D01*
X125315754Y-68600180D01*
X125113503Y-68545986D01*
X125113492Y-68545984D01*
X125108271Y-68544585D01*
X125102879Y-68544113D01*
X125102872Y-68544112D01*
X124894295Y-68525865D01*
X124888900Y-68525393D01*
X124883505Y-68525865D01*
X124674927Y-68544112D01*
X124674918Y-68544113D01*
X124669529Y-68544585D01*
X124664309Y-68545983D01*
X124664296Y-68545986D01*
X124462051Y-68600179D01*
X124462046Y-68600180D01*
X124456824Y-68601580D01*
X124451928Y-68603862D01*
X124451917Y-68603867D01*
X124262149Y-68692357D01*
X124262138Y-68692363D01*
X124257247Y-68694644D01*
X124252824Y-68697740D01*
X124252817Y-68697745D01*
X124081296Y-68817845D01*
X124081286Y-68817852D01*
X124076862Y-68820951D01*
X124073036Y-68824776D01*
X124073030Y-68824782D01*
X123924982Y-68972830D01*
X123924976Y-68972836D01*
X123921151Y-68976662D01*
X123918052Y-68981086D01*
X123918045Y-68981096D01*
X123797945Y-69152617D01*
X123797940Y-69152624D01*
X123794844Y-69157047D01*
X123792563Y-69161938D01*
X123792557Y-69161949D01*
X123731282Y-69293356D01*
X123685525Y-69345532D01*
X123618900Y-69364951D01*
X123552275Y-69345532D01*
X123506518Y-69293356D01*
X123445242Y-69161949D01*
X123445241Y-69161947D01*
X123442956Y-69157047D01*
X123413279Y-69114665D01*
X123319754Y-68981096D01*
X123319752Y-68981093D01*
X123316649Y-68976662D01*
X123160938Y-68820951D01*
X123156507Y-68817848D01*
X123156503Y-68817845D01*
X122984991Y-68697751D01*
X122984992Y-68697751D01*
X122980554Y-68694644D01*
X122975639Y-68692352D01*
X122785879Y-68603866D01*
X122785876Y-68603864D01*
X122780976Y-68601580D01*
X122775761Y-68600182D01*
X122775754Y-68600180D01*
X122573503Y-68545986D01*
X122573492Y-68545984D01*
X122568271Y-68544585D01*
X122562879Y-68544113D01*
X122562872Y-68544112D01*
X122354295Y-68525865D01*
X122348900Y-68525393D01*
X122343505Y-68525865D01*
X122134927Y-68544112D01*
X122134918Y-68544113D01*
X122129529Y-68544585D01*
X122124309Y-68545983D01*
X122124296Y-68545986D01*
X121922051Y-68600179D01*
X121922046Y-68600180D01*
X121916824Y-68601580D01*
X121911928Y-68603862D01*
X121911917Y-68603867D01*
X121722149Y-68692357D01*
X121722138Y-68692363D01*
X121717247Y-68694644D01*
X121712824Y-68697740D01*
X121712817Y-68697745D01*
X121541296Y-68817845D01*
X121541286Y-68817852D01*
X121536862Y-68820951D01*
X121533036Y-68824776D01*
X121533030Y-68824782D01*
X121384982Y-68972830D01*
X121384976Y-68972836D01*
X121381151Y-68976662D01*
X121378052Y-68981086D01*
X121378045Y-68981096D01*
X121257945Y-69152617D01*
X121257940Y-69152624D01*
X121254844Y-69157047D01*
X121252563Y-69161938D01*
X121252557Y-69161949D01*
X121191282Y-69293356D01*
X121145525Y-69345532D01*
X121078900Y-69364951D01*
X121012275Y-69345532D01*
X120966518Y-69293356D01*
X120905242Y-69161949D01*
X120905241Y-69161947D01*
X120902956Y-69157047D01*
X120873279Y-69114665D01*
X120779754Y-68981096D01*
X120779752Y-68981093D01*
X120776649Y-68976662D01*
X120620938Y-68820951D01*
X120616507Y-68817848D01*
X120616503Y-68817845D01*
X120444991Y-68697751D01*
X120444992Y-68697751D01*
X120440554Y-68694644D01*
X120435639Y-68692352D01*
X120245879Y-68603866D01*
X120245876Y-68603864D01*
X120240976Y-68601580D01*
X120235761Y-68600182D01*
X120235754Y-68600180D01*
X120033503Y-68545986D01*
X120033492Y-68545984D01*
X120028271Y-68544585D01*
X120022879Y-68544113D01*
X120022872Y-68544112D01*
X119814295Y-68525865D01*
X119808900Y-68525393D01*
X119803505Y-68525865D01*
X119594927Y-68544112D01*
X119594918Y-68544113D01*
X119589529Y-68544585D01*
X119584309Y-68545983D01*
X119584296Y-68545986D01*
X119382051Y-68600179D01*
X119382046Y-68600180D01*
X119376824Y-68601580D01*
X119371928Y-68603862D01*
X119371917Y-68603867D01*
X119182149Y-68692357D01*
X119182138Y-68692363D01*
X119177247Y-68694644D01*
X119172824Y-68697740D01*
X119172817Y-68697745D01*
X119001296Y-68817845D01*
X119001286Y-68817852D01*
X118996862Y-68820951D01*
X118993036Y-68824776D01*
X118993030Y-68824782D01*
X118844982Y-68972830D01*
X118844976Y-68972836D01*
X118841151Y-68976662D01*
X118838052Y-68981086D01*
X118838045Y-68981096D01*
X118717945Y-69152617D01*
X118717940Y-69152624D01*
X118714844Y-69157047D01*
X118712563Y-69161938D01*
X118712557Y-69161949D01*
X118651282Y-69293356D01*
X118605525Y-69345532D01*
X118538900Y-69364951D01*
X118472275Y-69345532D01*
X118426518Y-69293356D01*
X118365242Y-69161949D01*
X118365241Y-69161947D01*
X118362956Y-69157047D01*
X118333279Y-69114665D01*
X118239754Y-68981096D01*
X118239752Y-68981093D01*
X118236649Y-68976662D01*
X118080938Y-68820951D01*
X118076507Y-68817848D01*
X118076503Y-68817845D01*
X117904991Y-68697751D01*
X117904992Y-68697751D01*
X117900554Y-68694644D01*
X117895639Y-68692352D01*
X117705879Y-68603866D01*
X117705876Y-68603864D01*
X117700976Y-68601580D01*
X117695761Y-68600182D01*
X117695754Y-68600180D01*
X117493503Y-68545986D01*
X117493492Y-68545984D01*
X117488271Y-68544585D01*
X117482879Y-68544113D01*
X117482872Y-68544112D01*
X117274295Y-68525865D01*
X117268900Y-68525393D01*
X117263505Y-68525865D01*
X117054927Y-68544112D01*
X117054918Y-68544113D01*
X117049529Y-68544585D01*
X117044309Y-68545983D01*
X117044296Y-68545986D01*
X116842051Y-68600179D01*
X116842046Y-68600180D01*
X116836824Y-68601580D01*
X116831928Y-68603862D01*
X116831917Y-68603867D01*
X116642149Y-68692357D01*
X116642138Y-68692363D01*
X116637247Y-68694644D01*
X116632824Y-68697740D01*
X116632817Y-68697745D01*
X116461296Y-68817845D01*
X116461286Y-68817852D01*
X116456862Y-68820951D01*
X116453036Y-68824776D01*
X116453030Y-68824782D01*
X116304982Y-68972830D01*
X116304976Y-68972836D01*
X116301151Y-68976662D01*
X116298052Y-68981086D01*
X116298045Y-68981096D01*
X116177945Y-69152617D01*
X116177940Y-69152624D01*
X116174844Y-69157047D01*
X116172563Y-69161938D01*
X116172557Y-69161949D01*
X116084067Y-69351717D01*
X116084062Y-69351728D01*
X116081780Y-69356624D01*
X116080380Y-69361846D01*
X116080379Y-69361851D01*
X116026186Y-69564096D01*
X116026183Y-69564109D01*
X116024785Y-69569329D01*
X116024313Y-69574718D01*
X116024312Y-69574727D01*
X116008626Y-69754029D01*
X116005593Y-69788700D01*
X116006065Y-69794095D01*
X116024312Y-70002672D01*
X116024313Y-70002679D01*
X116024785Y-70008071D01*
X116026184Y-70013292D01*
X116026186Y-70013303D01*
X116080380Y-70215554D01*
X116080382Y-70215561D01*
X116081780Y-70220776D01*
X116084064Y-70225676D01*
X116084066Y-70225679D01*
X116146223Y-70358975D01*
X116174844Y-70420354D01*
X116177951Y-70424791D01*
X116298045Y-70596303D01*
X116298048Y-70596307D01*
X116301151Y-70600738D01*
X116456862Y-70756449D01*
X116461294Y-70759552D01*
X116461296Y-70759554D01*
X116523370Y-70803018D01*
X116637246Y-70882756D01*
X116836824Y-70975820D01*
X116842044Y-70977218D01*
X116842045Y-70977219D01*
X117044296Y-71031413D01*
X117044298Y-71031413D01*
X117049529Y-71032815D01*
X117268900Y-71052007D01*
X117488271Y-71032815D01*
X117700976Y-70975820D01*
X117900554Y-70882756D01*
X118080938Y-70756449D01*
X118236649Y-70600738D01*
X118362956Y-70420354D01*
X118426518Y-70284042D01*
X118472275Y-70231867D01*
X118538900Y-70212447D01*
X118605525Y-70231867D01*
X118651281Y-70284042D01*
X118714844Y-70420354D01*
X118717951Y-70424791D01*
X118790175Y-70527937D01*
X118806861Y-70561773D01*
X118812600Y-70599061D01*
X118812600Y-78728857D01*
X118799085Y-78785152D01*
X118761485Y-78829175D01*
X118707998Y-78851330D01*
X118650282Y-78846788D01*
X118600919Y-78816538D01*
X118020492Y-78236111D01*
X117269819Y-77485437D01*
X117242939Y-77445209D01*
X117233500Y-77397756D01*
X117233500Y-76947161D01*
X117252506Y-76881189D01*
X117271752Y-76850558D01*
X117333043Y-76753015D01*
X117393217Y-76581047D01*
X117413616Y-76400000D01*
X117393217Y-76218953D01*
X117333043Y-76046985D01*
X117236111Y-75892719D01*
X117107281Y-75763889D01*
X116953015Y-75666957D01*
X116946449Y-75664659D01*
X116946446Y-75664658D01*
X116787621Y-75609083D01*
X116787618Y-75609082D01*
X116781047Y-75606783D01*
X116774130Y-75606003D01*
X116774123Y-75606002D01*
X116606923Y-75587164D01*
X116600000Y-75586384D01*
X116593077Y-75587164D01*
X116425876Y-75606002D01*
X116425867Y-75606003D01*
X116418953Y-75606783D01*
X116412383Y-75609081D01*
X116412378Y-75609083D01*
X116253553Y-75664658D01*
X116253547Y-75664660D01*
X116246985Y-75666957D01*
X116241097Y-75670656D01*
X116241092Y-75670659D01*
X116098619Y-75760181D01*
X116098614Y-75760184D01*
X116092719Y-75763889D01*
X116087794Y-75768813D01*
X116087790Y-75768817D01*
X115968817Y-75887790D01*
X115968813Y-75887794D01*
X115963889Y-75892719D01*
X115960184Y-75898614D01*
X115960181Y-75898619D01*
X115870659Y-76041092D01*
X115870656Y-76041097D01*
X115866957Y-76046985D01*
X115864660Y-76053547D01*
X115864658Y-76053553D01*
X115809083Y-76212378D01*
X115809081Y-76212383D01*
X115806783Y-76218953D01*
X115806003Y-76225867D01*
X115806002Y-76225876D01*
X115787331Y-76391592D01*
X115786384Y-76400000D01*
X83087498Y-76400000D01*
X83036111Y-76318219D01*
X82907281Y-76189389D01*
X82901380Y-76185681D01*
X82758907Y-76096159D01*
X82758905Y-76096158D01*
X82753015Y-76092457D01*
X82746449Y-76090159D01*
X82746446Y-76090158D01*
X82587621Y-76034583D01*
X82587618Y-76034582D01*
X82581047Y-76032283D01*
X82574130Y-76031503D01*
X82574123Y-76031502D01*
X82406923Y-76012664D01*
X82400000Y-76011884D01*
X82393077Y-76012664D01*
X82225876Y-76031502D01*
X82225867Y-76031503D01*
X82218953Y-76032283D01*
X82212383Y-76034581D01*
X82212378Y-76034583D01*
X82053553Y-76090158D01*
X82053547Y-76090160D01*
X82046985Y-76092457D01*
X82041097Y-76096156D01*
X82041092Y-76096159D01*
X81898619Y-76185681D01*
X81898614Y-76185684D01*
X81892719Y-76189389D01*
X81887794Y-76194313D01*
X81887790Y-76194317D01*
X81768817Y-76313290D01*
X81768813Y-76313294D01*
X81763889Y-76318219D01*
X81760184Y-76324114D01*
X81760181Y-76324119D01*
X81670659Y-76466592D01*
X81670656Y-76466597D01*
X81666957Y-76472485D01*
X81664660Y-76479047D01*
X81664658Y-76479053D01*
X81609083Y-76637878D01*
X81609081Y-76637883D01*
X81606783Y-76644453D01*
X81606003Y-76651367D01*
X81606002Y-76651376D01*
X81592714Y-76769317D01*
X81586384Y-76825500D01*
X81587164Y-76832423D01*
X81606002Y-76999623D01*
X81606003Y-76999630D01*
X81606783Y-77006547D01*
X81609082Y-77013118D01*
X81609083Y-77013121D01*
X81653669Y-77140542D01*
X81666957Y-77178515D01*
X81670658Y-77184405D01*
X81670659Y-77184407D01*
X81747494Y-77306689D01*
X81766500Y-77372661D01*
X81766500Y-77552839D01*
X81747494Y-77618811D01*
X81670659Y-77741092D01*
X81670656Y-77741097D01*
X81666957Y-77746985D01*
X81664660Y-77753547D01*
X81664658Y-77753553D01*
X81609083Y-77912378D01*
X81609081Y-77912383D01*
X81606783Y-77918953D01*
X81606003Y-77925867D01*
X81606002Y-77925876D01*
X81591456Y-78054985D01*
X81586384Y-78100000D01*
X78375500Y-78100000D01*
X78375500Y-72213000D01*
X95486384Y-72213000D01*
X95487164Y-72219923D01*
X95506002Y-72387123D01*
X95506003Y-72387130D01*
X95506783Y-72394047D01*
X95509082Y-72400618D01*
X95509083Y-72400621D01*
X95550439Y-72518811D01*
X95566957Y-72566015D01*
X95570658Y-72571905D01*
X95570659Y-72571907D01*
X95647494Y-72694189D01*
X95666500Y-72760161D01*
X95666500Y-72967038D01*
X95665968Y-72978321D01*
X95664298Y-72985793D01*
X95664543Y-72993589D01*
X95664543Y-72993591D01*
X95666439Y-73053901D01*
X95666500Y-73057797D01*
X95666500Y-73085740D01*
X95666988Y-73089605D01*
X95666989Y-73089616D01*
X95667019Y-73089854D01*
X95667934Y-73101480D01*
X95669081Y-73137980D01*
X95669082Y-73137987D01*
X95669327Y-73145773D01*
X95671500Y-73153254D01*
X95671502Y-73153264D01*
X95675022Y-73165379D01*
X95678967Y-73184426D01*
X95681526Y-73204681D01*
X95684395Y-73211929D01*
X95684398Y-73211938D01*
X95697838Y-73245885D01*
X95701621Y-73256932D01*
X95713982Y-73299477D01*
X95717953Y-73306192D01*
X95717954Y-73306194D01*
X95724375Y-73317052D01*
X95732930Y-73334515D01*
X95740448Y-73353501D01*
X95745030Y-73359808D01*
X95745031Y-73359809D01*
X95766491Y-73389346D01*
X95772905Y-73399111D01*
X95795458Y-73437246D01*
X95800976Y-73442764D01*
X95809889Y-73451677D01*
X95822525Y-73466472D01*
X95829938Y-73476675D01*
X95829943Y-73476680D01*
X95834528Y-73482991D01*
X95856757Y-73501380D01*
X95868667Y-73511233D01*
X95877308Y-73519096D01*
X97050418Y-74692207D01*
X97058014Y-74700555D01*
X97062116Y-74707018D01*
X97067804Y-74712359D01*
X97111767Y-74753643D01*
X97114565Y-74756354D01*
X97134346Y-74776135D01*
X97137422Y-74778521D01*
X97137619Y-74778674D01*
X97146498Y-74786258D01*
X97178795Y-74816586D01*
X97196681Y-74826418D01*
X97212945Y-74837102D01*
X97222908Y-74844831D01*
X97222911Y-74844833D01*
X97229075Y-74849614D01*
X97236238Y-74852713D01*
X97236239Y-74852714D01*
X97269732Y-74867207D01*
X97280228Y-74872348D01*
X97319056Y-74893695D01*
X97338832Y-74898772D01*
X97357239Y-74905075D01*
X97368807Y-74910081D01*
X97368808Y-74910081D01*
X97375971Y-74913181D01*
X97419737Y-74920112D01*
X97431157Y-74922477D01*
X97474086Y-74933500D01*
X97494501Y-74933500D01*
X97513899Y-74935027D01*
X97534059Y-74938220D01*
X97572592Y-74934577D01*
X97578174Y-74934050D01*
X97589843Y-74933500D01*
X98952839Y-74933500D01*
X99018811Y-74952506D01*
X99146985Y-75033043D01*
X99318953Y-75093217D01*
X99500000Y-75113616D01*
X99681047Y-75093217D01*
X99853015Y-75033043D01*
X100007281Y-74936111D01*
X100136111Y-74807281D01*
X100233043Y-74653015D01*
X100293217Y-74481047D01*
X100313616Y-74300000D01*
X100293217Y-74118953D01*
X100233043Y-73946985D01*
X100136111Y-73792719D01*
X100007281Y-73663889D01*
X99974111Y-73643047D01*
X99858907Y-73570659D01*
X99858905Y-73570658D01*
X99853015Y-73566957D01*
X99846449Y-73564659D01*
X99846446Y-73564658D01*
X99687621Y-73509083D01*
X99687618Y-73509082D01*
X99681047Y-73506783D01*
X99674130Y-73506003D01*
X99674123Y-73506002D01*
X99506923Y-73487164D01*
X99500000Y-73486384D01*
X99493077Y-73487164D01*
X99325876Y-73506002D01*
X99325867Y-73506003D01*
X99318953Y-73506783D01*
X99312383Y-73509081D01*
X99312378Y-73509083D01*
X99153553Y-73564658D01*
X99153547Y-73564660D01*
X99146985Y-73566957D01*
X99141097Y-73570656D01*
X99141092Y-73570659D01*
X99018811Y-73647494D01*
X98952839Y-73666500D01*
X98529330Y-73666500D01*
X98463358Y-73647494D01*
X98417610Y-73596301D01*
X98406110Y-73528616D01*
X98412836Y-73468923D01*
X98413616Y-73462000D01*
X98393217Y-73280953D01*
X98333043Y-73108985D01*
X98236111Y-72954719D01*
X98169819Y-72888427D01*
X98142939Y-72848199D01*
X98133500Y-72800746D01*
X98133500Y-72760161D01*
X98152506Y-72694189D01*
X98185869Y-72641092D01*
X98233043Y-72566015D01*
X98293217Y-72394047D01*
X98313616Y-72213000D01*
X98293217Y-72031953D01*
X98233043Y-71859985D01*
X98136111Y-71705719D01*
X98007281Y-71576889D01*
X97885034Y-71500076D01*
X97858907Y-71483659D01*
X97858905Y-71483658D01*
X97853015Y-71479957D01*
X97846449Y-71477659D01*
X97846446Y-71477658D01*
X97687621Y-71422083D01*
X97687618Y-71422082D01*
X97681047Y-71419783D01*
X97674130Y-71419003D01*
X97674123Y-71419002D01*
X97506923Y-71400164D01*
X97500000Y-71399384D01*
X97493077Y-71400164D01*
X97325876Y-71419002D01*
X97325867Y-71419003D01*
X97318953Y-71419783D01*
X97312383Y-71422081D01*
X97312378Y-71422083D01*
X97153553Y-71477658D01*
X97153547Y-71477660D01*
X97146985Y-71479957D01*
X97141097Y-71483656D01*
X97141092Y-71483659D01*
X96998619Y-71573181D01*
X96998614Y-71573184D01*
X96992719Y-71576889D01*
X96987794Y-71581813D01*
X96987790Y-71581817D01*
X96987681Y-71581927D01*
X96987580Y-71581984D01*
X96982353Y-71586154D01*
X96981724Y-71585366D01*
X96932094Y-71614021D01*
X96867906Y-71614021D01*
X96818275Y-71585366D01*
X96817647Y-71586154D01*
X96812419Y-71581984D01*
X96812319Y-71581927D01*
X96812209Y-71581817D01*
X96807281Y-71576889D01*
X96685034Y-71500076D01*
X96658907Y-71483659D01*
X96658905Y-71483658D01*
X96653015Y-71479957D01*
X96646449Y-71477659D01*
X96646446Y-71477658D01*
X96487621Y-71422083D01*
X96487618Y-71422082D01*
X96481047Y-71419783D01*
X96474130Y-71419003D01*
X96474123Y-71419002D01*
X96306923Y-71400164D01*
X96300000Y-71399384D01*
X96293077Y-71400164D01*
X96125876Y-71419002D01*
X96125867Y-71419003D01*
X96118953Y-71419783D01*
X96112383Y-71422081D01*
X96112378Y-71422083D01*
X95953553Y-71477658D01*
X95953547Y-71477660D01*
X95946985Y-71479957D01*
X95941097Y-71483656D01*
X95941092Y-71483659D01*
X95798619Y-71573181D01*
X95798614Y-71573184D01*
X95792719Y-71576889D01*
X95787794Y-71581813D01*
X95787790Y-71581817D01*
X95668817Y-71700790D01*
X95668813Y-71700794D01*
X95663889Y-71705719D01*
X95660184Y-71711614D01*
X95660181Y-71711619D01*
X95570659Y-71854092D01*
X95570656Y-71854097D01*
X95566957Y-71859985D01*
X95564660Y-71866547D01*
X95564658Y-71866553D01*
X95509083Y-72025378D01*
X95509081Y-72025383D01*
X95506783Y-72031953D01*
X95506003Y-72038867D01*
X95506002Y-72038876D01*
X95498001Y-72109892D01*
X95486384Y-72213000D01*
X78375500Y-72213000D01*
X78375500Y-64140000D01*
X84296844Y-64140000D01*
X84297268Y-64145117D01*
X84315011Y-64359248D01*
X84315012Y-64359256D01*
X84315436Y-64364368D01*
X84316693Y-64369335D01*
X84316695Y-64369342D01*
X84369445Y-64577645D01*
X84370704Y-64582616D01*
X84372764Y-64587312D01*
X84459080Y-64784096D01*
X84459083Y-64784101D01*
X84461140Y-64788791D01*
X84493809Y-64838795D01*
X84581474Y-64972977D01*
X84581477Y-64972981D01*
X84584278Y-64977268D01*
X84729492Y-65135011D01*
X84758264Y-65187760D01*
X84758857Y-65247847D01*
X84731131Y-65301157D01*
X84681596Y-65335172D01*
X84572109Y-65376009D01*
X84572101Y-65376013D01*
X84563796Y-65379111D01*
X84556698Y-65384423D01*
X84556695Y-65384426D01*
X84453835Y-65461426D01*
X84453831Y-65461429D01*
X84446739Y-65466739D01*
X84441429Y-65473831D01*
X84441426Y-65473835D01*
X84364426Y-65576695D01*
X84364423Y-65576698D01*
X84359111Y-65583796D01*
X84356013Y-65592099D01*
X84356011Y-65592105D01*
X84310719Y-65713536D01*
X84310717Y-65713543D01*
X84308011Y-65720799D01*
X84307182Y-65728500D01*
X84307182Y-65728505D01*
X84302283Y-65774076D01*
X84301500Y-65781362D01*
X84301500Y-67578638D01*
X84301852Y-67581918D01*
X84301853Y-67581924D01*
X84304191Y-67603676D01*
X84308011Y-67639201D01*
X84310717Y-67646458D01*
X84310719Y-67646463D01*
X84356011Y-67767894D01*
X84359111Y-67776204D01*
X84364425Y-67783303D01*
X84364426Y-67783304D01*
X84437592Y-67881043D01*
X84446739Y-67893261D01*
X84563796Y-67980889D01*
X84700799Y-68031989D01*
X84761362Y-68038500D01*
X86555328Y-68038500D01*
X86558638Y-68038500D01*
X86619201Y-68031989D01*
X86756204Y-67980889D01*
X86873261Y-67893261D01*
X86960889Y-67776204D01*
X87006137Y-67654889D01*
X87042089Y-67603676D01*
X87098470Y-67576538D01*
X87160925Y-67580386D01*
X87213548Y-67614240D01*
X87273288Y-67679135D01*
X87273291Y-67679138D01*
X87276760Y-67682906D01*
X87280801Y-67686051D01*
X87450376Y-67818039D01*
X87450381Y-67818042D01*
X87454424Y-67821189D01*
X87458931Y-67823628D01*
X87458934Y-67823630D01*
X87647854Y-67925868D01*
X87652426Y-67928342D01*
X87865365Y-68001444D01*
X88087431Y-68038500D01*
X88307436Y-68038500D01*
X88312569Y-68038500D01*
X88534635Y-68001444D01*
X88747574Y-67928342D01*
X88945576Y-67821189D01*
X89123240Y-67682906D01*
X89275722Y-67517268D01*
X89398860Y-67328791D01*
X89489296Y-67122616D01*
X89544564Y-66904368D01*
X89562334Y-66689919D01*
X89562732Y-66685117D01*
X89563156Y-66680000D01*
X89544564Y-66455632D01*
X89489296Y-66237384D01*
X89398860Y-66031209D01*
X89344628Y-65948200D01*
X145286384Y-65948200D01*
X145287164Y-65955123D01*
X145306002Y-66122323D01*
X145306003Y-66122330D01*
X145306783Y-66129247D01*
X145309082Y-66135818D01*
X145309083Y-66135821D01*
X145346360Y-66242354D01*
X145366957Y-66301215D01*
X145370658Y-66307105D01*
X145370659Y-66307107D01*
X145429028Y-66400000D01*
X145463889Y-66455481D01*
X145592719Y-66584311D01*
X145746985Y-66681243D01*
X145918953Y-66741417D01*
X145964152Y-66746509D01*
X146004062Y-66758007D01*
X146037943Y-66782047D01*
X146261040Y-67005144D01*
X146290400Y-67051870D01*
X146296579Y-67106707D01*
X146292849Y-67139818D01*
X146286384Y-67197200D01*
X146287164Y-67204123D01*
X146306002Y-67371323D01*
X146306003Y-67371330D01*
X146306783Y-67378247D01*
X146309082Y-67384818D01*
X146309083Y-67384821D01*
X146358695Y-67526606D01*
X146366957Y-67550215D01*
X146370658Y-67556105D01*
X146370659Y-67556107D01*
X146459541Y-67697561D01*
X146463889Y-67704481D01*
X146592719Y-67833311D01*
X146746985Y-67930243D01*
X146918953Y-67990417D01*
X146925876Y-67991197D01*
X147024311Y-68002288D01*
X147100000Y-68010816D01*
X147281047Y-67990417D01*
X147453015Y-67930243D01*
X147607281Y-67833311D01*
X147736111Y-67704481D01*
X147833043Y-67550215D01*
X147893217Y-67378247D01*
X147909995Y-67229340D01*
X147912836Y-67204123D01*
X147913616Y-67197200D01*
X147893217Y-67016153D01*
X147833043Y-66844185D01*
X147736111Y-66689919D01*
X147609771Y-66563578D01*
X147605997Y-66559298D01*
X147604542Y-66556838D01*
X147590107Y-66542403D01*
X147577470Y-66527607D01*
X147565472Y-66511093D01*
X147559460Y-66506120D01*
X147559457Y-66506116D01*
X147531325Y-66482843D01*
X147522685Y-66474981D01*
X146933848Y-65886143D01*
X146909809Y-65852264D01*
X146898309Y-65812346D01*
X146893997Y-65774076D01*
X146893217Y-65767153D01*
X146833043Y-65595185D01*
X146736111Y-65440919D01*
X146607281Y-65312089D01*
X146589883Y-65301157D01*
X146458907Y-65218859D01*
X146458905Y-65218858D01*
X146453015Y-65215157D01*
X146446449Y-65212859D01*
X146446446Y-65212858D01*
X146287621Y-65157283D01*
X146287618Y-65157282D01*
X146281047Y-65154983D01*
X146274130Y-65154203D01*
X146274123Y-65154202D01*
X146106923Y-65135364D01*
X146100000Y-65134584D01*
X146093077Y-65135364D01*
X145925876Y-65154202D01*
X145925867Y-65154203D01*
X145918953Y-65154983D01*
X145912383Y-65157281D01*
X145912378Y-65157283D01*
X145753553Y-65212858D01*
X145753547Y-65212860D01*
X145746985Y-65215157D01*
X145741097Y-65218856D01*
X145741092Y-65218859D01*
X145598619Y-65308381D01*
X145598614Y-65308384D01*
X145592719Y-65312089D01*
X145587794Y-65317013D01*
X145587790Y-65317017D01*
X145468817Y-65435990D01*
X145468813Y-65435994D01*
X145463889Y-65440919D01*
X145460184Y-65446814D01*
X145460181Y-65446819D01*
X145370659Y-65589292D01*
X145370656Y-65589297D01*
X145366957Y-65595185D01*
X145364660Y-65601747D01*
X145364658Y-65601753D01*
X145309083Y-65760578D01*
X145309081Y-65760583D01*
X145306783Y-65767153D01*
X145306003Y-65774067D01*
X145306002Y-65774076D01*
X145291970Y-65898619D01*
X145286384Y-65948200D01*
X89344628Y-65948200D01*
X89275722Y-65842732D01*
X89267197Y-65833471D01*
X89126711Y-65680864D01*
X89126706Y-65680859D01*
X89123240Y-65677094D01*
X89065429Y-65632097D01*
X88949623Y-65541960D01*
X88949615Y-65541955D01*
X88945576Y-65538811D01*
X88941066Y-65536370D01*
X88941061Y-65536367D01*
X88909070Y-65519055D01*
X88861564Y-65473474D01*
X88844086Y-65410000D01*
X88861564Y-65346526D01*
X88909070Y-65300945D01*
X88909109Y-65300923D01*
X88945576Y-65281189D01*
X89123240Y-65142906D01*
X89275722Y-64977268D01*
X89398860Y-64788791D01*
X89489296Y-64582616D01*
X89544564Y-64364368D01*
X89563156Y-64140000D01*
X89544564Y-63915632D01*
X89489296Y-63697384D01*
X89398860Y-63491209D01*
X89275722Y-63302732D01*
X89188829Y-63208342D01*
X89126711Y-63140864D01*
X89126708Y-63140861D01*
X89123240Y-63137094D01*
X89073063Y-63098039D01*
X88949623Y-63001960D01*
X88949615Y-63001955D01*
X88945576Y-62998811D01*
X88941071Y-62996373D01*
X88941065Y-62996369D01*
X88902305Y-62975394D01*
X88856665Y-62932844D01*
X88837526Y-62873454D01*
X88849734Y-62812263D01*
X88890198Y-62764764D01*
X89066643Y-62641215D01*
X89074909Y-62634278D01*
X89234278Y-62474909D01*
X89241215Y-62466643D01*
X89370498Y-62282008D01*
X89375886Y-62272676D01*
X89471143Y-62068397D01*
X89474831Y-62058263D01*
X89526943Y-61863780D01*
X89527311Y-61852551D01*
X89516369Y-61850000D01*
X88074000Y-61850000D01*
X88012000Y-61833387D01*
X87966613Y-61788000D01*
X87950000Y-61726000D01*
X87950000Y-61333674D01*
X88450000Y-61333674D01*
X88453450Y-61346549D01*
X88466326Y-61350000D01*
X89516369Y-61350000D01*
X89527311Y-61347448D01*
X89526943Y-61336219D01*
X89474831Y-61141736D01*
X89471143Y-61131602D01*
X89375889Y-60927332D01*
X89370491Y-60917982D01*
X89241215Y-60733357D01*
X89234280Y-60725092D01*
X89074909Y-60565721D01*
X89066643Y-60558784D01*
X88882008Y-60429501D01*
X88872676Y-60424113D01*
X88668397Y-60328856D01*
X88658263Y-60325168D01*
X88463780Y-60273056D01*
X88452551Y-60272688D01*
X88450000Y-60283631D01*
X88450000Y-61333674D01*
X87950000Y-61333674D01*
X87950000Y-60283631D01*
X87947448Y-60272688D01*
X87936219Y-60273056D01*
X87741736Y-60325168D01*
X87731602Y-60328856D01*
X87527332Y-60424110D01*
X87517982Y-60429508D01*
X87333357Y-60558784D01*
X87325092Y-60565719D01*
X87165719Y-60725092D01*
X87158788Y-60733352D01*
X87035132Y-60909952D01*
X86989928Y-60949274D01*
X86931564Y-60962812D01*
X86873665Y-60947405D01*
X86829748Y-60906649D01*
X86738529Y-60767027D01*
X86738523Y-60767019D01*
X86735722Y-60762732D01*
X86615835Y-60632501D01*
X86586711Y-60600864D01*
X86586708Y-60600861D01*
X86583240Y-60597094D01*
X86562492Y-60580945D01*
X86409623Y-60461960D01*
X86409615Y-60461955D01*
X86405576Y-60458811D01*
X86401071Y-60456373D01*
X86401065Y-60456369D01*
X86212080Y-60354096D01*
X86212074Y-60354093D01*
X86207574Y-60351658D01*
X86202733Y-60349996D01*
X86202726Y-60349993D01*
X85999488Y-60280222D01*
X85999487Y-60280221D01*
X85994635Y-60278556D01*
X85989585Y-60277713D01*
X85989576Y-60277711D01*
X85777631Y-60242344D01*
X85777622Y-60242343D01*
X85772569Y-60241500D01*
X85547431Y-60241500D01*
X85542378Y-60242343D01*
X85542368Y-60242344D01*
X85330423Y-60277711D01*
X85330411Y-60277713D01*
X85325365Y-60278556D01*
X85320515Y-60280220D01*
X85320511Y-60280222D01*
X85117273Y-60349993D01*
X85117262Y-60349997D01*
X85112426Y-60351658D01*
X85107929Y-60354091D01*
X85107919Y-60354096D01*
X84918934Y-60456369D01*
X84918922Y-60456376D01*
X84914424Y-60458811D01*
X84910389Y-60461951D01*
X84910376Y-60461960D01*
X84740801Y-60593948D01*
X84740795Y-60593952D01*
X84736760Y-60597094D01*
X84733297Y-60600855D01*
X84733288Y-60600864D01*
X84587753Y-60758956D01*
X84587747Y-60758963D01*
X84584278Y-60762732D01*
X84581481Y-60767012D01*
X84581474Y-60767022D01*
X84463942Y-60946920D01*
X84461140Y-60951209D01*
X84459085Y-60955892D01*
X84459080Y-60955903D01*
X84372764Y-61152687D01*
X84370704Y-61157384D01*
X84369446Y-61162349D01*
X84369445Y-61162354D01*
X84316695Y-61370657D01*
X84316693Y-61370666D01*
X84315436Y-61375632D01*
X84315012Y-61380741D01*
X84315011Y-61380751D01*
X84307335Y-61473393D01*
X84296844Y-61600000D01*
X84297268Y-61605117D01*
X84315011Y-61819248D01*
X84315012Y-61819256D01*
X84315436Y-61824368D01*
X84316693Y-61829335D01*
X84316695Y-61829342D01*
X84369445Y-62037645D01*
X84370704Y-62042616D01*
X84372764Y-62047312D01*
X84459080Y-62244096D01*
X84459083Y-62244101D01*
X84461140Y-62248791D01*
X84520505Y-62339656D01*
X84581474Y-62432977D01*
X84581477Y-62432981D01*
X84584278Y-62437268D01*
X84587752Y-62441041D01*
X84587753Y-62441043D01*
X84733288Y-62599135D01*
X84733291Y-62599138D01*
X84736760Y-62602906D01*
X84740801Y-62606051D01*
X84910376Y-62738039D01*
X84910381Y-62738042D01*
X84914424Y-62741189D01*
X84918931Y-62743628D01*
X84918934Y-62743630D01*
X84950930Y-62760945D01*
X84998436Y-62806526D01*
X85015913Y-62870000D01*
X84998436Y-62933474D01*
X84950930Y-62979055D01*
X84918934Y-62996369D01*
X84918922Y-62996376D01*
X84914424Y-62998811D01*
X84910389Y-63001951D01*
X84910376Y-63001960D01*
X84740801Y-63133948D01*
X84740795Y-63133952D01*
X84736760Y-63137094D01*
X84733297Y-63140855D01*
X84733288Y-63140864D01*
X84587753Y-63298956D01*
X84587747Y-63298963D01*
X84584278Y-63302732D01*
X84581481Y-63307012D01*
X84581474Y-63307022D01*
X84545582Y-63361960D01*
X84461140Y-63491209D01*
X84459085Y-63495892D01*
X84459080Y-63495903D01*
X84384022Y-63667022D01*
X84370704Y-63697384D01*
X84369446Y-63702349D01*
X84369445Y-63702354D01*
X84316695Y-63910657D01*
X84316693Y-63910666D01*
X84315436Y-63915632D01*
X84315012Y-63920741D01*
X84315011Y-63920751D01*
X84307335Y-64013393D01*
X84296844Y-64140000D01*
X78375500Y-64140000D01*
X78375500Y-54548700D01*
X116005593Y-54548700D01*
X116006065Y-54554095D01*
X116024312Y-54762672D01*
X116024313Y-54762679D01*
X116024785Y-54768071D01*
X116026184Y-54773292D01*
X116026186Y-54773303D01*
X116080380Y-54975554D01*
X116080382Y-54975561D01*
X116081780Y-54980776D01*
X116084064Y-54985676D01*
X116084066Y-54985679D01*
X116172552Y-55175439D01*
X116174844Y-55180354D01*
X116177951Y-55184791D01*
X116298045Y-55356303D01*
X116298048Y-55356307D01*
X116301151Y-55360738D01*
X116456862Y-55516449D01*
X116637246Y-55642756D01*
X116836824Y-55735820D01*
X116842044Y-55737218D01*
X116842045Y-55737219D01*
X117044296Y-55791413D01*
X117044298Y-55791413D01*
X117049529Y-55792815D01*
X117268900Y-55812007D01*
X117488271Y-55792815D01*
X117700976Y-55735820D01*
X117900554Y-55642756D01*
X118080938Y-55516449D01*
X118236649Y-55360738D01*
X118362956Y-55180354D01*
X118426518Y-55044042D01*
X118472275Y-54991867D01*
X118538900Y-54972447D01*
X118605525Y-54991867D01*
X118651281Y-55044042D01*
X118714844Y-55180354D01*
X118717951Y-55184791D01*
X118838045Y-55356303D01*
X118838048Y-55356307D01*
X118841151Y-55360738D01*
X118996862Y-55516449D01*
X119177246Y-55642756D01*
X119376824Y-55735820D01*
X119382044Y-55737218D01*
X119382045Y-55737219D01*
X119584296Y-55791413D01*
X119584298Y-55791413D01*
X119589529Y-55792815D01*
X119808900Y-55812007D01*
X120028271Y-55792815D01*
X120240976Y-55735820D01*
X120440554Y-55642756D01*
X120620938Y-55516449D01*
X120776649Y-55360738D01*
X120902956Y-55180354D01*
X120966518Y-55044042D01*
X121012275Y-54991867D01*
X121078900Y-54972447D01*
X121145525Y-54991867D01*
X121191281Y-55044042D01*
X121254844Y-55180354D01*
X121257951Y-55184791D01*
X121378045Y-55356303D01*
X121378048Y-55356307D01*
X121381151Y-55360738D01*
X121536862Y-55516449D01*
X121717246Y-55642756D01*
X121916824Y-55735820D01*
X121922044Y-55737218D01*
X121922045Y-55737219D01*
X122124296Y-55791413D01*
X122124298Y-55791413D01*
X122129529Y-55792815D01*
X122348900Y-55812007D01*
X122568271Y-55792815D01*
X122780976Y-55735820D01*
X122980554Y-55642756D01*
X123160938Y-55516449D01*
X123316649Y-55360738D01*
X123442956Y-55180354D01*
X123506518Y-55044042D01*
X123552275Y-54991867D01*
X123618900Y-54972447D01*
X123685525Y-54991867D01*
X123731281Y-55044042D01*
X123794844Y-55180354D01*
X123797951Y-55184791D01*
X123918045Y-55356303D01*
X123918048Y-55356307D01*
X123921151Y-55360738D01*
X124076862Y-55516449D01*
X124257246Y-55642756D01*
X124456824Y-55735820D01*
X124462044Y-55737218D01*
X124462045Y-55737219D01*
X124664296Y-55791413D01*
X124664298Y-55791413D01*
X124669529Y-55792815D01*
X124888900Y-55812007D01*
X125108271Y-55792815D01*
X125320976Y-55735820D01*
X125520554Y-55642756D01*
X125700938Y-55516449D01*
X125856649Y-55360738D01*
X125982956Y-55180354D01*
X126046518Y-55044042D01*
X126092275Y-54991867D01*
X126158900Y-54972447D01*
X126225525Y-54991867D01*
X126271281Y-55044042D01*
X126334844Y-55180354D01*
X126337951Y-55184791D01*
X126458045Y-55356303D01*
X126458048Y-55356307D01*
X126461151Y-55360738D01*
X126616862Y-55516449D01*
X126797246Y-55642756D01*
X126996824Y-55735820D01*
X127002044Y-55737218D01*
X127002045Y-55737219D01*
X127204296Y-55791413D01*
X127204298Y-55791413D01*
X127209529Y-55792815D01*
X127428900Y-55812007D01*
X127648271Y-55792815D01*
X127860976Y-55735820D01*
X128060554Y-55642756D01*
X128240938Y-55516449D01*
X128396649Y-55360738D01*
X128484825Y-55234809D01*
X128532042Y-55194483D01*
X128592890Y-55182104D01*
X128652110Y-55200776D01*
X128694853Y-55245818D01*
X128710400Y-55305934D01*
X128710400Y-55347338D01*
X128710752Y-55350618D01*
X128710753Y-55350624D01*
X128711840Y-55360738D01*
X128716911Y-55407901D01*
X128719617Y-55415158D01*
X128719619Y-55415163D01*
X128764911Y-55536594D01*
X128768011Y-55544904D01*
X128773325Y-55552003D01*
X128773326Y-55552004D01*
X128838935Y-55639648D01*
X128855639Y-55661961D01*
X128972696Y-55749589D01*
X129109699Y-55800689D01*
X129170262Y-55807200D01*
X130764228Y-55807200D01*
X130767538Y-55807200D01*
X130828101Y-55800689D01*
X130965104Y-55749589D01*
X131082161Y-55661961D01*
X131169789Y-55544904D01*
X131220889Y-55407901D01*
X131227400Y-55347338D01*
X131227400Y-53750062D01*
X131220889Y-53689499D01*
X131169789Y-53552496D01*
X131082161Y-53435439D01*
X131050345Y-53411622D01*
X130972204Y-53353126D01*
X130972203Y-53353125D01*
X130965104Y-53347811D01*
X130956796Y-53344712D01*
X130956794Y-53344711D01*
X130835363Y-53299419D01*
X130835358Y-53299417D01*
X130828101Y-53296711D01*
X130820397Y-53295882D01*
X130820394Y-53295882D01*
X130770824Y-53290553D01*
X130770818Y-53290552D01*
X130767538Y-53290200D01*
X129170262Y-53290200D01*
X129166982Y-53290552D01*
X129166975Y-53290553D01*
X129117405Y-53295882D01*
X129117400Y-53295882D01*
X129109699Y-53296711D01*
X129102443Y-53299417D01*
X129102436Y-53299419D01*
X128981005Y-53344711D01*
X128980999Y-53344713D01*
X128972696Y-53347811D01*
X128965598Y-53353123D01*
X128965595Y-53353126D01*
X128862735Y-53430126D01*
X128862731Y-53430129D01*
X128855639Y-53435439D01*
X128850329Y-53442531D01*
X128850326Y-53442535D01*
X128773326Y-53545395D01*
X128773323Y-53545398D01*
X128768011Y-53552496D01*
X128764913Y-53560799D01*
X128764911Y-53560805D01*
X128719619Y-53682236D01*
X128719617Y-53682243D01*
X128716911Y-53689499D01*
X128716082Y-53697200D01*
X128716082Y-53697205D01*
X128711364Y-53741096D01*
X128710400Y-53750062D01*
X128710400Y-53753372D01*
X128710400Y-53791466D01*
X128694853Y-53851582D01*
X128652110Y-53896624D01*
X128592890Y-53915296D01*
X128532042Y-53902917D01*
X128484825Y-53862590D01*
X128399754Y-53741096D01*
X128399752Y-53741093D01*
X128396649Y-53736662D01*
X128240938Y-53580951D01*
X128236507Y-53577848D01*
X128236503Y-53577845D01*
X128097376Y-53480427D01*
X128057004Y-53433117D01*
X128044681Y-53372156D01*
X128063505Y-53312882D01*
X128133043Y-53202215D01*
X128193217Y-53030247D01*
X128213616Y-52849200D01*
X128193217Y-52668153D01*
X128133043Y-52496185D01*
X128036111Y-52341919D01*
X127907281Y-52213089D01*
X127753015Y-52116157D01*
X127746449Y-52113859D01*
X127746446Y-52113858D01*
X127587621Y-52058283D01*
X127587618Y-52058282D01*
X127581047Y-52055983D01*
X127574130Y-52055203D01*
X127574123Y-52055202D01*
X127406923Y-52036364D01*
X127400000Y-52035584D01*
X127393077Y-52036364D01*
X127225876Y-52055202D01*
X127225867Y-52055203D01*
X127218953Y-52055983D01*
X127212383Y-52058281D01*
X127212378Y-52058283D01*
X127053553Y-52113858D01*
X127053547Y-52113860D01*
X127046985Y-52116157D01*
X127041097Y-52119856D01*
X127041092Y-52119859D01*
X126898619Y-52209381D01*
X126898614Y-52209384D01*
X126892719Y-52213089D01*
X126887794Y-52218013D01*
X126887790Y-52218017D01*
X126768817Y-52336990D01*
X126768813Y-52336994D01*
X126763889Y-52341919D01*
X126760184Y-52347814D01*
X126760181Y-52347819D01*
X126670659Y-52490292D01*
X126670656Y-52490297D01*
X126666957Y-52496185D01*
X126664660Y-52502747D01*
X126664658Y-52502753D01*
X126609083Y-52661578D01*
X126609081Y-52661583D01*
X126606783Y-52668153D01*
X126606003Y-52675067D01*
X126606002Y-52675076D01*
X126587164Y-52842277D01*
X126586384Y-52849200D01*
X126587164Y-52856123D01*
X126606002Y-53023323D01*
X126606003Y-53023330D01*
X126606783Y-53030247D01*
X126666957Y-53202215D01*
X126670658Y-53208105D01*
X126670659Y-53208107D01*
X126747494Y-53330389D01*
X126766500Y-53396361D01*
X126766500Y-53411622D01*
X126752489Y-53468879D01*
X126713624Y-53513197D01*
X126621296Y-53577845D01*
X126621286Y-53577852D01*
X126616862Y-53580951D01*
X126613036Y-53584776D01*
X126613030Y-53584782D01*
X126464982Y-53732830D01*
X126464976Y-53732836D01*
X126461151Y-53736662D01*
X126458052Y-53741086D01*
X126458045Y-53741096D01*
X126337945Y-53912617D01*
X126337940Y-53912624D01*
X126334844Y-53917047D01*
X126332563Y-53921938D01*
X126332557Y-53921949D01*
X126271282Y-54053356D01*
X126225525Y-54105532D01*
X126158900Y-54124951D01*
X126092275Y-54105532D01*
X126046518Y-54053356D01*
X125985242Y-53921949D01*
X125985241Y-53921947D01*
X125982956Y-53917047D01*
X125895023Y-53791466D01*
X125859754Y-53741096D01*
X125859752Y-53741093D01*
X125856649Y-53736662D01*
X125700938Y-53580951D01*
X125696507Y-53577848D01*
X125696503Y-53577845D01*
X125551300Y-53476173D01*
X125520554Y-53454644D01*
X125493501Y-53442029D01*
X125325879Y-53363866D01*
X125325876Y-53363864D01*
X125320976Y-53361580D01*
X125315761Y-53360182D01*
X125315754Y-53360180D01*
X125113503Y-53305986D01*
X125113492Y-53305984D01*
X125108271Y-53304585D01*
X125102879Y-53304113D01*
X125102872Y-53304112D01*
X124894295Y-53285865D01*
X124888900Y-53285393D01*
X124883505Y-53285865D01*
X124674927Y-53304112D01*
X124674918Y-53304113D01*
X124669529Y-53304585D01*
X124664309Y-53305983D01*
X124664296Y-53305986D01*
X124462051Y-53360179D01*
X124462046Y-53360180D01*
X124456824Y-53361580D01*
X124451928Y-53363862D01*
X124451917Y-53363867D01*
X124262149Y-53452357D01*
X124262138Y-53452363D01*
X124257247Y-53454644D01*
X124252824Y-53457740D01*
X124252817Y-53457745D01*
X124081296Y-53577845D01*
X124081286Y-53577852D01*
X124076862Y-53580951D01*
X124073036Y-53584776D01*
X124073030Y-53584782D01*
X123924982Y-53732830D01*
X123924976Y-53732836D01*
X123921151Y-53736662D01*
X123918052Y-53741086D01*
X123918045Y-53741096D01*
X123797945Y-53912617D01*
X123797940Y-53912624D01*
X123794844Y-53917047D01*
X123792563Y-53921938D01*
X123792557Y-53921949D01*
X123731282Y-54053356D01*
X123685525Y-54105532D01*
X123618900Y-54124951D01*
X123552275Y-54105532D01*
X123506518Y-54053356D01*
X123445242Y-53921949D01*
X123445241Y-53921947D01*
X123442956Y-53917047D01*
X123355023Y-53791466D01*
X123319754Y-53741096D01*
X123319752Y-53741093D01*
X123316649Y-53736662D01*
X123160938Y-53580951D01*
X123156507Y-53577848D01*
X123156503Y-53577845D01*
X123011300Y-53476173D01*
X122980554Y-53454644D01*
X122953501Y-53442029D01*
X122785879Y-53363866D01*
X122785876Y-53363864D01*
X122780976Y-53361580D01*
X122775761Y-53360182D01*
X122775754Y-53360180D01*
X122573503Y-53305986D01*
X122573492Y-53305984D01*
X122568271Y-53304585D01*
X122562879Y-53304113D01*
X122562872Y-53304112D01*
X122354295Y-53285865D01*
X122348900Y-53285393D01*
X122343505Y-53285865D01*
X122134927Y-53304112D01*
X122134918Y-53304113D01*
X122129529Y-53304585D01*
X122124309Y-53305983D01*
X122124296Y-53305986D01*
X121922051Y-53360179D01*
X121922046Y-53360180D01*
X121916824Y-53361580D01*
X121911928Y-53363862D01*
X121911917Y-53363867D01*
X121722149Y-53452357D01*
X121722138Y-53452363D01*
X121717247Y-53454644D01*
X121712824Y-53457740D01*
X121712817Y-53457745D01*
X121541296Y-53577845D01*
X121541286Y-53577852D01*
X121536862Y-53580951D01*
X121533036Y-53584776D01*
X121533030Y-53584782D01*
X121384982Y-53732830D01*
X121384976Y-53732836D01*
X121381151Y-53736662D01*
X121378052Y-53741086D01*
X121378045Y-53741096D01*
X121257945Y-53912617D01*
X121257940Y-53912624D01*
X121254844Y-53917047D01*
X121252563Y-53921938D01*
X121252557Y-53921949D01*
X121191282Y-54053356D01*
X121145525Y-54105532D01*
X121078900Y-54124951D01*
X121012275Y-54105532D01*
X120966518Y-54053356D01*
X120905242Y-53921949D01*
X120905241Y-53921947D01*
X120902956Y-53917047D01*
X120815023Y-53791466D01*
X120779754Y-53741096D01*
X120779752Y-53741093D01*
X120776649Y-53736662D01*
X120620938Y-53580951D01*
X120616507Y-53577848D01*
X120616503Y-53577845D01*
X120471300Y-53476173D01*
X120440554Y-53454644D01*
X120413501Y-53442029D01*
X120245879Y-53363866D01*
X120245876Y-53363864D01*
X120240976Y-53361580D01*
X120235761Y-53360182D01*
X120235754Y-53360180D01*
X120033503Y-53305986D01*
X120033492Y-53305984D01*
X120028271Y-53304585D01*
X120022879Y-53304113D01*
X120022872Y-53304112D01*
X119814295Y-53285865D01*
X119808900Y-53285393D01*
X119803505Y-53285865D01*
X119594927Y-53304112D01*
X119594918Y-53304113D01*
X119589529Y-53304585D01*
X119584309Y-53305983D01*
X119584296Y-53305986D01*
X119382051Y-53360179D01*
X119382046Y-53360180D01*
X119376824Y-53361580D01*
X119371928Y-53363862D01*
X119371917Y-53363867D01*
X119182149Y-53452357D01*
X119182138Y-53452363D01*
X119177247Y-53454644D01*
X119172824Y-53457740D01*
X119172817Y-53457745D01*
X119001296Y-53577845D01*
X119001286Y-53577852D01*
X118996862Y-53580951D01*
X118993036Y-53584776D01*
X118993030Y-53584782D01*
X118844982Y-53732830D01*
X118844976Y-53732836D01*
X118841151Y-53736662D01*
X118838052Y-53741086D01*
X118838045Y-53741096D01*
X118717945Y-53912617D01*
X118717940Y-53912624D01*
X118714844Y-53917047D01*
X118712563Y-53921938D01*
X118712557Y-53921949D01*
X118651282Y-54053356D01*
X118605525Y-54105532D01*
X118538900Y-54124951D01*
X118472275Y-54105532D01*
X118426518Y-54053356D01*
X118365242Y-53921949D01*
X118365241Y-53921947D01*
X118362956Y-53917047D01*
X118275023Y-53791466D01*
X118239754Y-53741096D01*
X118239752Y-53741093D01*
X118236649Y-53736662D01*
X118080938Y-53580951D01*
X118076507Y-53577848D01*
X118076503Y-53577845D01*
X117931300Y-53476173D01*
X117900554Y-53454644D01*
X117873501Y-53442029D01*
X117705879Y-53363866D01*
X117705876Y-53363864D01*
X117700976Y-53361580D01*
X117695761Y-53360182D01*
X117695754Y-53360180D01*
X117493503Y-53305986D01*
X117493492Y-53305984D01*
X117488271Y-53304585D01*
X117482879Y-53304113D01*
X117482872Y-53304112D01*
X117274295Y-53285865D01*
X117268900Y-53285393D01*
X117263505Y-53285865D01*
X117054927Y-53304112D01*
X117054918Y-53304113D01*
X117049529Y-53304585D01*
X117044309Y-53305983D01*
X117044296Y-53305986D01*
X116842051Y-53360179D01*
X116842046Y-53360180D01*
X116836824Y-53361580D01*
X116831928Y-53363862D01*
X116831917Y-53363867D01*
X116642149Y-53452357D01*
X116642138Y-53452363D01*
X116637247Y-53454644D01*
X116632824Y-53457740D01*
X116632817Y-53457745D01*
X116461296Y-53577845D01*
X116461286Y-53577852D01*
X116456862Y-53580951D01*
X116453036Y-53584776D01*
X116453030Y-53584782D01*
X116304982Y-53732830D01*
X116304976Y-53732836D01*
X116301151Y-53736662D01*
X116298052Y-53741086D01*
X116298045Y-53741096D01*
X116177945Y-53912617D01*
X116177940Y-53912624D01*
X116174844Y-53917047D01*
X116172563Y-53921938D01*
X116172557Y-53921949D01*
X116084067Y-54111717D01*
X116084062Y-54111728D01*
X116081780Y-54116624D01*
X116080380Y-54121846D01*
X116080379Y-54121851D01*
X116026186Y-54324096D01*
X116026183Y-54324109D01*
X116024785Y-54329329D01*
X116024313Y-54334718D01*
X116024312Y-54334727D01*
X116006314Y-54540456D01*
X116005593Y-54548700D01*
X78375500Y-54548700D01*
X78375500Y-48099500D01*
X78392113Y-48037500D01*
X78437500Y-47992113D01*
X78499500Y-47975500D01*
X146250000Y-47975500D01*
X168100639Y-47999778D01*
G37*
%TD.AperFunction*%
%TD*%
M02*
