M48
; DRILL file {KiCad (7.0.0)} date Thu Apr 20 18:01:28 2023
; FORMAT={-:-/ absolute / inch / decimal}
; #@! TF.CreationDate,2023-04-20T18:01:28-06:00
; #@! TF.GenerationSoftware,Kicad,Pcbnew,(7.0.0)
; #@! TF.FileFunction,Plated,1,2,PTH
FMAT,2
INCH
; #@! TA.AperFunction,Plated,PTH,ViaDrill
T1C0.0157
; #@! TA.AperFunction,Plated,PTH,ComponentDrill
T2C0.0394
%
G90
G05
T1
X3.2441Y-3.0246
X3.2441Y-3.0748
X3.39Y-3.3118
X3.7205Y-3.2283
X3.7441Y-3.4606
X3.7913Y-2.843
X3.8386Y-2.843
X3.8425Y-2.8922
X3.9173Y-2.9252
X3.9646Y-3.4724
X4.1693Y-3.3937
X4.3386Y-3.2411
X4.3414Y-3.1762
X4.3465Y-3.4065
X4.4449Y-3.0551
X4.4449Y-3.1762
X4.4488Y-3.248
X4.4528Y-3.3898
X4.4961Y-3.561
X4.5118Y-3.3976
X4.5906Y-3.0079
X4.6358Y-3.4758
X4.6535Y-3.8543
X4.6732Y-3.2559
X4.6998Y-3.1687
X4.7Y-3.6407
X4.7283Y-3.1063
X4.7795Y-2.9331
X4.7795Y-3.7559
X4.7913Y-3.4685
X4.8196Y-3.8471
X4.8228Y-3.5625
X4.8612Y-3.5748
X4.8622Y-3.7441
X4.878Y-3.7008
X4.8858Y-2.8218
X4.8976Y-3.249
X4.9419Y-3.584
X4.9567Y-3.8937
X4.9803Y-3.1063
X4.9961Y-4.0827
X5.0118Y-3.8386
X5.0125Y-3.563
X5.0157Y-2.0807
X5.0157Y-3.7795
X5.0617Y-3.563
X5.0827Y-3.4724
X5.0906Y-3.1024
X5.1181Y-2.8189
X5.1181Y-2.874
X5.1327Y-3.2855
X5.1332Y-3.5876
X5.1457Y-3.1063
X5.1457Y-3.5315
X5.1496Y-3.0217
X5.1596Y-3.3504
X5.1644Y-3.4143
X5.191Y-3.5236
X5.191Y-3.6772
X5.1929Y-3.2943
X5.2074Y-3.0719
X5.2123Y-3.2333
X5.2156Y-3.4655
X5.2165Y-3.9543
X5.2165Y-4.0035
X5.274Y-3.4544
X5.2913Y-3.6575
X5.315Y-3.7559
X5.3252Y-3.5056
X5.3465Y-3.0473
X5.3583Y-3.1732
X5.3819Y-4.0787
X5.3858Y-3.8661
X5.4016Y-3.7132
X5.4182Y-3.7441
X5.4252Y-4.0748
X5.4724Y-3.122
X5.5364Y-3.2018
X5.5709Y-3.3937
X5.5709Y-3.4488
X5.5709Y-3.1653
X5.6436Y-3.191
X5.6547Y-3.1327
X5.752Y-2.5964
X5.7672Y-3.6886
X5.7913Y-2.6456
X5.8071Y-3.0236
X5.8139Y-3.6651
X5.8438Y-2.7664
X5.8502Y-3.5356
X5.8916Y-3.5769
X5.9045Y-2.5833
X5.9045Y-2.6181
X5.9263Y-3.5422
X5.9291Y-2.6811
X5.9537Y-2.6142
X5.9537Y-2.6457
X5.978Y-3.5253
X6.0976Y-3.2283
X6.1467Y-3.2283
X6.3031Y-2.685
X6.3583Y-2.685
T2
X3.3724Y-2.4252
X3.3724Y-2.5252
X3.3724Y-2.6252
X3.4724Y-2.4252
X3.4724Y-2.5252
X3.4724Y-2.6252
X4.6169Y-2.1476
X4.6169Y-2.7476
X4.7169Y-2.1476
X4.7169Y-2.7476
X4.8169Y-2.1476
X4.8169Y-2.7476
X4.9169Y-2.1476
X4.9169Y-2.7476
X5.0169Y-2.1476
X5.0169Y-2.7476
X5.1169Y-2.1476
X5.1169Y-2.7476
X6.0433Y-3.6417
X6.0433Y-3.9409
X6.1504Y-2.3394
X6.1504Y-2.4394
X6.1504Y-2.5394
X6.1504Y-2.6394
X6.2504Y-2.3394
X6.2504Y-2.4394
X6.2504Y-2.5394
X6.2504Y-2.6394
T0
M30
